<svg width="34" height="57" viewBox="0 0 34 57" fill="none" xmlns="http://www.w3.org/2000/svg">
	<path d="M8.43711 55.4095L6.76208 55.432V52.5653H8.43711V55.4095Z" fill="#393536" />
	<path d="M8.43711 55.4095L6.76208 55.432V52.5653H8.43711V55.4095Z" stroke="#231F20"
		stroke-width="0.25" stroke-miterlimit="3.864" />
	<path d="M8.43744 56H9.23744V52.5653H8.43744V56Z" fill="#393536" />
	<path d="M8.43738 56H9.23738V52.5653H8.43738V56Z" stroke="#231F20" stroke-width="0.25"
		stroke-miterlimit="3.864" />
	<path d="M25.536 55.4095L27.211 55.432V52.5653H25.536V55.4095Z" fill="#393536" />
	<path d="M25.536 55.4095L27.211 55.432V52.5653H25.536V55.4095Z" stroke="#231F20"
		stroke-width="0.25" stroke-miterlimit="3.864" />
	<path d="M25.536 56H24.736V52.5653H25.536V56Z" fill="#393536" />
	<path d="M25.5362 56H24.7362V52.5653H25.5362V56Z" stroke="#231F20" stroke-width="0.25"
		stroke-miterlimit="3.864" />
	<path
		d="M33.0454 10.8519C32.3263 8.625 31.2804 5.97583 30.1562 4.87897L29.3953 5.04025L18.9208 4.88754L18.9143 4.83128L16.9934 4.85914L15.0724 4.83128L15.0665 4.88754L4.59195 5.04025L3.83106 4.87897C2.70741 5.97583 1.66039 8.625 0.941832 10.8519C0.601575 11.9065 0.441895 13.0135 0.441895 14.1216V49.055C0.441895 49.7784 1.02864 50.3651 1.75255 50.3651H10.1507H23.836H32.2347C32.9581 50.3651 33.5454 49.7784 33.5454 49.055V14.1216C33.5454 13.0135 33.3857 11.9065 33.0454 10.8519Z"
		fill="white" />
	<path
		d="M33.0454 10.8519C32.3263 8.625 31.2804 5.97583 30.1562 4.87897L29.3953 5.04025L18.9208 4.88754L18.9143 4.83128L16.9934 4.85914L15.0724 4.83128L15.0665 4.88754L4.59195 5.04025L3.83106 4.87897C2.70741 5.97583 1.66039 8.625 0.941832 10.8519C0.601575 11.9065 0.441895 13.0135 0.441895 14.1216V49.055C0.441895 49.7784 1.02864 50.3651 1.75255 50.3651H10.1507H23.836H32.2347C32.9581 50.3651 33.5454 49.7784 33.5454 49.055V14.1216C33.5454 13.0135 33.3857 11.9065 33.0454 10.8519Z"
		fill="url(#paint0_linear_14_58)" />
	<path
		d="M33.0454 10.8519C32.3263 8.625 31.2804 5.97583 30.1562 4.87897L29.3953 5.04025L18.9208 4.88754L18.9143 4.83128L16.9934 4.85914L15.0724 4.83128L15.0665 4.88754L4.59195 5.04025L3.83106 4.87897C2.70741 5.97583 1.66039 8.625 0.941832 10.8519C0.601575 11.9065 0.441895 13.0135 0.441895 14.1216V49.055C0.441895 49.7784 1.02864 50.3651 1.75255 50.3651H10.1507H23.836H32.2347C32.9581 50.3651 33.5454 49.7784 33.5454 49.055V14.1216C33.5454 13.0135 33.3857 11.9065 33.0454 10.8519Z"
		fill="url(#paint1_linear_14_58)" />
	<path
		d="M33.0454 10.8519C32.3263 8.625 31.2804 5.97583 30.1562 4.87897L29.3953 5.04025L18.9208 4.88754L18.9143 4.83128L16.9934 4.85914L15.0724 4.83128L15.0665 4.88754L4.59195 5.04025L3.83106 4.87897C2.70741 5.97583 1.66039 8.625 0.941832 10.8519C0.601575 11.9065 0.441895 13.0135 0.441895 14.1216V49.055C0.441895 49.7784 1.02864 50.3651 1.75255 50.3651H10.1507H23.836H32.2347C32.9581 50.3651 33.5454 49.7784 33.5454 49.055V14.1216C33.5454 13.0135 33.3857 11.9065 33.0454 10.8519Z"
		fill="url(#paint2_linear_14_58)" />
	<path d="M33.5585 39.9865L24.7236 40.5898V42.2289L33.5585 41.6256V39.9865Z" fill="#ED1C24" />
	<path d="M0.446655 39.9865L9.28154 40.5898V42.2289L0.446655 41.6256V39.9865Z" fill="#ED1C24" />
	<path
		d="M0.442017 45.6828V49.0549C0.442017 49.7788 1.02876 50.365 1.75267 50.365H10.1514H23.8361H32.2348C32.9582 50.365 33.545 49.7788 33.545 49.0549V45.6828H0.442017Z"
		fill="#4F5756" />
	<path
		d="M32.6645 9.95317C31.9797 7.97111 31.0961 5.91992 30.1568 4.9806L29.3959 5.14564L18.9214 4.98864L18.9155 4.9313L16.994 4.9597L15.0735 4.9313H15.0725L15.066 4.98864L4.59257 5.14564L3.83222 4.9806H3.83114C2.89236 5.91992 2.00823 7.97111 1.32343 9.95317C1.32343 9.9537 1.32396 9.95424 1.32343 9.95531L1.41291 9.94192C2.1095 10.085 3.24119 11.4144 3.50214 12.515C3.81346 13.8267 7.7449 30.8594 7.75079 30.8856C7.89011 31.4954 8.41255 31.5994 8.81336 31.6294C9.3149 31.669 13.8079 31.8293 16.822 31.863C16.8584 31.8641 17.129 31.8641 17.166 31.863C20.1801 31.8293 24.6736 31.669 25.1751 31.6294C25.5754 31.5994 26.0979 31.4954 26.2372 30.8856C26.2436 30.8594 30.1745 13.8267 30.4853 12.515C30.7462 11.4144 31.8785 10.085 32.5751 9.94192L32.6645 9.95531C32.6645 9.95424 32.664 9.9537 32.6635 9.95317H32.6645Z"
		fill="url(#paint3_linear_14_58)" />
	<path
		d="M30.1576 8.01048C30.1983 5.28146 29.3212 3.50784 26.4384 2.2079C25.0125 1.5649 23.1419 1.28572 21.4079 1.15444C20.7746 1.10515 20.1466 1.07514 19.5453 1.05692C19.2287 1.04085 18.9131 1.02906 18.5985 1.02048L18.5969 1.00012H18.5792C18.4335 1.00012 18.2834 1.00012 18.1356 1.00012H18.1184C17.7498 1.00012 17.3768 1.00012 17.0023 1.00066C16.6282 1.00012 16.2548 1.00012 15.8861 1.00012H15.869C15.7211 1.00012 15.5716 1.00012 15.4253 1.00012H15.4076L15.406 1.02048C15.092 1.02906 14.7759 1.04085 14.4592 1.05692C13.8574 1.07514 13.2305 1.10515 12.5966 1.15444C10.8626 1.28572 8.99257 1.5649 7.5667 2.2079C4.6839 3.50784 3.80673 5.28146 3.84692 8.01048C3.84156 8.38074 3.85657 8.78476 3.89354 9.23272C3.893 9.2338 3.893 9.23487 3.893 9.23594C3.9573 11.4345 4.58959 14.5772 5.48873 18.5456C7.64869 28.076 8.26972 29.1498 8.26972 29.1498H25.7348C25.7348 29.1498 26.3564 28.076 28.5158 18.5456C29.4149 14.5772 30.0478 11.4345 30.1115 9.23594V9.23272C30.1485 8.78476 30.163 8.38074 30.1576 8.01048Z"
		fill="url(#paint4_linear_14_58)" />
	<path
		d="M0.444214 19.8615C1.47463 21.7739 5.78062 30.5675 5.91458 31.173C5.96655 31.4082 5.8058 31.6343 5.58771 31.6343H0.444214V19.8615Z"
		fill="#231F20" />
	<path
		d="M0.444214 19.8615C1.47463 21.7739 5.78062 30.5675 5.91458 31.173C5.96655 31.4082 5.8058 31.6343 5.58771 31.6343H0.444214V19.8615Z"
		stroke="#0A0F0C" stroke-width="0.25" stroke-miterlimit="10" />
	<path
		d="M33.0454 10.8519C32.3263 8.625 31.2804 5.97582 30.1562 4.87896L29.3953 5.04025H4.59195L3.83106 4.87896C2.70741 5.97582 1.66039 8.625 0.941832 10.8519C0.601575 11.9065 0.441895 13.0135 0.441895 14.1216V49.055C0.441895 49.7784 1.02864 50.3651 1.75255 50.3651H10.1507H23.836H32.2347C32.9581 50.3651 33.5454 49.7784 33.5454 49.055V14.1216C33.5454 13.0135 33.3857 11.9065 33.0454 10.8519Z"
		stroke="#0A0F0C" stroke-width="0.25" stroke-miterlimit="10" />
	<path
		d="M0.444275 28.3138H3.8163C4.01241 28.3138 4.14316 28.0887 4.06332 27.8894L0.444275 20.4573V28.3138Z"
		fill="#859291" />
	<path
		d="M0.444275 28.3138H3.8163C4.01241 28.3138 4.14316 28.0887 4.06332 27.8894L0.444275 20.4573V28.3138Z"
		stroke="#0A0F0C" stroke-width="0.25" stroke-miterlimit="10" />
	<path
		d="M33.5573 19.8615C32.5269 21.7739 28.2209 30.5675 28.0869 31.173C28.0349 31.4082 28.1957 31.6343 28.4138 31.6343H33.5573V19.8615Z"
		fill="#231F20" />
	<path
		d="M33.5573 19.8615C32.5269 21.7739 28.2209 30.5675 28.0869 31.173C28.0349 31.4082 28.1957 31.6343 28.4138 31.6343H33.5573V19.8615Z"
		stroke="#0A0F0C" stroke-width="0.25" stroke-miterlimit="10" />
	<path
		d="M33.5572 28.3138H30.1745C29.9789 28.3138 29.8482 28.0887 29.9275 27.8894L33.5572 20.4573V28.3138Z"
		fill="#859291" />
	<path
		d="M33.5572 28.3138H30.1745C29.9789 28.3138 29.8482 28.0887 29.9275 27.8894L33.5572 20.4573V28.3138Z"
		stroke="#0A0F0C" stroke-width="0.25" stroke-miterlimit="10" />
	<path
		d="M24.8046 33.9065H31.6157C31.8611 33.9065 32.0031 34.1846 31.8562 34.3807C31.4126 34.9717 30.4609 35.9893 28.2024 36.8359C25.9733 37.6718 23.3418 37.5984 23.3418 37.5984L24.8046 33.9065Z"
		fill="#7B7979" />
	<path
		d="M24.8046 33.9065H31.6157C31.8611 33.9065 32.0031 34.1846 31.8562 34.3807C31.4126 34.9717 30.4609 35.9893 28.2024 36.8359C25.9733 37.6718 23.3418 37.5984 23.3418 37.5984L24.8046 33.9065Z"
		stroke="#040606" stroke-width="0.25" stroke-miterlimit="10" />
	<path
		d="M27.0884 35.6285C27.0884 36.2956 26.5478 36.8357 25.8812 36.8357C25.2141 36.8357 24.6734 36.2956 24.6734 35.6285C24.6734 34.9613 25.2141 34.4212 25.8812 34.4212C26.5478 34.4212 27.0884 34.9613 27.0884 35.6285Z"
		fill="#F4F4F4" />
	<path
		d="M27.0884 35.6285C27.0884 36.2956 26.5478 36.8357 25.8812 36.8357C25.2141 36.8357 24.6734 36.2956 24.6734 35.6285C24.6734 34.9613 25.2141 34.4212 25.8812 34.4212C26.5478 34.4212 27.0884 34.9613 27.0884 35.6285Z"
		stroke="#040606" stroke-width="0.25" stroke-miterlimit="10" />
	<path
		d="M29.3176 35.2801C29.3176 35.7549 28.9329 36.1396 28.4581 36.1396C27.9839 36.1396 27.5992 35.7549 27.5992 35.2801C27.5992 34.8054 27.9839 34.4206 28.4581 34.4206C28.9329 34.4206 29.3176 34.8054 29.3176 35.2801Z"
		fill="#F4F4F4" />
	<path
		d="M29.3176 35.2801C29.3176 35.7549 28.9329 36.1396 28.4581 36.1396C27.9839 36.1396 27.5992 35.7549 27.5992 35.2801C27.5992 34.8054 27.9839 34.4206 28.4581 34.4206C28.9329 34.4206 29.3176 34.8054 29.3176 35.2801Z"
		stroke="#040606" stroke-width="0.25" stroke-miterlimit="10" />
	<path d="M0.431152 39.3901H33.4505" stroke="#040606" stroke-width="0.25" stroke-miterlimit="10" />
	<path
		d="M7.60171 46.4142H3.67617C3.19552 46.4142 2.80597 46.0247 2.80597 45.5446V41.5719C2.80597 41.0912 3.19552 40.7022 3.67617 40.7022H7.60171C8.08236 40.7022 8.47138 41.0912 8.47138 41.5719V45.5446C8.47138 46.0247 8.08236 46.4142 7.60171 46.4142Z"
		fill="#231F20" />
	<path
		d="M7.60171 46.4142H3.67617C3.19552 46.4142 2.80597 46.0247 2.80597 45.5446V41.5719C2.80597 41.0912 3.19552 40.7022 3.67617 40.7022H7.60171C8.08236 40.7022 8.47138 41.0912 8.47138 41.5719V45.5446C8.47138 46.0247 8.08236 46.4142 7.60171 46.4142Z"
		stroke="#0A0F0C" stroke-width="0.25" stroke-miterlimit="10" />
	<path d="M3.40955 41.7606H7.86771H3.40955Z" fill="#231F20" />
	<path d="M3.40955 41.7606H7.86771" stroke="#0A0F0C" stroke-width="0.25" stroke-miterlimit="10" />
	<path d="M3.40955 42.6594H7.86771H3.40955Z" fill="#231F20" />
	<path d="M3.40955 42.6594H7.86771" stroke="#0A0F0C" stroke-width="0.25" stroke-miterlimit="10" />
	<path d="M3.40955 43.5581H7.86771H3.40955Z" fill="#231F20" />
	<path d="M3.40955 43.5581H7.86771" stroke="#0A0F0C" stroke-width="0.25" stroke-miterlimit="10" />
	<path d="M3.40955 44.4568H7.86771H3.40955Z" fill="#231F20" />
	<path d="M3.40955 44.4568H7.86771" stroke="#0A0F0C" stroke-width="0.25" stroke-miterlimit="10" />
	<path d="M3.40955 45.3557H7.86771H3.40955Z" fill="#231F20" />
	<path d="M3.40955 45.3557H7.86771" stroke="#0A0F0C" stroke-width="0.25" stroke-miterlimit="10" />
	<path d="M7.96093 45.9033H3.31683V41.2125H7.96093V45.9033Z" stroke="#0A0F0C" stroke-width="0.25"
		stroke-miterlimit="10" />
	<path
		d="M30.3114 46.4142H26.3859C25.9052 46.4142 25.5157 46.0247 25.5157 45.5446V41.5719C25.5157 41.0912 25.9052 40.7022 26.3859 40.7022H30.3114C30.7921 40.7022 31.1811 41.0912 31.1811 41.5719V45.5446C31.1811 46.0247 30.7921 46.4142 30.3114 46.4142Z"
		fill="#231F20" />
	<path
		d="M30.3114 46.4142H26.3859C25.9052 46.4142 25.5157 46.0247 25.5157 45.5446V41.5719C25.5157 41.0912 25.9052 40.7022 26.3859 40.7022H30.3114C30.7921 40.7022 31.1811 41.0912 31.1811 41.5719V45.5446C31.1811 46.0247 30.7921 46.4142 30.3114 46.4142Z"
		stroke="#0A0F0C" stroke-width="0.25" stroke-miterlimit="10" />
	<path d="M26.1193 41.7606H30.5775H26.1193Z" fill="#231F20" />
	<path d="M26.1193 41.7606H30.5775" stroke="#0A0F0C" stroke-width="0.25" stroke-miterlimit="10" />
	<path d="M26.1193 42.6594H30.5775H26.1193Z" fill="#231F20" />
	<path d="M26.1193 42.6594H30.5775" stroke="#0A0F0C" stroke-width="0.25" stroke-miterlimit="10" />
	<path d="M26.1193 43.5581H30.5775H26.1193Z" fill="#231F20" />
	<path d="M26.1193 43.5581H30.5775" stroke="#0A0F0C" stroke-width="0.25" stroke-miterlimit="10" />
	<path d="M26.1193 44.4568H30.5775H26.1193Z" fill="#231F20" />
	<path d="M26.1193 44.4568H30.5775" stroke="#0A0F0C" stroke-width="0.25" stroke-miterlimit="10" />
	<path d="M26.1193 45.3557H30.5775H26.1193Z" fill="#231F20" />
	<path d="M26.1193 45.3557H30.5775" stroke="#0A0F0C" stroke-width="0.25" stroke-miterlimit="10" />
	<path d="M30.6707 45.9033H26.0266V41.2125H30.6707V45.9033Z" stroke="#0A0F0C" stroke-width="0.25"
		stroke-miterlimit="10" />
	<path
		d="M19.1937 7.15999H18.7056H15.6406H15.1524L14.1081 10.0021H15.6406H18.7056H20.2381L19.1937 7.15999Z"
		stroke="#0A0F0C" stroke-width="0.25" stroke-miterlimit="10" />
	<path
		d="M18.3923 8.58126C18.3923 9.25481 17.8463 9.80029 17.1732 9.80029C16.4997 9.80029 15.9537 9.25481 15.9537 8.58126C15.9537 7.90772 16.4997 7.36223 17.1732 7.36223C17.8463 7.36223 18.3923 7.90772 18.3923 8.58126Z"
		fill="white" />
	<path
		d="M18.3923 8.58126C18.3923 9.25481 17.8463 9.80029 17.1732 9.80029C16.4997 9.80029 15.9537 9.25481 15.9537 8.58126C15.9537 7.90772 16.4997 7.36223 17.1732 7.36223C17.8463 7.36223 18.3923 7.90772 18.3923 8.58126Z"
		stroke="#0A0F0C" stroke-width="0.25" stroke-miterlimit="10" />
	<path d="M24.6883 50.3474H9.29901V39.449H24.6883V50.3474Z" fill="#231F20" />
	<path d="M24.6882 50.3477H9.29895V39.4493H24.6882V50.3477Z" stroke="#040606" stroke-width="0.25"
		stroke-miterlimit="10" />
	<path d="M19.4901 46.723H23.2929V41.8517H19.4901V46.723Z" fill="#3F4545" />
	<path d="M19.4901 46.7228H23.2929V41.8515H19.4901V46.7228Z" stroke="#0A0F0C" stroke-width="0.25" />
	<path
		d="M22.0266 47.2921L22.1879 47.1008C19.6962 43.8027 15.7503 41.6658 11.2986 41.6658C10.6191 41.6658 9.95203 41.7172 9.29938 41.8126V42.0526C9.95149 41.9546 10.6191 41.9031 11.2986 41.9031C15.6849 41.9031 19.5783 44.0261 22.0266 47.2921Z"
		fill="#4F4C4D" />
	<path
		d="M22.0266 47.2921L22.1879 47.1008C19.6962 43.8027 15.7503 41.6658 11.2986 41.6658C10.6191 41.6658 9.95203 41.7172 9.29938 41.8126V42.0526C9.95149 41.9546 10.6191 41.9031 11.2986 41.9031C15.6849 41.9031 19.5783 44.0261 22.0266 47.2921Z"
		stroke="#040606" stroke-width="0.25" stroke-miterlimit="10" />
	<path
		d="M21.5593 47.8455L21.7147 47.6617C19.3565 44.4622 15.5687 42.3784 11.2986 42.3784C10.6186 42.3784 9.95094 42.4314 9.29883 42.5332V42.7744C9.95041 42.6709 10.6181 42.6157 11.2986 42.6157C15.5103 42.6157 19.2472 44.6793 21.5593 47.8455Z"
		fill="#4F4C4D" />
	<path
		d="M21.5593 47.8455L21.7147 47.6617C19.3565 44.4622 15.5687 42.3784 11.2986 42.3784C10.6186 42.3784 9.95094 42.4314 9.29883 42.5332V42.7744C9.95041 42.6709 10.6181 42.6157 11.2986 42.6157C15.5103 42.6157 19.2472 44.6793 21.5593 47.8455Z"
		stroke="#040606" stroke-width="0.25" stroke-miterlimit="10" />
	<path d="M11.7162 47.3778H18.6826V42.0832H11.7162V47.3778Z" fill="#3F4545" />
	<path d="M11.7161 47.3781H18.6825V42.0834H11.7161V47.3781Z" stroke="#0A0F0C" stroke-width="0.25" />
	<path d="M12.645 42.5017H16.6392V45.3347H12.645V42.5017Z" stroke="#0A0F0C" stroke-width="0.25" />
	<path d="M17.9395 47.285H13.8527V45.7992H17.9395V47.285Z" stroke="#0A0F0C" stroke-width="0.25" />
	<path d="M10.8085 43.1517H9.29901V41.6422H10.8085V43.1517Z" fill="#3F4545" />
	<path d="M10.8087 43.152H9.29926V41.6425H10.8087V43.152Z" stroke="#0A0F0C" stroke-width="0.25" />
	<path
		d="M16.1283 43.2913C16.1283 43.4965 15.9622 43.6631 15.7564 43.6631C15.5512 43.6631 15.3851 43.4965 15.3851 43.2913C15.3851 43.0861 15.5512 42.9194 15.7564 42.9194C15.9622 42.9194 16.1283 43.0861 16.1283 43.2913Z"
		stroke="#0A0F0C" stroke-width="0.25" />
	<path
		d="M16.1283 44.2665C16.1283 44.4717 15.9622 44.6384 15.7564 44.6384C15.5512 44.6384 15.3851 44.4717 15.3851 44.2665C15.3851 44.0613 15.5512 43.8946 15.7564 43.8946C15.9622 43.8946 16.1283 44.0613 16.1283 44.2665Z"
		stroke="#0A0F0C" stroke-width="0.25" />
	<path d="M13.0166 45.0096H13.3885V42.6412H13.0166V45.0096Z" stroke="#0A0F0C" stroke-width="0.25" />
	<path
		d="M16.8215 47.3781C16.3634 48.491 15.2681 49.2771 13.9918 49.2771C12.3044 49.2771 10.9321 47.9043 10.9321 46.2169C10.9321 45.4335 11.2306 44.7203 11.7166 44.1786V43.8346C11.0881 44.4347 10.6948 45.2797 10.6948 46.2169C10.6948 48.0377 12.171 49.5145 13.9918 49.5145C15.4037 49.5145 16.605 48.6255 17.075 47.3781H16.8215Z"
		fill="#3F4545" />
	<path
		d="M16.8215 47.3781C16.3634 48.491 15.2681 49.2771 13.9918 49.2771C12.3044 49.2771 10.9321 47.9043 10.9321 46.2169C10.9321 45.4335 11.2306 44.7203 11.7166 44.1786V43.8346C11.0881 44.4347 10.6948 45.2797 10.6948 46.2169C10.6948 48.0377 12.171 49.5145 13.9918 49.5145C15.4037 49.5145 16.605 48.6255 17.075 47.3781H16.8215Z"
		stroke="#0A0F0C" stroke-width="0.25" />
	<path d="M23.2624 47.3496L21.9962 48.85L21.246 48.2172L22.5122 46.7168L23.2624 47.3496Z"
		fill="#3F4545" />
	<path d="M23.2624 47.3496L21.9962 48.85L21.246 48.2172L22.5122 46.7168L23.2624 47.3496Z"
		stroke="#040606" stroke-width="0.25" stroke-miterlimit="10" />
	<path
		d="M20.2919 42.3595H12.7907V45.7272C12.7907 45.9051 12.645 46.0509 12.4671 46.0509H10.4164C10.2385 46.0509 10.0928 46.1955 10.0928 46.3734V46.5605C10.0928 46.7384 10.2385 46.8841 10.4164 46.8841H16.182C16.1879 46.9098 16.1938 46.9355 16.2104 46.9634L16.4199 47.3171C16.511 47.4698 16.7302 47.5952 16.9081 47.5952H17.5248C17.7027 47.5952 17.9224 47.4698 18.013 47.3171L18.2225 46.9634C18.2396 46.9355 18.245 46.9098 18.2504 46.8841H20.2919V42.3595Z"
		fill="#3F4545" />
	<path
		d="M20.2919 42.3595H12.7907V45.7272C12.7907 45.9051 12.645 46.0509 12.4671 46.0509H10.4164C10.2385 46.0509 10.0928 46.1955 10.0928 46.3734V46.5605C10.0928 46.7384 10.2385 46.8841 10.4164 46.8841H16.182C16.1879 46.9098 16.1938 46.9355 16.2104 46.9634L16.4199 47.3171C16.511 47.4698 16.7302 47.5952 16.9081 47.5952H17.5248C17.7027 47.5952 17.9224 47.4698 18.013 47.3171L18.2225 46.9634C18.2396 46.9355 18.245 46.9098 18.2504 46.8841H20.2919V42.3595Z"
		stroke="#0A0F0C" stroke-width="0.25" />
	<path
		d="M20.292 46.0052C20.292 46.1831 20.1467 46.3278 19.9683 46.3278H13.1133C12.9354 46.3278 12.7908 46.1831 12.7908 46.0052V42.6831C12.7908 42.5052 12.9354 42.3594 13.1133 42.3594H19.9683C20.1467 42.3594 20.292 42.5052 20.292 42.6831V46.0052Z"
		fill="#3F4545" />
	<path
		d="M20.292 46.0052C20.292 46.1831 20.1467 46.3278 19.9683 46.3278H13.1133C12.9354 46.3278 12.7908 46.1831 12.7908 46.0052V42.6831C12.7908 42.5052 12.9354 42.3594 13.1133 42.3594H19.9683C20.1467 42.3594 20.292 42.5052 20.292 42.6831V46.0052Z"
		stroke="#0A0F0C" stroke-width="0.25" />
	<path
		d="M16.4037 44.3838C16.4037 45.283 15.6755 46.0106 14.7769 46.0106C13.8783 46.0106 13.1495 45.283 13.1495 44.3838C13.1495 43.4858 13.8783 42.757 14.7769 42.757C15.6755 42.757 16.4037 43.4858 16.4037 44.3838Z"
		stroke="#0A0F0C" stroke-width="0.25" />
	<path
		d="M19.8563 44.3838C19.8563 45.283 19.1276 46.0106 18.2295 46.0106C17.3298 46.0106 16.6022 45.283 16.6022 44.3838C16.6022 43.4858 17.3298 42.757 18.2295 42.757C19.1276 42.757 19.8563 43.4858 19.8563 44.3838Z"
		fill="#0A0F0C" />
	<path
		d="M19.8563 44.3838C19.8563 45.283 19.1276 46.0106 18.2295 46.0106C17.3298 46.0106 16.6022 45.283 16.6022 44.3838C16.6022 43.4858 17.3298 42.757 18.2295 42.757C19.1276 42.757 19.8563 43.4858 19.8563 44.3838Z"
		stroke="#0A0F0C" stroke-width="0.25" />
	<path d="M15.3717 45.0193H14.1821V43.8297H15.3717V45.0193Z" stroke="#0A0F0C" stroke-width="0.25" />
	<path d="M10.6412 37.637L9.29944 39.3436H24.6881L23.3416 37.637H10.6412Z" fill="#231F20" />
	<path d="M10.6412 37.637L9.29944 39.3436H24.6881L23.3416 37.637H10.6412Z" stroke="#0A0F0C"
		stroke-width="0.25" stroke-miterlimit="10" />
	<path
		d="M28.5967 50.3653H5.39065H1.21112L3.22105 52.5247H5.39065H28.5967H30.7663L32.7762 50.3653H28.5967Z"
		fill="#4F5756" />
	<path
		d="M28.5967 50.3653H5.39065H1.21112L3.22105 52.5247H5.39065H28.5967H30.7663L32.7762 50.3653H28.5967Z"
		stroke="#0A0F0C" stroke-width="0.25" stroke-miterlimit="10" />
	<path
		d="M21.3089 34.2584H15.0225C14.6522 34.2584 14.3522 33.9578 14.3522 33.587V31.4115C14.3522 31.0407 14.6522 30.7401 15.0225 30.7401H21.3089C21.6792 30.7401 21.9798 31.0407 21.9798 31.4115V33.587C21.9798 33.9578 21.6792 34.2584 21.3089 34.2584Z"
		stroke="#0A0F0C" stroke-width="0.25" stroke-miterlimit="10" />
	<path
		d="M5.90289 5.01898C9.15167 3.09372 12.9438 1.98882 16.9937 1.98882C21.0328 1.98882 24.8153 3.08729 28.0576 5.00344"
		stroke="#0A0F0C" stroke-width="0.25" stroke-miterlimit="10" />
	<path
		d="M9.18268 33.9065H2.37165C2.12624 33.9065 1.98424 34.1846 2.13106 34.3807C2.57474 34.9717 3.52638 35.9893 5.78494 36.8359C8.01402 37.6718 10.6455 37.5984 10.6455 37.5984L9.18268 33.9065Z"
		fill="#7B7979" />
	<path
		d="M9.18268 33.9065H2.37165C2.12624 33.9065 1.98424 34.1846 2.13106 34.3807C2.57474 34.9717 3.52638 35.9893 5.78494 36.8359C8.01402 37.6718 10.6455 37.5984 10.6455 37.5984L9.18268 33.9065Z"
		stroke="#040606" stroke-width="0.25" stroke-miterlimit="10" />
	<path
		d="M6.89886 35.6285C6.89886 36.2956 7.43952 36.8357 8.10611 36.8357C8.77322 36.8357 9.31388 36.2956 9.31388 35.6285C9.31388 34.9613 8.77322 34.4212 8.10611 34.4212C7.43952 34.4212 6.89886 34.9613 6.89886 35.6285Z"
		fill="#F4F4F4" />
	<path
		d="M6.89886 35.6285C6.89886 36.2956 7.43952 36.8357 8.10611 36.8357C8.77322 36.8357 9.31388 36.2956 9.31388 35.6285C9.31388 34.9613 8.77322 34.4212 8.10611 34.4212C7.43952 34.4212 6.89886 34.9613 6.89886 35.6285Z"
		stroke="#040606" stroke-width="0.25" stroke-miterlimit="10" />
	<path
		d="M4.66968 35.2801C4.66968 35.7549 5.05441 36.1396 5.52916 36.1396C6.00338 36.1396 6.38811 35.7549 6.38811 35.2801C6.38811 34.8054 6.00338 34.4206 5.52916 34.4206C5.05441 34.4206 4.66968 34.8054 4.66968 35.2801Z"
		fill="#F4F4F4" />
	<path
		d="M4.66968 35.2801C4.66968 35.7549 5.05441 36.1396 5.52916 36.1396C6.00338 36.1396 6.38811 35.7549 6.38811 35.2801C6.38811 34.8054 6.00338 34.4206 5.52916 34.4206C5.05441 34.4206 4.66968 34.8054 4.66968 35.2801Z"
		stroke="#040606" stroke-width="0.25" stroke-miterlimit="10" />
	<path
		d="M8.58118 15.3103C9.04521 21.3138 9.60248 24.6805 10.1882 28.314H23.799C24.3841 24.6805 24.9419 21.3138 25.4059 15.3103H8.58118Z"
		fill="#859291" />
	<path
		d="M8.58118 15.3103C9.04521 21.3138 9.60248 24.6805 10.1882 28.314H23.799C24.3841 24.6805 24.9419 21.3138 25.4059 15.3103H8.58118Z"
		stroke="#0A0F0C" stroke-width="0.25" stroke-miterlimit="10" />
	<path
		d="M24.0162 21.8284C24.0076 21.9934 23.8833 22.1198 23.7391 22.1102L22.9166 22.0545C22.7725 22.0448 22.6616 21.9023 22.6707 21.7373L22.6712 21.7131C22.6803 21.5481 22.8052 21.4216 22.9488 21.4313L23.7713 21.487C23.9154 21.4967 24.0264 21.6392 24.0172 21.8042L24.0162 21.8284Z"
		fill="#0A0F0C" />
	<path d="M18.2686 31.9925L23.8107 21.7998" stroke="#0A0F0C" stroke-width="0.25"
		stroke-linecap="round" />
	<path d="M17.405 31.934L22.9471 21.7413" stroke="#0A0F0C" stroke-width="0.25" />
	<path
		d="M18.5562 30.6893L17.8178 31.9652C17.7487 32.0841 17.7808 32.2502 17.8901 32.3343L18.1227 32.5149C18.2314 32.5996 18.3756 32.5712 18.4452 32.4522L19.182 31.1764L18.5562 30.6893Z"
		fill="#0A0F0C" />
	<path
		d="M23.5132 16.5398C23.5132 16.5398 23.5663 18.9104 23.4055 22.0263C23.2453 25.1422 22.942 27.6418 22.942 27.6418"
		stroke="#0A0F0C" stroke-width="0.25" stroke-linecap="round" />
	<path d="M23.4262 16.534L22.8544 27.636" stroke="#0A0F0C" stroke-width="0.25"
		stroke-linecap="round" />
	<path d="M7.75221 29.2891H26.2359L29.5329 14.7995H4.4552L7.75221 29.2891Z" stroke="#0A0F0C"
		stroke-width="0.25" stroke-miterlimit="10" />
	<path d="M29.1155 28.7782H33.5689" stroke="#0A0F0C" stroke-width="0.25" stroke-miterlimit="10" />
	<path d="M0.431519 28.7782H4.9138" stroke="#0A0F0C" stroke-width="0.25" stroke-miterlimit="10" />
	<path d="M28.3169 30.5559H33.5686" stroke="#0A0F0C" stroke-width="0.25" stroke-miterlimit="10" />
	<path d="M0.452148 30.5559H5.64441" stroke="#0A0F0C" stroke-width="0.25" stroke-miterlimit="10" />
	<path d="M18.9146 5.66718H15.362V2.53253H18.9146V5.66718Z" fill="#231F20" />
	<path d="M18.9148 5.66693H15.3622V2.53228H18.9148V5.66693Z" stroke="#0A0F0C" stroke-width="0.25"
		stroke-miterlimit="10" />
	<path
		d="M29.6197 4.99304C29.0795 3.84956 28.0866 2.9515 26.4384 2.20776C25.012 1.56475 23.1419 1.28558 21.408 1.15484C20.7746 1.10501 20.1466 1.07553 19.5454 1.05678C19.2287 1.0407 18.9131 1.02892 18.5986 1.02088L18.597 0.999981H18.5793C18.433 0.999981 18.2835 1.00052 18.1356 1.00052L18.1185 0.999981C17.7498 0.999981 17.3769 0.999981 17.0023 1.00105C16.6283 0.999981 16.2548 0.999981 15.8862 0.999981H15.869C15.7211 0.999981 15.5716 0.999981 15.4248 0.999981H15.4077L15.4061 1.02088C15.0921 1.02892 14.7759 1.0407 14.4592 1.05678C13.8575 1.07553 13.2306 1.10501 12.5967 1.15484C10.8627 1.28558 8.99262 1.56475 7.56676 2.20776C5.91102 2.95418 4.91704 3.85706 4.37799 5.00751"
		stroke="#0A0F0C" stroke-width="0.25" stroke-miterlimit="10" />
	<path
		d="M15.5478 34.726H18.4403C18.6037 34.726 18.7371 34.8578 18.7371 35.0207V36.8666C18.7371 37.0311 18.6037 37.1646 18.4403 37.1646H15.5478C15.3833 37.1646 15.2504 37.0311 15.2504 36.8666V35.0207C15.2504 34.8578 15.3833 34.726 15.5478 34.726Z"
		fill="#EC1C27" />
	<path
		d="M15.6041 34.9752H18.3835C18.4376 34.9752 18.4826 35.0192 18.4826 35.0744V36.8153C18.4826 36.87 18.4376 36.9144 18.3835 36.9144H15.6041C15.5494 36.9144 15.5055 36.87 15.5055 36.8153V35.0744C15.5055 35.0192 15.5494 34.9752 15.6041 34.9752Z"
		fill="#E3E6E3" />
	<path
		d="M15.7271 36.7493H16.2607C16.7151 36.7493 16.9568 36.5436 16.9568 35.952C16.9568 35.3385 16.7253 35.167 16.2607 35.167H15.7271V36.7493Z"
		fill="#EC1C27" />
	<path
		d="M17.1595 36.7493H17.7216C17.9606 36.7493 18.288 36.6711 18.288 36.2917C18.288 36.0988 18.1959 35.9852 18.0174 35.9418V35.937C18.1669 35.8786 18.2543 35.7677 18.2543 35.5673C18.2543 35.2956 18.0212 35.167 17.7731 35.167H17.1595V36.7493Z"
		fill="#EC1C27" />
	<path
		d="M16.1058 35.4092H16.2205C16.4809 35.4092 16.5892 35.6428 16.5892 35.9574C16.5892 36.273 16.4863 36.5066 16.2205 36.5066H16.1058V35.4092Z"
		fill="#E3E6E3" />
	<path
		d="M17.514 36.0554H17.6244C17.7466 36.0554 17.9095 36.1165 17.9095 36.2901C17.9095 36.4509 17.7493 36.5195 17.6201 36.5195H17.514V36.0554Z"
		fill="#E3E6E3" />
	<path
		d="M17.514 35.3963H17.6185C17.7359 35.3963 17.8752 35.4783 17.8752 35.6246C17.8752 35.7586 17.73 35.8154 17.6142 35.8154H17.514V35.3963Z"
		fill="#E3E6E3" />
	<path
		d="M15.5064 38.6193L15.7057 38.1917H15.8011L15.5996 38.6193H15.755V38.4473H15.8408V38.6193H15.8879V38.6997H15.8408V38.7886H15.755V38.6997H15.5064V38.6193Z"
		fill="white" />
	<path d="M16.0612 38.2826L15.9766 38.3447V38.2542L16.0612 38.192H16.147V38.7889H16.0612V38.2826Z"
		fill="white" />
	<path d="M16.4634 38.2826L16.3787 38.3447V38.2542L16.4634 38.192H16.5491V38.7889H16.4634V38.2826Z"
		fill="white" />
	<path
		d="M16.988 38.3638C16.988 38.3059 16.9542 38.2727 16.9044 38.2727C16.854 38.2727 16.8208 38.3059 16.8208 38.3638V38.6167C16.8208 38.6746 16.854 38.7083 16.9044 38.7083C16.9542 38.7083 16.988 38.6746 16.988 38.6167V38.3638ZM16.735 38.359C16.735 38.2496 16.816 38.1875 16.9044 38.1875C16.9922 38.1875 17.0737 38.2496 17.0737 38.359V38.6221C17.0737 38.7314 16.9922 38.7935 16.9044 38.7935C16.816 38.7935 16.735 38.7314 16.735 38.6221V38.359Z"
		fill="white" />
	<path
		d="M17.591 38.3638C17.591 38.3059 17.5572 38.2727 17.5074 38.2727C17.457 38.2727 17.4238 38.3059 17.4238 38.3638V38.6167C17.4238 38.6746 17.457 38.7083 17.5074 38.7083C17.5572 38.7083 17.591 38.6746 17.591 38.6167V38.3638ZM17.3381 38.359C17.3381 38.2496 17.419 38.1875 17.5074 38.1875C17.5953 38.1875 17.6767 38.2496 17.6767 38.359V38.6221C17.6767 38.7314 17.5953 38.7935 17.5074 38.7935C17.419 38.7935 17.3381 38.7314 17.3381 38.6221V38.359Z"
		fill="white" />
	<path
		d="M17.9931 38.3638C17.9931 38.3059 17.9594 38.2727 17.9096 38.2727C17.8592 38.2727 17.826 38.3059 17.826 38.3638V38.6167C17.826 38.6746 17.8592 38.7083 17.9096 38.7083C17.9594 38.7083 17.9931 38.6746 17.9931 38.6167V38.3638ZM17.7402 38.359C17.7402 38.2496 17.8211 38.1875 17.9096 38.1875C17.9974 38.1875 18.0789 38.2496 18.0789 38.359V38.6221C18.0789 38.7314 17.9974 38.7935 17.9096 38.7935C17.8211 38.7935 17.7402 38.7314 17.7402 38.6221V38.359Z"
		fill="white" />
	<path
		d="M18.3954 38.3638C18.3954 38.3059 18.3616 38.2727 18.3118 38.2727C18.2614 38.2727 18.2282 38.3059 18.2282 38.3638V38.6167C18.2282 38.6746 18.2614 38.7083 18.3118 38.7083C18.3616 38.7083 18.3954 38.6746 18.3954 38.6167V38.3638ZM18.1425 38.359C18.1425 38.2496 18.2234 38.1875 18.3118 38.1875C18.3997 38.1875 18.4811 38.2496 18.4811 38.359V38.6221C18.4811 38.7314 18.3997 38.7935 18.3118 38.7935C18.2234 38.7935 18.1425 38.7314 18.1425 38.6221V38.359Z"
		fill="white" />
	<defs>
		<linearGradient id="paint0_linear_14_58" x1="0.441895" y1="27.5982" x2="33.5453" y2="27.5982"
			gradientUnits="userSpaceOnUse">
			<stop stop-opacity="0.1" />
			<stop offset="0.333333" stop-opacity="0" />
			<stop offset="0.677083" stop-opacity="0" />
			<stop offset="1" stop-opacity="0.1" />
		</linearGradient>
		<linearGradient id="paint1_linear_14_58" x1="16.9936" y1="50.3651" x2="16.9935" y2="9.97654"
			gradientUnits="userSpaceOnUse">
			<stop offset="0.0755152" stop-opacity="0.2" />
			<stop offset="0.310035" stop-opacity="0.05" />
			<stop offset="0.73489" stop-opacity="0.05" />
			<stop offset="0.952416" stop-opacity="0" />
		</linearGradient>
		<linearGradient id="paint2_linear_14_58" x1="16.9936" y1="50.3651" x2="16.9935" y2="9.97654"
			gradientUnits="userSpaceOnUse">
			<stop offset="0.73489" stop-color="white" stop-opacity="0" />
			<stop offset="0.952416" stop-color="white" />
		</linearGradient>
		<linearGradient id="paint3_linear_14_58" x1="16.994" y1="14.625" x2="16.994" y2="1.00012"
			gradientUnits="userSpaceOnUse">
			<stop stop-color="#231F20" />
			<stop offset="1" stop-color="#404040" />
		</linearGradient>
		<linearGradient id="paint4_linear_14_58" x1="16.994" y1="14.625" x2="16.994" y2="1.00012"
			gradientUnits="userSpaceOnUse">
			<stop stop-color="#231F20" />
			<stop offset="1" stop-color="#404040" />
		</linearGradient>
	</defs>
</svg>
