<svg width="34" height="57" viewBox="0 0 34 57" fill="none" xmlns="http://www.w3.org/2000/svg">
	<path d="M8.44236 55.4095L6.76733 55.432V52.5653H8.44236V55.4095Z" fill="#393536" />
	<path d="M8.44264 56H9.24265V52.5653L8.44236 52.5653L8.44264 56Z" fill="#393536" />
	<path d="M25.5412 55.4095L27.2163 55.432V52.5653H25.5412V55.4095Z" fill="#393536" />
	<path d="M25.5412 56H24.7412V52.5653L25.5412 52.5653L25.5412 56Z" fill="#393536" />
	<path
		d="M8.44236 52.5653H6.76733V55.432L8.44236 55.4095V52.5653ZM8.44236 52.5653L9.24265 52.5653V56H8.44264L8.44236 52.5653ZM25.5412 52.5653H27.2163V55.432L25.5412 55.4095V52.5653ZM25.5412 52.5653L24.7412 52.5653V56H25.5412L25.5412 52.5653Z"
		stroke="#231F20" stroke-width="0.25" />
	<path
		d="M33.0506 10.8519C32.3315 8.625 31.2856 5.97583 30.1614 4.87897L29.4005 5.04025L18.926 4.88754L18.9195 4.83128L16.9986 4.85914L15.0776 4.83128L15.0717 4.88754L4.59714 5.04025L3.83625 4.87897C2.7126 5.97583 1.66558 8.625 0.94702 10.8519C0.606763 11.9065 0.447083 13.0135 0.447083 14.1216V49.055C0.447083 49.7784 1.03382 50.3651 1.75774 50.3651H10.1559H23.8412H32.2399C32.9633 50.3651 33.5506 49.7784 33.5506 49.055V14.1216C33.5506 13.0135 33.3909 11.9065 33.0506 10.8519Z"
		fill="white" />
	<path
		d="M33.0506 10.8519C32.3315 8.625 31.2856 5.97583 30.1614 4.87897L29.4005 5.04025L18.926 4.88754L18.9195 4.83128L16.9986 4.85914L15.0776 4.83128L15.0717 4.88754L4.59714 5.04025L3.83625 4.87897C2.7126 5.97583 1.66558 8.625 0.94702 10.8519C0.606763 11.9065 0.447083 13.0135 0.447083 14.1216V49.055C0.447083 49.7784 1.03382 50.3651 1.75774 50.3651H10.1559H23.8412H32.2399C32.9633 50.3651 33.5506 49.7784 33.5506 49.055V14.1216C33.5506 13.0135 33.3909 11.9065 33.0506 10.8519Z"
		fill="url(#paint0_linear_14_964)" />
	<path
		d="M33.0506 10.8519C32.3315 8.625 31.2856 5.97583 30.1614 4.87897L29.4005 5.04025L18.926 4.88754L18.9195 4.83128L16.9986 4.85914L15.0776 4.83128L15.0717 4.88754L4.59714 5.04025L3.83625 4.87897C2.7126 5.97583 1.66558 8.625 0.94702 10.8519C0.606763 11.9065 0.447083 13.0135 0.447083 14.1216V49.055C0.447083 49.7784 1.03382 50.3651 1.75774 50.3651H10.1559H23.8412H32.2399C32.9633 50.3651 33.5506 49.7784 33.5506 49.055V14.1216C33.5506 13.0135 33.3909 11.9065 33.0506 10.8519Z"
		fill="url(#paint1_linear_14_964)" />
	<path
		d="M33.0506 10.8519C32.3315 8.625 31.2856 5.97583 30.1614 4.87897L29.4005 5.04025L18.926 4.88754L18.9195 4.83128L16.9986 4.85914L15.0776 4.83128L15.0717 4.88754L4.59714 5.04025L3.83625 4.87897C2.7126 5.97583 1.66558 8.625 0.94702 10.8519C0.606763 11.9065 0.447083 13.0135 0.447083 14.1216V49.055C0.447083 49.7784 1.03382 50.3651 1.75774 50.3651H10.1559H23.8412H32.2399C32.9633 50.3651 33.5506 49.7784 33.5506 49.055V14.1216C33.5506 13.0135 33.3909 11.9065 33.0506 10.8519Z"
		fill="url(#paint2_linear_14_964)" />
	<path d="M33.5637 39.9865L24.7288 40.5899V42.229L33.5637 41.6256V39.9865Z" fill="#ED1C24" />
	<path d="M0.451843 39.9865L9.28673 40.5899V42.229L0.451843 41.6256V39.9865Z" fill="#ED1C24" />
	<path
		d="M0.447205 45.6829V49.0549C0.447205 49.7788 1.03395 50.365 1.75786 50.365H32.24C32.9634 50.365 33.5502 49.7788 33.5502 49.0549V45.6829H0.447205Z"
		fill="#4F5756" />
	<path d="M1.21628 50.3653L3.2262 52.5247H30.7714L32.7814 50.3653H1.21628Z" fill="#4F5756" />
	<path d="M24.6934 50.3475H9.3042V39.4491H24.6934V50.3475Z" fill="#231F20" />
	<path d="M10.6464 37.637L9.30464 39.3437H24.6933L23.3468 37.637H10.6464Z" fill="#231F20" />
	<path
		d="M32.6697 9.95323C31.9849 7.97117 31.1013 5.91998 30.162 4.98066L29.4011 5.1457L18.9266 4.9887L18.9207 4.93136L16.9992 4.95976L15.0787 4.93136H15.0777L15.0712 4.9887L4.59776 5.1457L3.8374 4.98066H3.83633C2.89754 5.91998 2.01341 7.97117 1.32861 9.95323C1.32861 9.95376 1.32915 9.9543 1.32861 9.95537L1.4181 9.94198C2.11469 10.085 3.24638 11.4145 3.50733 12.5151C3.81865 13.8268 7.75009 30.8595 7.75598 30.8857C7.8953 31.4955 8.41774 31.5994 8.81855 31.6294C9.32009 31.6691 13.8131 31.8293 16.8272 31.8631C16.8636 31.8641 17.1342 31.8641 17.1712 31.8631C20.1853 31.8293 24.6788 31.6691 25.1803 31.6294C25.5806 31.5994 26.103 31.4955 26.2424 30.8857C26.2488 30.8595 30.1797 13.8268 30.4905 12.5151C30.7514 11.4145 31.8837 10.085 32.5802 9.94198L32.6697 9.95537C32.6697 9.9543 32.6692 9.95376 32.6687 9.95323H32.6697Z"
		fill="url(#paint3_linear_14_964)" />
	<path
		d="M30.1628 8.01054C30.2035 5.28152 29.3263 3.5079 26.4435 2.20796C25.0177 1.56496 23.1471 1.28578 21.4131 1.1545C20.7797 1.10521 20.1517 1.0752 19.5505 1.05698C19.2339 1.04091 18.9182 1.02912 18.6037 1.02054L18.6021 1.00018H18.5844C18.4387 1.00018 18.2886 1.00018 18.1407 1.00018H18.1236C17.7549 1.00018 17.382 1.00018 17.0074 1.00072C16.6334 1.00018 16.26 1.00018 15.8913 1.00018H15.8742C15.7263 1.00018 15.5768 1.00018 15.4305 1.00018H15.4128L15.4112 1.02054C15.0972 1.02912 14.781 1.04091 14.4644 1.05698C13.8626 1.0752 13.2357 1.10521 12.6018 1.1545C10.8678 1.28578 8.99775 1.56496 7.57189 2.20796C4.68909 3.5079 3.81192 5.28152 3.85211 8.01054C3.84675 8.3808 3.86175 8.78482 3.89873 9.23278C3.89819 9.23386 3.89819 9.23493 3.89819 9.236C3.96249 11.4345 4.59478 14.5772 5.49392 18.5456C7.65387 28.076 8.27491 29.1499 8.27491 29.1499H25.74C25.74 29.1499 26.3616 28.076 28.521 18.5456C29.4201 14.5772 30.0529 11.4345 30.1167 9.236V9.23278C30.1537 8.78482 30.1681 8.3808 30.1628 8.01054Z"
		fill="url(#paint4_linear_14_964)" />
	<path
		d="M0.449402 19.8615C1.47982 21.7739 5.7858 30.5675 5.91976 31.173C5.97174 31.4082 5.81099 31.6343 5.5929 31.6343H0.449402V19.8615Z"
		fill="#231F20" />
	<path
		d="M33.5625 19.8615C32.5321 21.7739 28.2261 30.5675 28.0921 31.173C28.0401 31.4082 28.2009 31.6343 28.419 31.6343H33.5625V19.8615Z"
		fill="#231F20" />
	<path
		d="M0.449402 19.8615C1.47982 21.7739 5.7858 30.5675 5.91976 31.173C5.97174 31.4082 5.81099 31.6343 5.5929 31.6343H0.449402V19.8615Z"
		stroke="#0A0F0C" stroke-width="0.25" stroke-miterlimit="10" />
	<path
		d="M0.449463 28.3138H3.82149C4.0176 28.3138 4.14835 28.0887 4.06851 27.8894L0.449463 20.4573V28.3138Z"
		fill="#859291" />
	<path
		d="M33.5625 19.8615C32.5321 21.7739 28.2261 30.5675 28.0921 31.173C28.0401 31.4082 28.2009 31.6343 28.419 31.6343H33.5625V19.8615Z"
		stroke="#0A0F0C" stroke-width="0.25" stroke-miterlimit="10" />
	<path
		d="M33.5624 28.3138H30.1797C29.9841 28.3138 29.8534 28.0887 29.9327 27.8894L33.5624 20.4573V28.3138Z"
		fill="#859291" />
	<path
		d="M24.8098 33.9065H31.6208C31.8662 33.9065 32.0082 34.1846 31.8614 34.3807C31.4177 34.9717 30.4661 35.9893 28.2075 36.8359C25.9784 37.6718 23.3469 37.5984 23.3469 37.5984L24.8098 33.9065Z"
		fill="#7B7979" />
	<path
		d="M7.6069 46.4142H3.68136C3.20071 46.4142 2.81116 46.0247 2.81116 45.5446V41.5719C2.81116 41.0912 3.20071 40.7022 3.68136 40.7022H7.6069C8.08755 40.7022 8.47656 41.0912 8.47656 41.5719V45.5446C8.47656 46.0247 8.08755 46.4142 7.6069 46.4142Z"
		fill="#231F20" />
	<path
		d="M30.3166 46.4142H26.3911C25.9104 46.4142 25.5209 46.0247 25.5209 45.5446V41.5719C25.5209 41.0912 25.9104 40.7022 26.3911 40.7022H30.3166C30.7973 40.7022 31.1863 41.0912 31.1863 41.5719V45.5446C31.1863 46.0247 30.7973 46.4142 30.3166 46.4142Z"
		fill="#231F20" />
	<path d="M19.4954 46.723H23.2982V41.8517H19.4954V46.723Z" fill="#3F4545" />
	<path d="M19.4954 46.7228H23.2982V41.8515H19.4954V46.7228Z" stroke="#0A0F0C" stroke-width="0.25" />
	<path d="M11.7214 47.3778H18.6879V42.0832H11.7214V47.3778Z" fill="#3F4545" />
	<path d="M11.7213 47.3781H18.6877V42.0834H11.7213V47.3781Z" stroke="#0A0F0C" stroke-width="0.25" />
	<path
		d="M16.1335 43.2913C16.1335 43.4965 15.9674 43.6631 15.7616 43.6631C15.5564 43.6631 15.3903 43.4965 15.3903 43.2913C15.3903 43.0861 15.5564 42.9194 15.7616 42.9194C15.9674 42.9194 16.1335 43.0861 16.1335 43.2913Z"
		stroke="#0A0F0C" stroke-width="0.25" />
	<path
		d="M16.1335 44.2665C16.1335 44.4717 15.9674 44.6384 15.7616 44.6384C15.5564 44.6384 15.3903 44.4717 15.3903 44.2665C15.3903 44.0613 15.5564 43.8946 15.7616 43.8946C15.9674 43.8946 16.1335 44.0613 16.1335 44.2665Z"
		stroke="#0A0F0C" stroke-width="0.25" />
	<path d="M13.0219 45.0096H13.3937V42.6412H13.0219V45.0096Z" stroke="#0A0F0C" stroke-width="0.25" />
	<path
		d="M16.8267 47.3781C16.3686 48.491 15.2733 49.2771 13.997 49.2771C12.3096 49.2771 10.9373 47.9043 10.9373 46.2169C10.9373 45.4335 11.2358 44.7203 11.7218 44.1786V43.8346C11.0933 44.4347 10.7 45.2797 10.7 46.2169C10.7 48.0377 12.1762 49.5145 13.997 49.5145C15.4089 49.5145 16.6102 48.6255 17.0802 47.3781H16.8267Z"
		fill="#3F4545" />
	<path
		d="M16.8267 47.3781C16.3686 48.491 15.2733 49.2771 13.997 49.2771C12.3096 49.2771 10.9373 47.9043 10.9373 46.2169C10.9373 45.4335 11.2358 44.7203 11.7218 44.1786V43.8346C11.0933 44.4347 10.7 45.2797 10.7 46.2169C10.7 48.0377 12.1762 49.5145 13.997 49.5145C15.4089 49.5145 16.6102 48.6255 17.0802 47.3781H16.8267Z"
		stroke="#0A0F0C" stroke-width="0.25" />
	<path
		d="M20.2971 46.0052C20.2971 46.1831 20.1519 46.3278 19.9735 46.3278H13.1185C12.9406 46.3278 12.796 46.1831 12.796 46.0052V42.6831C12.796 42.5052 12.9406 42.3594 13.1185 42.3594H19.9735C20.1519 42.3594 20.2971 42.5052 20.2971 42.6831V46.0052Z"
		fill="#3F4545" />
	<path
		d="M20.2971 46.0052C20.2971 46.1831 20.1519 46.3278 19.9735 46.3278H13.1185C12.9406 46.3278 12.796 46.1831 12.796 46.0052V42.6831C12.796 42.5052 12.9406 42.3594 13.1185 42.3594H19.9735C20.1519 42.3594 20.2971 42.5052 20.2971 42.6831V46.0052Z"
		stroke="#0A0F0C" stroke-width="0.25" />
	<path
		d="M9.18787 33.9065H2.37684C2.13143 33.9065 1.98943 34.1846 2.13625 34.3807C2.57992 34.9717 3.53157 35.9893 5.79012 36.8359C8.01921 37.6718 10.6507 37.5984 10.6507 37.5984L9.18787 33.9065Z"
		fill="#7B7979" />
	<path
		d="M27.0935 35.6284C27.0935 36.2956 26.5529 36.8357 25.8863 36.8357C25.2192 36.8357 24.6785 36.2956 24.6785 35.6284C24.6785 34.9613 25.2192 34.4212 25.8863 34.4212C26.5529 34.4212 27.0935 34.9613 27.0935 35.6284Z"
		fill="#F4F4F4" />
	<path
		d="M29.3227 35.2802C29.3227 35.7549 28.938 36.1396 28.4633 36.1396C27.989 36.1396 27.6043 35.7549 27.6043 35.2802C27.6043 34.8054 27.989 34.4207 28.4633 34.4207C28.938 34.4207 29.3227 34.8054 29.3227 35.2802Z"
		fill="#F4F4F4" />
	<path
		d="M18.3974 8.58127C18.3974 9.25482 17.8514 9.8003 17.1784 9.8003C16.5048 9.8003 15.9588 9.25482 15.9588 8.58127C15.9588 7.90773 16.5048 7.36224 17.1784 7.36224C17.8514 7.36224 18.3974 7.90773 18.3974 8.58127Z"
		fill="white" />
	<path
		d="M6.90402 35.6284C6.90402 36.2956 7.44468 36.8357 8.11126 36.8357C8.77838 36.8357 9.31904 36.2956 9.31904 35.6284C9.31904 34.9613 8.77838 34.4212 8.11126 34.4212C7.44468 34.4212 6.90402 34.9613 6.90402 35.6284Z"
		fill="#F4F4F4" />
	<path
		d="M4.6748 35.2802C4.6748 35.7549 5.05954 36.1396 5.53429 36.1396C6.0085 36.1396 6.39323 35.7549 6.39323 35.2802C6.39323 34.8054 6.0085 34.4207 5.53429 34.4207C5.05954 34.4207 4.6748 34.8054 4.6748 35.2802Z"
		fill="#F4F4F4" />
	<path
		d="M8.5863 15.3103C9.05034 21.3138 9.60761 24.6805 10.1933 28.314H23.8041C24.3892 24.6805 24.947 21.3138 25.4111 15.3103H8.5863Z"
		fill="#859291" />
	<path
		d="M24.0214 21.8284C24.0128 21.9934 23.8885 22.1198 23.7443 22.1102L22.9218 22.0545C22.7777 22.0448 22.6668 21.9023 22.6759 21.7373L22.6764 21.7131C22.6855 21.5481 22.8104 21.4216 22.954 21.4313L23.7765 21.487C23.9206 21.4967 24.0315 21.6392 24.0224 21.8042L24.0214 21.8284Z"
		fill="#0A0F0C" />
	<path d="M18.2737 31.9925L23.8159 21.7998" stroke="#0A0F0C" stroke-width="0.25"
		stroke-linecap="round" />
	<path d="M17.4102 31.934L22.9523 21.7413" stroke="#0A0F0C" stroke-width="0.25" />
	<path
		d="M18.5614 30.6893L17.823 31.9652C17.7538 32.0841 17.786 32.2502 17.8953 32.3343L18.1279 32.5149C18.2366 32.5996 18.3808 32.5712 18.4504 32.4522L19.1872 31.1764L18.5614 30.6893Z"
		fill="#0A0F0C" />
	<path
		d="M23.5184 16.5399C23.5184 16.5399 23.5715 18.9104 23.4107 22.0263C23.2505 25.1422 22.9472 27.6419 22.9472 27.6419"
		stroke="#0A0F0C" stroke-width="0.25" stroke-linecap="round" />
	<path d="M23.4314 16.534L22.8596 27.636" stroke="#0A0F0C" stroke-width="0.25"
		stroke-linecap="round" />
	<path
		d="M0.43634 39.3902H33.4557M29.6249 4.99306C29.0848 3.84958 28.0919 2.95152 26.4436 2.20778C25.0172 1.56477 23.1471 1.2856 21.4132 1.15486C20.7798 1.10502 20.1518 1.07555 19.5506 1.0568C19.2339 1.04072 18.9183 1.02894 18.6038 1.0209L18.6022 1H18.5845C18.4382 1 18.2887 1.00054 18.1408 1.00054L18.1237 1C17.755 1 17.3821 1 17.0075 1.00107C16.6335 1 16.26 1 15.8914 1H15.8742C15.7263 1 15.5768 1 15.43 1H15.4129L15.4113 1.0209C15.0973 1.02894 14.7811 1.04072 14.4644 1.0568C13.8627 1.07555 13.2358 1.10502 12.6019 1.15486C10.8679 1.2856 8.99783 1.56477 7.57197 2.20778C5.91623 2.9542 4.92225 3.85708 4.3832 5.00753M7.6069 46.4142H3.68136C3.20071 46.4142 2.81116 46.0247 2.81116 45.5446V41.5719C2.81116 41.0912 3.20071 40.7022 3.68136 40.7022H7.6069C8.08755 40.7022 8.47656 41.0912 8.47656 41.5719V45.5446C8.47656 46.0247 8.08755 46.4142 7.6069 46.4142ZM30.3166 46.4142H26.3911C25.9104 46.4142 25.5209 46.0247 25.5209 45.5446V41.5719C25.5209 41.0912 25.9104 40.7022 26.3911 40.7022H30.3166C30.7973 40.7022 31.1863 41.0912 31.1863 41.5719V45.5446C31.1863 46.0247 30.7973 46.4142 30.3166 46.4142ZM33.0506 10.8519C32.3315 8.625 31.2856 5.97582 30.1614 4.87896L29.4005 5.04025H4.59714L3.83625 4.87896C2.7126 5.97582 1.66558 8.625 0.947021 10.8519C0.606765 11.9065 0.447084 13.0135 0.447084 14.1216V49.055C0.447084 49.7784 1.03383 50.3651 1.75774 50.3651H32.2399C32.9633 50.3651 33.5506 49.7784 33.5506 49.055V14.1216C33.5506 13.0135 33.3909 11.9065 33.0506 10.8519ZM24.8098 33.9065H31.6208C31.8662 33.9065 32.0082 34.1846 31.8614 34.3807C31.4177 34.9717 30.4661 35.9893 28.2075 36.8359C25.9785 37.6718 23.347 37.5984 23.347 37.5984L24.8098 33.9065ZM24.6934 50.3477H9.30414V39.4493H24.6934V50.3477ZM10.6464 37.637L9.30464 39.3436H24.6933L23.3468 37.637H10.6464ZM1.2163 50.3653L3.22623 52.5247H30.7715L32.7814 50.3653H1.2163ZM9.18785 33.9065H2.37683C2.13142 33.9065 1.98942 34.1846 2.13624 34.3807C2.57991 34.9717 3.53156 35.9893 5.79011 36.8359C8.01919 37.6718 10.6507 37.5984 10.6507 37.5984L9.18785 33.9065ZM8.58634 15.3103C9.05037 21.3138 9.60764 24.6805 10.1933 28.314H23.8041C24.3892 24.6805 24.9471 21.3138 25.4111 15.3103H8.58634Z"
		stroke="#0A0F0C" stroke-width="0.25" stroke-miterlimit="10" />
	<path
		d="M15.553 34.726H18.4455C18.6089 34.726 18.7423 34.8578 18.7423 35.0207V36.8666C18.7423 37.0311 18.6089 37.1645 18.4455 37.1645H15.553C15.3885 37.1645 15.2556 37.0311 15.2556 36.8666V35.0207C15.2556 34.8578 15.3885 34.726 15.553 34.726Z"
		fill="#EC1C27" />
	<path
		d="M15.6093 34.9752H18.3887C18.4428 34.9752 18.4878 35.0192 18.4878 35.0743V36.8153C18.4878 36.8699 18.4428 36.9144 18.3887 36.9144H15.6093C15.5547 36.9144 15.5107 36.8699 15.5107 36.8153V35.0743C15.5107 35.0192 15.5547 34.9752 15.6093 34.9752Z"
		fill="#E3E6E3" />
	<path
		d="M15.7323 36.7493H16.2659C16.7203 36.7493 16.962 36.5436 16.962 35.952C16.962 35.3385 16.7305 35.167 16.2659 35.167H15.7323V36.7493Z"
		fill="#EC1C27" />
	<path
		d="M16.1111 35.4092H16.2257C16.4862 35.4092 16.5944 35.6428 16.5944 35.9574C16.5944 36.273 16.4915 36.5066 16.2257 36.5066H16.1111V35.4092Z"
		fill="#E3E6E3" />
	<path
		d="M17.1648 36.7493H17.7269C17.9659 36.7493 18.2933 36.6711 18.2933 36.2917C18.2933 36.0988 18.2011 35.9852 18.0227 35.9418V35.937C18.1722 35.8786 18.2595 35.7677 18.2595 35.5673C18.2595 35.2956 18.0264 35.167 17.7783 35.167H17.1648V36.7493Z"
		fill="#EC1C27" />
	<path
		d="M17.5193 36.0554H17.6297C17.7518 36.0554 17.9147 36.1165 17.9147 36.2901C17.9147 36.4509 17.7545 36.5194 17.6254 36.5194H17.5193V36.0554Z"
		fill="#E3E6E3" />
	<path
		d="M17.5193 35.3963H17.6238C17.7411 35.3963 17.8804 35.4783 17.8804 35.6246C17.8804 35.7585 17.7352 35.8153 17.6195 35.8153H17.5193V35.3963Z"
		fill="#E3E6E3" />
	<defs>
		<linearGradient id="paint0_linear_14_964" x1="0.447083" y1="27.5982" x2="33.5505" y2="27.5982"
			gradientUnits="userSpaceOnUse">
			<stop stop-opacity="0.1" />
			<stop offset="0.333333" stop-opacity="0" />
			<stop offset="0.677083" stop-opacity="0" />
			<stop offset="1" stop-opacity="0.1" />
		</linearGradient>
		<linearGradient id="paint1_linear_14_964" x1="16.9988" y1="50.3651" x2="16.9987" y2="9.97654"
			gradientUnits="userSpaceOnUse">
			<stop offset="0.0755152" stop-opacity="0.2" />
			<stop offset="0.310035" stop-opacity="0.05" />
			<stop offset="0.73489" stop-opacity="0.05" />
			<stop offset="0.952416" stop-opacity="0" />
		</linearGradient>
		<linearGradient id="paint2_linear_14_964" x1="16.9988" y1="50.3651" x2="16.9987" y2="9.97654"
			gradientUnits="userSpaceOnUse">
			<stop offset="0.73489" stop-color="white" stop-opacity="0" />
			<stop offset="0.952416" stop-color="white" />
		</linearGradient>
		<linearGradient id="paint3_linear_14_964" x1="16.9992" y1="14.6251" x2="16.9992" y2="1.00019"
			gradientUnits="userSpaceOnUse">
			<stop stop-color="#231F20" />
			<stop offset="1" stop-color="#404040" />
		</linearGradient>
		<linearGradient id="paint4_linear_14_964" x1="16.9992" y1="14.6251" x2="16.9992" y2="1.00019"
			gradientUnits="userSpaceOnUse">
			<stop stop-color="#231F20" />
			<stop offset="1" stop-color="#404040" />
		</linearGradient>
	</defs>
</svg>
