<svg width="601" height="57" viewBox="0 0 601 57" fill="none" xmlns="http://www.w3.org/2000/svg">
	<path d="M69.5479 52.506H4.62964V42.87H69.5479V52.506Z" fill="#231F20" />
	<path d="M46.4423 53.4344V52.1806H40.3548H29.9233H24.7478V53.4344H46.4423Z" fill="#393536"
		stroke="#231F20" stroke-width="0.25" />
	<path
		d="M26.2946 44.745L31.9998 50.0091C32.0675 50.0939 32.1501 50.1401 32.2355 50.1401H32.7245H33.4942H38.0529H38.8227H39.3111C39.3965 50.1401 39.4797 50.0939 39.5473 50.0091L45.2526 44.745H49.0615L49.0674 46.1396C46.3422 46.1396 45.8071 46.3913 45.8071 46.3913C45.7287 46.3913 45.6536 46.4461 45.6015 46.5421L40.3084 53.482C40.1989 53.6843 40.0422 53.7997 39.878 53.7997H39.1737H38.0529H33.4942H32.3734H31.6692C31.5044 53.7997 31.3482 53.6843 31.2382 53.482L25.9457 46.5421C25.8936 46.4461 25.8184 46.3913 25.7401 46.3913C25.7401 46.3913 24.0944 46.1396 21.3692 46.1396L21.3531 44.745H26.2946Z"
		fill="#393536" stroke="#231F20" stroke-width="0.25" />
	<path
		d="M26.5282 50.309C26.5282 47.214 24.0194 44.7046 20.9238 44.7046C17.8294 44.7046 15.32 47.214 15.32 50.309C15.32 53.4039 17.8294 55.9133 20.9238 55.9133C24.0194 55.9133 26.5282 53.4039 26.5282 50.309Z"
		fill="#393536" stroke="#231F20" stroke-width="0.25" />
	<path
		d="M20.9243 54.9296C23.4723 54.9296 25.5448 52.8566 25.5448 50.3086C25.5448 47.7606 23.4723 45.6887 20.9243 45.6887C18.3763 45.6887 16.3033 47.7606 16.3033 50.3086C16.3033 52.8566 18.3763 54.9296 20.9243 54.9296Z"
		fill="#231F20" />
	<path
		d="M20.9243 53.0853C22.4551 53.0853 23.7004 51.8395 23.7004 50.3086C23.7004 48.7778 22.4551 47.533 20.9243 47.533C19.3934 47.533 18.1476 48.7778 18.1476 50.3086C18.1476 51.8395 19.3934 53.0853 20.9243 53.0853Z"
		fill="#393536" />
	<path
		d="M20.9243 53.0853C22.4551 53.0853 23.7004 51.8395 23.7004 50.3086C23.7004 48.7778 22.4551 47.533 20.9243 47.533C19.3934 47.533 18.1476 48.7778 18.1476 50.3086C18.1476 51.8395 19.3934 53.0853 20.9243 53.0853Z"
		stroke="#231F20" stroke-width="0.25" stroke-linecap="round" />
	<path
		d="M20.9242 52.2246C21.9806 52.2246 22.84 51.3652 22.84 50.3089C22.84 49.2525 21.9806 48.3932 20.9242 48.3932C19.8679 48.3932 19.0085 49.2525 19.0085 50.3089C19.0085 51.3652 19.8679 52.2246 20.9242 52.2246Z"
		fill="#231F20" />
	<path
		d="M20.9242 52.2246C21.9806 52.2246 22.84 51.3652 22.84 50.3089C22.84 49.2525 21.9806 48.3932 20.9242 48.3932C19.8679 48.3932 19.0085 49.2525 19.0085 50.3089C19.0085 51.3652 19.8679 52.2246 20.9242 52.2246Z"
		stroke="#231F20" stroke-width="0.25" stroke-linecap="round" />
	<path
		d="M20.9243 51.8557C21.7772 51.8557 22.4707 51.1622 22.4707 50.3088C22.4707 49.4558 21.7772 48.7623 20.9243 48.7623C20.0708 48.7623 19.3773 49.4558 19.3773 50.3088C19.3773 51.1622 20.0708 51.8557 20.9243 51.8557Z"
		fill="#393536" />
	<path
		d="M20.9243 51.8557C21.7772 51.8557 22.4707 51.1622 22.4707 50.3088C22.4707 49.4558 21.7772 48.7623 20.9243 48.7623C20.0708 48.7623 19.3773 49.4558 19.3773 50.3088C19.3773 51.1622 20.0708 51.8557 20.9243 51.8557Z"
		stroke="#231F20" stroke-width="0.25" stroke-linecap="round" />
	<path
		d="M44.71 50.309C44.71 47.214 47.2188 44.7046 50.3144 44.7046C53.4088 44.7046 55.9182 47.214 55.9182 50.309C55.9182 53.4039 53.4088 55.9133 50.3144 55.9133C47.2188 55.9133 44.71 53.4039 44.71 50.309Z"
		fill="#393536" stroke="#231F20" stroke-width="0.25" />
	<path
		d="M50.314 54.9296C47.766 54.9296 45.6936 52.8566 45.6936 50.3086C45.6936 47.7606 47.766 45.6887 50.314 45.6887C52.8621 45.6887 54.9351 47.7606 54.9351 50.3086C54.9351 52.8566 52.8621 54.9296 50.314 54.9296Z"
		fill="#231F20" />
	<path
		d="M50.314 53.0853C48.7832 53.0853 47.5379 51.8395 47.5379 50.3086C47.5379 48.7778 48.7832 47.533 50.314 47.533C51.8449 47.533 53.0907 48.7778 53.0907 50.3086C53.0907 51.8395 51.8449 53.0853 50.314 53.0853Z"
		fill="#393536" />
	<path
		d="M50.314 53.0853C48.7832 53.0853 47.5379 51.8395 47.5379 50.3086C47.5379 48.7778 48.7832 47.533 50.314 47.533C51.8449 47.533 53.0907 48.7778 53.0907 50.3086C53.0907 51.8395 51.8449 53.0853 50.314 53.0853Z"
		stroke="#231F20" stroke-width="0.25" stroke-linecap="round" />
	<path
		d="M50.314 52.2246C49.2577 52.2246 48.3983 51.3652 48.3983 50.3089C48.3983 49.2525 49.2577 48.3932 50.314 48.3932C51.3704 48.3932 52.2297 49.2525 52.2297 50.3089C52.2297 51.3652 51.3704 52.2246 50.314 52.2246Z"
		fill="#231F20" />
	<path
		d="M50.314 52.2246C49.2577 52.2246 48.3983 51.3652 48.3983 50.3089C48.3983 49.2525 49.2577 48.3932 50.314 48.3932C51.3704 48.3932 52.2297 49.2525 52.2297 50.3089C52.2297 51.3652 51.3704 52.2246 50.314 52.2246Z"
		stroke="#231F20" stroke-width="0.25" stroke-linecap="round" />
	<path
		d="M50.314 51.8557C49.4611 51.8557 48.7676 51.1622 48.7676 50.3088C48.7676 49.4558 49.4611 48.7623 50.314 48.7623C51.1675 48.7623 51.861 49.4558 51.861 50.3088C51.861 51.1622 51.1675 51.8557 50.314 51.8557Z"
		fill="#393536" />
	<path
		d="M50.314 51.8557C49.4611 51.8557 48.7676 51.1622 48.7676 50.3088C48.7676 49.4558 49.4611 48.7623 50.314 48.7623C51.1675 48.7623 51.861 49.4558 51.861 50.3088C51.861 51.1622 51.1675 51.8557 50.314 51.8557Z"
		stroke="#231F20" stroke-width="0.25" stroke-linecap="round" />
	<path
		d="M36.2503 47.1802H37.5998L37.6228 50.0836L38.6926 50.1072L38.9089 51.4201H37.1113L36.2503 49.7116V47.1802Z"
		fill="#393536" stroke="#231F20" stroke-width="0.25" />
	<path d="M37.0789 47.5239L37.0638 48.4503L27.6924 48.4272L27.7075 47.5009L37.0789 47.5239Z"
		fill="#393536" stroke="#231F20" stroke-width="0.25" />
	<path d="M37.0789 48.8486L37.0638 49.7747L27.6924 49.7516L27.7075 48.8256L37.0789 48.8486Z"
		fill="#393536" stroke="#231F20" stroke-width="0.25" />
	<path d="M291.341 52.5121H231.095V42.8761H291.341V52.5121Z" fill="#231F20" />
	<path d="M270.63 53.4404V52.1865H264.543H254.111H248.936V53.4404H270.63Z" fill="#393536"
		stroke="#231F20" stroke-width="0.25" />
	<path
		d="M250.483 44.751L256.188 50.0151C256.255 50.0999 256.338 50.1461 256.423 50.1461H256.912H257.682H262.241H263.011H263.499C263.584 50.1461 263.668 50.0999 263.735 50.0151L269.441 44.751H273.249L273.255 46.1455C270.53 46.1455 269.995 46.3973 269.995 46.3973C269.917 46.3973 269.842 46.452 269.789 46.5481L264.496 53.488C264.387 53.6903 264.23 53.8057 264.066 53.8057H263.362H262.241H257.682H256.561H255.857C255.692 53.8057 255.536 53.6903 255.426 53.488L250.134 46.5481C250.082 46.452 250.006 46.3973 249.928 46.3973C249.928 46.3973 248.282 46.1455 245.557 46.1455L245.541 44.751H250.483Z"
		fill="#393536" stroke="#231F20" stroke-width="0.25" />
	<path
		d="M250.716 50.3149C250.716 47.2199 248.207 44.7106 245.112 44.7106C242.017 44.7106 239.508 47.2199 239.508 50.3149C239.508 53.4099 242.017 55.9193 245.112 55.9193C248.207 55.9193 250.716 53.4099 250.716 50.3149Z"
		fill="#393536" stroke="#231F20" stroke-width="0.25" />
	<path
		d="M245.112 54.9356C247.66 54.9356 249.733 52.8626 249.733 50.3146C249.733 47.7666 247.66 45.6946 245.112 45.6946C242.564 45.6946 240.491 47.7666 240.491 50.3146C240.491 52.8626 242.564 54.9356 245.112 54.9356Z"
		fill="#231F20" />
	<path
		d="M245.112 53.0913C246.643 53.0913 247.888 51.8455 247.888 50.3146C247.888 48.7838 246.643 47.539 245.112 47.539C243.581 47.539 242.336 48.7838 242.336 50.3146C242.336 51.8455 243.581 53.0913 245.112 53.0913Z"
		fill="#393536" />
	<path
		d="M245.112 53.0913C246.643 53.0913 247.888 51.8455 247.888 50.3146C247.888 48.7838 246.643 47.539 245.112 47.539C243.581 47.539 242.336 48.7838 242.336 50.3146C242.336 51.8455 243.581 53.0913 245.112 53.0913Z"
		stroke="#231F20" stroke-width="0.25" stroke-linecap="round" />
	<path
		d="M245.112 52.2306C246.169 52.2306 247.028 51.3712 247.028 50.3149C247.028 49.2585 246.169 48.3992 245.112 48.3992C244.056 48.3992 243.197 49.2585 243.197 50.3149C243.197 51.3712 244.056 52.2306 245.112 52.2306Z"
		fill="#231F20" />
	<path
		d="M245.112 52.2306C246.169 52.2306 247.028 51.3712 247.028 50.3149C247.028 49.2585 246.169 48.3992 245.112 48.3992C244.056 48.3992 243.197 49.2585 243.197 50.3149C243.197 51.3712 244.056 52.2306 245.112 52.2306Z"
		stroke="#231F20" stroke-width="0.25" stroke-linecap="round" />
	<path
		d="M245.112 51.8617C245.965 51.8617 246.659 51.1682 246.659 50.3147C246.659 49.4618 245.965 48.7683 245.112 48.7683C244.259 48.7683 243.565 49.4618 243.565 50.3147C243.565 51.1682 244.259 51.8617 245.112 51.8617Z"
		fill="#393536" />
	<path
		d="M245.112 51.8617C245.965 51.8617 246.659 51.1682 246.659 50.3147C246.659 49.4618 245.965 48.7683 245.112 48.7683C244.259 48.7683 243.565 49.4618 243.565 50.3147C243.565 51.1682 244.259 51.8617 245.112 51.8617Z"
		stroke="#231F20" stroke-width="0.25" stroke-linecap="round" />
	<path
		d="M268.898 50.3149C268.898 47.2199 271.407 44.7106 274.502 44.7106C277.597 44.7106 280.106 47.2199 280.106 50.3149C280.106 53.4099 277.597 55.9193 274.502 55.9193C271.407 55.9193 268.898 53.4099 268.898 50.3149Z"
		fill="#393536" stroke="#231F20" stroke-width="0.25" />
	<path
		d="M274.502 54.9356C271.954 54.9356 269.882 52.8626 269.882 50.3146C269.882 47.7666 271.954 45.6946 274.502 45.6946C277.05 45.6946 279.123 47.7666 279.123 50.3146C279.123 52.8626 277.05 54.9356 274.502 54.9356Z"
		fill="#231F20" />
	<path
		d="M274.502 53.0913C272.971 53.0913 271.726 51.8455 271.726 50.3146C271.726 48.7838 272.971 47.539 274.502 47.539C276.033 47.539 277.279 48.7838 277.279 50.3146C277.279 51.8455 276.033 53.0913 274.502 53.0913Z"
		fill="#393536" />
	<path
		d="M274.502 53.0913C272.971 53.0913 271.726 51.8455 271.726 50.3146C271.726 48.7838 272.971 47.539 274.502 47.539C276.033 47.539 277.279 48.7838 277.279 50.3146C277.279 51.8455 276.033 53.0913 274.502 53.0913Z"
		stroke="#231F20" stroke-width="0.25" stroke-linecap="round" />
	<path
		d="M274.502 52.2306C273.446 52.2306 272.586 51.3712 272.586 50.3149C272.586 49.2585 273.446 48.3992 274.502 48.3992C275.558 48.3992 276.418 49.2585 276.418 50.3149C276.418 51.3712 275.558 52.2306 274.502 52.2306Z"
		fill="#231F20" />
	<path
		d="M274.502 52.2306C273.446 52.2306 272.586 51.3712 272.586 50.3149C272.586 49.2585 273.446 48.3992 274.502 48.3992C275.558 48.3992 276.418 49.2585 276.418 50.3149C276.418 51.3712 275.558 52.2306 274.502 52.2306Z"
		stroke="#231F20" stroke-width="0.25" stroke-linecap="round" />
	<path
		d="M274.502 51.8617C273.649 51.8617 272.956 51.1682 272.956 50.3147C272.956 49.4618 273.649 48.7683 274.502 48.7683C275.355 48.7683 276.049 49.4618 276.049 50.3147C276.049 51.1682 275.355 51.8617 274.502 51.8617Z"
		fill="#393536" />
	<path
		d="M274.502 51.8617C273.649 51.8617 272.956 51.1682 272.956 50.3147C272.956 49.4618 273.649 48.7683 274.502 48.7683C275.355 48.7683 276.049 49.4618 276.049 50.3147C276.049 51.1682 275.355 51.8617 274.502 51.8617Z"
		stroke="#231F20" stroke-width="0.25" stroke-linecap="round" />
	<path
		d="M260.438 47.1862H261.788L261.811 50.0895L262.881 50.1132L263.097 51.4261H261.299L260.438 49.7176V47.1862Z"
		fill="#393536" stroke="#231F20" stroke-width="0.25" />
	<path d="M261.267 47.5299L261.252 48.4562L251.88 48.4332L251.895 47.5068L261.267 47.5299Z"
		fill="#393536" stroke="#231F20" stroke-width="0.25" />
	<path d="M261.267 48.8546L261.252 49.7806L251.88 49.7576L251.895 48.8315L261.267 48.8546Z"
		fill="#393536" stroke="#231F20" stroke-width="0.25" />
	<path d="M4.83765 47.5389H0.0867567V13.8724H4.83765V47.5389Z" fill="#393536" />
	<path
		d="M0.984192 47.9938C0.984192 48.121 0.864493 48.2246 0.718493 48.2246C0.572492 48.2246 0.452794 48.121 0.452794 47.9938V13.3697C0.452794 13.243 0.572492 13.1389 0.718493 13.1389C0.864493 13.1389 0.984192 13.243 0.984192 13.3697V47.9938Z"
		fill="#595757" />
	<path
		d="M2.03027 47.9938C2.03027 48.121 1.91057 48.2246 1.76457 48.2246C1.61857 48.2246 1.49888 48.121 1.49888 47.9938V13.3697C1.49888 13.243 1.61857 13.1389 1.76457 13.1389C1.91057 13.1389 2.03027 13.243 2.03027 13.3697V47.9938Z"
		fill="#595757" />
	<path
		d="M3.07654 47.9938C3.07654 48.121 2.95684 48.2246 2.81084 48.2246C2.66377 48.2246 2.54514 48.121 2.54514 47.9938V13.3697C2.54514 13.243 2.66377 13.1389 2.81084 13.1389C2.95684 13.1389 3.07654 13.243 3.07654 13.3697V47.9938Z"
		fill="#595757" />
	<path
		d="M4.12268 47.9938C4.12268 48.121 4.00298 48.2246 3.85698 48.2246C3.71098 48.2246 3.59128 48.121 3.59128 47.9938V13.3697C3.59128 13.243 3.71098 13.1389 3.85698 13.1389C4.00298 13.1389 4.12268 13.243 4.12268 13.3697V47.9938Z"
		fill="#595757" />
	<path d="M296.092 47.5389H291.341V13.8724H296.092V47.5389Z" fill="#393536" />
	<path
		d="M292.484 47.9938C292.484 48.121 292.364 48.2246 292.218 48.2246C292.072 48.2246 291.952 48.121 291.952 47.9938V13.3697C291.952 13.243 292.072 13.1389 292.218 13.1389C292.364 13.1389 292.484 13.243 292.484 13.3697V47.9938Z"
		fill="#595757" />
	<path
		d="M293.53 47.9938C293.53 48.121 293.41 48.2246 293.264 48.2246C293.118 48.2246 292.998 48.121 292.998 47.9938V13.3697C292.998 13.243 293.118 13.1389 293.264 13.1389C293.41 13.1389 293.53 13.243 293.53 13.3697V47.9938Z"
		fill="#595757" />
	<path
		d="M294.576 47.9938C294.576 48.121 294.456 48.2246 294.31 48.2246C294.163 48.2246 294.045 48.121 294.045 47.9938V13.3697C294.045 13.243 294.163 13.1389 294.31 13.1389C294.456 13.1389 294.576 13.243 294.576 13.3697V47.9938Z"
		fill="#595757" />
	<path
		d="M295.622 47.9938C295.622 48.121 295.502 48.2246 295.356 48.2246C295.21 48.2246 295.091 48.121 295.091 47.9938V13.3697C295.091 13.243 295.21 13.1389 295.356 13.1389C295.502 13.1389 295.622 13.243 295.622 13.3697V47.9938Z"
		fill="#595757" />
	<path
		d="M291.255 1.22951H202.003H93.8867H4.63486V46.2389H17.2553C17.2553 46.2389 17.1313 46.4123 18.6509 45.6807C20.5355 44.7741 18.6144 44.5648 35.6412 44.5648C52.6685 44.5648 53.5058 45.2626 56.7854 47.9142C58.5986 49.3806 62.2283 52.5894 62.2283 52.5894H93.8867H202.003H233.662C233.662 52.5894 237.291 49.3806 239.104 47.9142C242.384 45.2626 243.221 44.5648 260.249 44.5648C277.275 44.5648 275.354 44.7741 277.239 45.6807C278.758 46.4123 278.635 46.2389 278.635 46.2389H291.255V1.22951Z"
		fill="url(#paint0_linear_13_2234)" />
	<path d="M4.75116 30.6636H291.232V27.392H4.75116V30.6636Z" fill="#ED1C24" />
	<path d="M278.635 46.2393H291.18V45.739H277.36C278.747 46.4003 278.635 46.2393 278.635 46.2393Z"
		fill="url(#paint1_linear_13_2234)" />
	<path d="M18.5296 45.739H4.62961V46.2393H17.231C17.231 46.2393 17.1172 46.4003 18.5296 45.739Z"
		fill="url(#paint2_linear_13_2234)" />
	<path
		d="M239.104 47.9142C240.295 46.9512 241.168 46.247 242.607 45.7386H53.2829C54.7225 46.247 55.5942 46.9512 56.7853 47.9142C58.4498 49.2604 61.636 52.0666 62.1502 52.5201H233.74C234.253 52.0666 237.44 49.2604 239.104 47.9142Z"
		fill="url(#paint3_linear_13_2234)" />
	<path d="M291.255 7.3293V1.22949H4.63486V7.3293H291.255Z" fill="url(#paint4_linear_13_2234)" />
	<path
		d="M21.893 30.6241H12.8882C11.9129 30.6241 11.1223 29.834 11.1223 28.8587V23.1781C11.1223 22.2034 11.9129 21.4127 12.8882 21.4127H21.893C22.8678 21.4127 23.6584 22.2034 23.6584 23.1781V28.8587C23.6584 29.834 22.8678 30.6241 21.893 30.6241Z"
		fill="#393536" stroke="#231F20" stroke-width="0.25" />
	<path
		d="M11.4795 28.8587V23.1787C11.4795 22.4004 12.1102 21.7702 12.888 21.7702H21.8928C22.6711 21.7702 23.3013 22.4004 23.3013 23.1787V28.8587C23.3013 29.6365 22.6711 30.2672 21.8928 30.2672H12.888C12.1102 30.2672 11.4795 29.6365 11.4795 28.8587Z"
		fill="#859291" />
	<path
		d="M40.0859 30.6241H31.0811C30.1058 30.6241 29.3152 29.834 29.3152 28.8587V23.1781C29.3152 22.2034 30.1058 21.4127 31.0811 21.4127H40.0859C41.0607 21.4127 41.8513 22.2034 41.8513 23.1781V28.8587C41.8513 29.834 41.0607 30.6241 40.0859 30.6241Z"
		fill="#393536" stroke="#231F20" stroke-width="0.25" />
	<path
		d="M29.6724 28.8587V23.1787C29.6724 22.4004 30.3031 21.7702 31.0809 21.7702H40.0857C40.864 21.7702 41.4941 22.4004 41.4941 23.1787V28.8587C41.4941 29.6365 40.864 30.2672 40.0857 30.2672H31.0809C30.3031 30.2672 29.6724 29.6365 29.6724 28.8587Z"
		fill="#859291" />
	<path
		d="M256.126 30.7294H250.833C250.145 30.7294 249.586 30.1712 249.586 29.4825V22.6538C249.586 21.9651 250.145 21.4069 250.833 21.4069H256.126C256.815 21.4069 257.373 21.9651 257.373 22.6538V29.4825C257.373 30.1712 256.815 30.7294 256.126 30.7294Z"
		fill="#393536" stroke="#231F20" stroke-width="0.25" />
	<path
		d="M250.062 29.4826V22.6539C250.062 22.2277 250.408 21.8826 250.833 21.8826H256.126C256.552 21.8826 256.897 22.2277 256.897 22.6539V29.4826C256.897 29.9083 256.552 30.2534 256.127 30.2534H250.833C250.407 30.2534 250.062 29.9083 250.062 29.4826Z"
		fill="#859291" />
	<path
		d="M199.474 41.7193H96.6547C95.4663 41.7193 94.5028 40.7558 94.5028 39.5669V34.2411C94.5028 33.0527 95.4663 32.0892 96.6547 32.0892H199.474C200.663 32.0892 201.627 33.0527 201.627 34.2411V39.5669C201.627 40.7558 200.663 41.7193 199.474 41.7193Z"
		fill="#231F20" stroke="#0A0F0C" stroke-width="0.25" stroke-miterlimit="10" />
	<path
		d="M110.383 41.3652H96.8437C95.8689 41.3652 95.0783 40.5751 95.0783 39.5998V34.2681C95.0783 33.2933 95.8689 32.5032 96.8437 32.5032H110.383C111.357 32.5032 112.148 33.2933 112.148 34.2681V39.5998C112.148 40.5751 111.357 41.3652 110.383 41.3652Z"
		fill="#393536" />
	<path
		d="M95.4351 39.5996V34.2685C95.4351 33.4902 96.0658 32.86 96.8436 32.86H110.382C111.161 32.86 111.791 33.4902 111.791 34.2685V39.5996C111.791 40.3774 111.161 41.0081 110.382 41.0081H96.8436C96.0658 41.0081 95.4351 40.3774 95.4351 39.5996Z"
		fill="#859291" />
	<path
		d="M132.629 41.3652H119.09C118.115 41.3652 117.325 40.5751 117.325 39.5998V34.2681C117.325 33.2933 118.115 32.5032 119.09 32.5032H132.629C133.604 32.5032 134.394 33.2933 134.394 34.2681V39.5998C134.394 40.5751 133.604 41.3652 132.629 41.3652Z"
		fill="#393536" />
	<path
		d="M117.682 39.5996V34.2685C117.682 33.4902 118.312 32.86 119.09 32.86H132.629C133.407 32.86 134.037 33.4902 134.037 34.2685V39.5996C134.037 40.3774 133.407 41.0081 132.629 41.0081H119.09C118.312 41.0081 117.682 40.3774 117.682 39.5996Z"
		fill="#859291" />
	<path
		d="M154.876 41.3652H141.337C140.362 41.3652 139.571 40.5751 139.571 39.5998V34.2681C139.571 33.2933 140.362 32.5032 141.337 32.5032H154.876C155.85 32.5032 156.641 33.2933 156.641 34.2681V39.5998C156.641 40.5751 155.85 41.3652 154.876 41.3652Z"
		fill="#393536" />
	<path
		d="M139.928 39.5996V34.2685C139.928 33.4902 140.559 32.86 141.337 32.86H154.876C155.654 32.86 156.284 33.4902 156.284 34.2685V39.5996C156.284 40.3774 155.654 41.0081 154.876 41.0081H141.337C140.559 41.0081 139.928 40.3774 139.928 39.5996Z"
		fill="#859291" />
	<path
		d="M177.122 41.3652H163.583C162.609 41.3652 161.818 40.5751 161.818 39.5998V34.2681C161.818 33.2933 162.609 32.5032 163.583 32.5032H177.122C178.097 32.5032 178.888 33.2933 178.888 34.2681V39.5998C178.888 40.5751 178.097 41.3652 177.122 41.3652Z"
		fill="#393536" />
	<path
		d="M162.175 39.5996V34.2685C162.175 33.4902 162.805 32.86 163.583 32.86H177.122C177.9 32.86 178.531 33.4902 178.531 34.2685V39.5996C178.531 40.3774 177.9 41.0081 177.122 41.0081H163.583C162.805 41.0081 162.175 40.3774 162.175 39.5996Z"
		fill="#859291" />
	<path
		d="M199.369 41.3652H185.83C184.855 41.3652 184.064 40.5751 184.064 39.5998V34.2681C184.064 33.2933 184.855 32.5032 185.83 32.5032H199.369C200.343 32.5032 201.134 33.2933 201.134 34.2681V39.5998C201.134 40.5751 200.343 41.3652 199.369 41.3652Z"
		fill="#393536" />
	<path
		d="M184.421 39.5996V34.2685C184.421 33.4902 185.052 32.86 185.83 32.86H199.369C200.147 32.86 200.777 33.4902 200.777 34.2685V39.5996C200.777 40.3774 200.147 41.0081 199.369 41.0081H185.83C185.052 41.0081 184.421 40.3774 184.421 39.5996Z"
		fill="#859291" />
	<path
		d="M218.734 17.4063H77.325C76.1366 17.4063 75.1726 16.4428 75.1726 15.2539V9.92809C75.1726 8.73969 76.1366 7.77673 77.325 7.77673H218.734C219.923 7.77673 220.887 8.73969 220.887 9.92809V15.2539C220.887 16.4428 219.923 17.4063 218.734 17.4063Z"
		fill="#231F20" stroke="#0A0F0C" stroke-width="0.25" stroke-miterlimit="10" />
	<path
		d="M110.383 17.0809H96.8437C95.8689 17.0809 95.0783 16.2908 95.0783 15.3154V9.98375C95.0783 9.00899 95.8689 8.21887 96.8437 8.21887H110.383C111.357 8.21887 112.148 9.00899 112.148 9.98375V15.3154C112.148 16.2908 111.357 17.0809 110.383 17.0809Z"
		fill="#393536" />
	<path
		d="M95.4351 15.3153V9.98412C95.4351 9.20581 96.0658 8.57565 96.8436 8.57565H110.382C111.161 8.57565 111.791 9.20581 111.791 9.98412V15.3153C111.791 16.0931 111.161 16.7238 110.382 16.7238H96.8436C96.0658 16.7238 95.4351 16.0931 95.4351 15.3153Z"
		fill="#859291" />
	<path
		d="M132.629 17.0809H119.09C118.115 17.0809 117.325 16.2908 117.325 15.3154V9.98375C117.325 9.00899 118.115 8.21887 119.09 8.21887H132.629C133.604 8.21887 134.394 9.00899 134.394 9.98375V15.3154C134.394 16.2908 133.604 17.0809 132.629 17.0809Z"
		fill="#393536" />
	<path
		d="M117.682 15.3153V9.98412C117.682 9.20581 118.312 8.57565 119.09 8.57565H132.629C133.407 8.57565 134.037 9.20581 134.037 9.98412V15.3153C134.037 16.0931 133.407 16.7238 132.629 16.7238H119.09C118.312 16.7238 117.682 16.0931 117.682 15.3153Z"
		fill="#859291" />
	<path
		d="M154.876 17.0809H141.337C140.362 17.0809 139.571 16.2908 139.571 15.3154V9.98375C139.571 9.00899 140.362 8.21887 141.337 8.21887H154.876C155.85 8.21887 156.641 9.00899 156.641 9.98375V15.3154C156.641 16.2908 155.85 17.0809 154.876 17.0809Z"
		fill="#393536" />
	<path
		d="M139.928 15.3153V9.98412C139.928 9.20581 140.559 8.57565 141.337 8.57565H154.876C155.654 8.57565 156.284 9.20581 156.284 9.98412V15.3153C156.284 16.0931 155.654 16.7238 154.876 16.7238H141.337C140.559 16.7238 139.928 16.0931 139.928 15.3153Z"
		fill="#859291" />
	<path
		d="M177.122 17.0809H163.583C162.609 17.0809 161.818 16.2908 161.818 15.3154V9.98375C161.818 9.00899 162.609 8.21887 163.583 8.21887H177.122C178.097 8.21887 178.888 9.00899 178.888 9.98375V15.3154C178.888 16.2908 178.097 17.0809 177.122 17.0809Z"
		fill="#393536" />
	<path
		d="M162.175 15.3153V9.98412C162.175 9.20581 162.805 8.57565 163.583 8.57565H177.122C177.9 8.57565 178.531 9.20581 178.531 9.98412V15.3153C178.531 16.0931 177.9 16.7238 177.122 16.7238H163.583C162.805 16.7238 162.175 16.0931 162.175 15.3153Z"
		fill="#859291" />
	<path
		d="M199.369 17.0809H185.83C184.855 17.0809 184.064 16.2908 184.064 15.3154V9.98375C184.064 9.00899 184.855 8.21887 185.83 8.21887H199.369C200.343 8.21887 201.134 9.00899 201.134 9.98375V15.3154C201.134 16.2908 200.343 17.0809 199.369 17.0809Z"
		fill="#393536" />
	<path
		d="M184.421 15.3153V9.98412C184.421 9.20581 185.052 8.57565 185.83 8.57565H199.369C200.147 8.57565 200.777 9.20581 200.777 9.98412V15.3153C200.777 16.0931 200.147 16.7238 199.369 16.7238H185.83C185.052 16.7238 184.421 16.0931 184.421 15.3153Z"
		fill="#859291" />
	<path
		d="M77.5352 17.0236H82.0988C83.0741 17.0236 83.8647 16.2334 83.8647 15.2581V9.92644C83.8647 8.95167 83.0741 8.16155 82.0988 8.16155H77.5352C76.5604 8.16155 75.7698 8.95167 75.7698 9.92644V15.2581C75.7698 16.2334 76.5604 17.0236 77.5352 17.0236Z"
		fill="#393536" />
	<path
		d="M83.3887 15.2581V9.9269C83.3887 9.21462 82.8111 8.63706 82.0988 8.63706H77.5352C76.823 8.63706 76.2454 9.21462 76.2454 9.9269V15.2581C76.2454 15.9704 76.823 16.5479 77.5352 16.5479H82.0988C82.8111 16.5479 83.3887 15.9704 83.3887 15.2581Z"
		fill="#859291" />
	<path
		d="M218.524 17.0236H213.961C212.985 17.0236 212.195 16.2334 212.195 15.2581V9.92644C212.195 8.95167 212.985 8.16155 213.961 8.16155H218.524C219.499 8.16155 220.29 8.95167 220.29 9.92644V15.2581C220.29 16.2334 219.499 17.0236 218.524 17.0236Z"
		fill="#393536" />
	<path
		d="M212.671 15.2581V9.9269C212.671 9.21462 213.248 8.63706 213.961 8.63706H218.524C219.237 8.63706 219.814 9.21462 219.814 9.9269V15.2581C219.814 15.9704 219.237 16.5479 218.524 16.5479H213.961C213.248 16.5479 212.671 15.9704 212.671 15.2581Z"
		fill="#859291" />
	<path
		d="M142.296 29.6594V28.4296C142.296 28.3352 142.373 28.259 142.467 28.259H153.745C153.84 28.259 153.916 28.3352 153.916 28.4291V29.6594C153.916 29.7533 153.84 29.8295 153.745 29.8295H142.467C142.373 29.8295 142.296 29.7533 142.296 29.6594Z"
		fill="#656263" />
	<path
		d="M142.296 29.6595V28.4297C142.296 28.3353 142.373 28.259 142.467 28.259H153.745C153.84 28.259 153.916 28.3353 153.916 28.4292V29.6595C153.916 29.7534 153.84 29.8296 153.745 29.8296H142.467C142.373 29.8296 142.296 29.7534 142.296 29.6595Z"
		stroke="#0A0F0C" stroke-width="0.25" stroke-miterlimit="10" />
	<path
		d="M120.05 29.6594V28.4296C120.05 28.3352 120.126 28.259 120.221 28.259H131.498C131.593 28.259 131.669 28.3352 131.669 28.4291V29.6594C131.669 29.7533 131.593 29.8295 131.498 29.8295H120.22C120.126 29.8295 120.05 29.7533 120.05 29.6594Z"
		fill="#656263" />
	<path
		d="M120.05 29.6595V28.4297C120.05 28.3353 120.126 28.259 120.221 28.259H131.498C131.593 28.259 131.669 28.3353 131.669 28.4292V29.6595C131.669 29.7534 131.593 29.8296 131.498 29.8296H120.22C120.126 29.8296 120.05 29.7534 120.05 29.6595Z"
		stroke="#0A0F0C" stroke-width="0.25" stroke-miterlimit="10" />
	<path
		d="M82.7409 41.4081H86.9696C87.4849 41.4081 87.9025 40.9899 87.9025 40.4746V27.3969C87.9025 26.881 87.4849 26.4634 86.9696 26.4634H82.7409C82.2256 26.4634 81.8075 26.881 81.8075 27.3969V40.4746C81.8075 40.9899 82.2256 41.4081 82.7409 41.4081Z"
		fill="#393536" />
	<path
		d="M86.9693 41.0511C87.2871 41.0511 87.5458 40.7924 87.5458 40.4746V27.3968C87.5458 27.0785 87.2871 26.8203 86.9693 26.8203H82.7406C82.4234 26.8203 82.1647 27.0785 82.1647 27.3968V40.4746C82.1647 40.7924 82.4234 41.0511 82.7406 41.0511H86.9693Z"
		fill="#859291" />
	<path
		d="M72.873 41.4081H77.1016C77.6169 41.4081 78.035 40.9899 78.035 40.4746V27.3969C78.035 26.881 77.6169 26.4634 77.1016 26.4634H72.873C72.3577 26.4634 71.9395 26.881 71.9395 27.3969V40.4746C71.9395 40.9899 72.3577 41.4081 72.873 41.4081Z"
		fill="#393536" />
	<path
		d="M77.1014 41.0511C77.4191 41.0511 77.6779 40.7924 77.6779 40.4746V27.3968C77.6779 27.0785 77.4191 26.8203 77.1014 26.8203H72.8727C72.5555 26.8203 72.2968 27.0785 72.2968 27.3968V40.4746C72.2968 40.7924 72.5555 41.0511 72.8727 41.0511H77.1014Z"
		fill="#859291" />
	<path d="M79.4676 49.2646H80.3748V23.5675H79.4676V49.2646Z" fill="#393536" stroke="#0A0F0C"
		stroke-width="0.25" />
	<path
		d="M88.3859 49.2645V50.6328M88.3859 49.2645H90.4238V51.2067H88.3997L88.3859 50.6328M88.3859 49.2645L71.5665 49.2645M88.3859 50.6328L71.5665 50.6328M71.5665 49.2645H69.5286V51.2067H71.5527L71.5665 50.6328M71.5665 49.2645V50.6328"
		stroke="#0A0F0C" stroke-width="0.25" stroke-miterlimit="10" />
	<path
		d="M71.0825 21.7829H88.7598C90.3143 21.7829 91.58 23.048 91.58 24.603V49.2814H89.7952V24.603C89.7952 24.0314 89.3314 23.5676 88.7598 23.5676H71.0825C70.5103 23.5676 70.0465 24.0314 70.0465 24.603V49.2814H68.2623V24.603C68.2623 23.048 69.5275 21.7829 71.0825 21.7829Z"
		fill="#231F20" />
	<path
		d="M219.001 41.4081H223.23C223.745 41.4081 224.162 40.9899 224.162 40.4746V27.3969C224.162 26.881 223.745 26.4634 223.23 26.4634H219.001C218.486 26.4634 218.067 26.881 218.067 27.3969V40.4746C218.067 40.9899 218.486 41.4081 219.001 41.4081Z"
		fill="#393536" />
	<path
		d="M223.229 41.0511C223.547 41.0511 223.806 40.7924 223.806 40.4746V27.3968C223.806 27.0785 223.547 26.8203 223.229 26.8203H219.001C218.683 26.8203 218.425 27.0785 218.425 27.3968V40.4746C218.425 40.7924 218.683 41.0511 219.001 41.0511H223.229Z"
		fill="#859291" />
	<path
		d="M209.133 41.4081H213.362C213.877 41.4081 214.295 40.9899 214.295 40.4746V27.3969C214.295 26.881 213.877 26.4634 213.362 26.4634H209.133C208.618 26.4634 208.2 26.881 208.2 27.3969V40.4746C208.2 40.9899 208.618 41.4081 209.133 41.4081Z"
		fill="#393536" />
	<path
		d="M213.361 41.0511C213.679 41.0511 213.938 40.7924 213.938 40.4746V27.3968C213.938 27.0785 213.679 26.8203 213.361 26.8203H209.133C208.816 26.8203 208.557 27.0785 208.557 27.3968V40.4746C208.557 40.7924 208.816 41.0511 209.133 41.0511H213.361Z"
		fill="#859291" />
	<path d="M215.728 49.2646H216.635V23.5675H215.728V49.2646Z" fill="#393536" stroke="#0A0F0C"
		stroke-width="0.25" />
	<path
		d="M224.646 49.2645V50.6328M224.646 49.2645H226.684V51.2067H224.66L224.646 50.6328M224.646 49.2645L207.827 49.2645M224.646 50.6328L207.827 50.6328M207.827 49.2645H205.789V51.2067H207.813L207.827 50.6328M207.827 49.2645V50.6328"
		stroke="#0A0F0C" stroke-width="0.25" stroke-miterlimit="10" />
	<path
		d="M207.342 21.7829H225.02C226.574 21.7829 227.84 23.048 227.84 24.603V49.2814H226.055V24.603C226.055 24.0314 225.591 23.5676 225.02 23.5676H207.342C206.77 23.5676 206.307 24.0314 206.307 24.603V49.2814H204.522V24.603C204.522 23.048 205.787 21.7829 207.342 21.7829Z"
		fill="#231F20" />
	<path
		d="M241.125 1.33295L244.66 7.35332H291.258M263.687 1.33297V7.47411M55.4801 1.33295L51.9444 7.35332H4.63791M32.9182 1.33297V7.47411M4.63791 20.9181H291.258M291.258 1.14996V46.1594H278.638C278.638 46.1594 278.761 46.3328 277.242 45.6012C275.357 44.6946 277.278 44.4852 260.252 44.4852C243.224 44.4852 242.387 45.183 239.107 47.8346C237.294 49.3011 233.664 52.5099 233.664 52.5099H62.2313C62.2313 52.5099 58.6017 49.3011 56.7885 47.8346C53.5089 45.183 52.6715 44.4852 35.6442 44.4852C18.6175 44.4852 20.5385 44.6946 18.654 45.6012C17.1344 46.3328 17.2584 46.1594 17.2584 46.1594H4.63791V1.14996H291.258Z"
		stroke="#0A0F0C" stroke-width="0.25" stroke-miterlimit="10" />
	<path d="M51.2588 30.9308H58.9915V27.0543H51.2588V30.9308Z" fill="#E3E6E3" />
	<path
		d="M53.1857 27.357H57.0665C57.2861 27.357 57.4648 27.5336 57.4648 27.7531V30.2298C57.4648 30.4504 57.2861 30.6286 57.0665 30.6286H53.1857C52.9657 30.6286 52.7864 30.4504 52.7864 30.2298V27.7531C52.7864 27.5336 52.9657 27.357 53.1857 27.357Z"
		fill="#EC1C27" />
	<path
		d="M53.2613 27.6914H56.9908C57.0632 27.6914 57.1233 27.7505 57.1233 27.824V30.16C57.1233 30.2336 57.0632 30.2937 56.9908 30.2937H53.2613C53.1878 30.2937 53.1293 30.2336 53.1293 30.16V27.824C53.1293 27.7505 53.1878 27.6914 53.2613 27.6914Z"
		fill="#E3E6E3" />
	<path
		d="M53.4262 30.0719H54.1423C54.7515 30.0719 55.0757 29.796 55.0757 29.0016C55.0757 28.1792 54.766 27.9484 54.1423 27.9484H53.4262V30.0719Z"
		fill="#EC1C27" />
	<path
		d="M53.9346 28.2737H54.0886C54.4375 28.2737 54.583 28.5867 54.583 29.0096C54.583 29.4331 54.445 29.7461 54.0886 29.7461H53.9346V28.2737Z"
		fill="#E3E6E3" />
	<path
		d="M55.3483 30.0719H56.1025C56.4229 30.0719 56.8625 29.9667 56.8625 29.4578C56.8625 29.1991 56.7391 29.0467 56.5002 28.9887V28.9817C56.7004 28.9039 56.8175 28.7547 56.8175 28.4857C56.8175 28.1213 56.5045 27.9484 56.1707 27.9484H55.3483V30.0719Z"
		fill="#EC1C27" />
	<path
		d="M55.824 29.1409H55.9722C56.1359 29.1409 56.3544 29.2231 56.3544 29.4555C56.3544 29.6718 56.1402 29.7636 55.9657 29.7636H55.824V29.1409Z"
		fill="#E3E6E3" />
	<path
		d="M55.824 28.2565H55.9636C56.1209 28.2565 56.3087 28.367 56.3087 28.563C56.3087 28.7422 56.1139 28.8185 55.9582 28.8185H55.824V28.2565Z"
		fill="#E3E6E3" />
	<path d="M367.923 52.506H300.229V42.87H367.923V52.506Z" fill="#231F20" />
	<path d="M344.817 53.4344V52.1806H338.73H328.298H323.123V53.4344H344.817Z" fill="#393536"
		stroke="#231F20" stroke-width="0.25" />
	<path
		d="M324.669 44.745L330.375 50.0091C330.442 50.0939 330.525 50.1401 330.61 50.1401H331.099H331.869H336.428H337.197H337.686C337.771 50.1401 337.854 50.0939 337.922 50.0091L343.627 44.745H347.436L347.442 46.1396C344.717 46.1396 344.182 46.3913 344.182 46.3913C344.103 46.3913 344.028 46.4461 343.976 46.5421L338.683 53.482C338.574 53.6843 338.417 53.7997 338.253 53.7997H337.548H336.428H331.869H330.748H330.044C329.879 53.7997 329.723 53.6843 329.613 53.482L324.32 46.5421C324.268 46.4461 324.193 46.3913 324.115 46.3913C324.115 46.3913 322.469 46.1396 319.744 46.1396L319.728 44.745H324.669Z"
		fill="#393536" stroke="#231F20" stroke-width="0.25" />
	<path
		d="M324.903 50.309C324.903 47.214 322.394 44.7046 319.299 44.7046C316.204 44.7046 313.695 47.214 313.695 50.309C313.695 53.4039 316.204 55.9133 319.299 55.9133C322.394 55.9133 324.903 53.4039 324.903 50.309Z"
		fill="#393536" stroke="#231F20" stroke-width="0.25" />
	<path
		d="M319.299 54.9296C321.847 54.9296 323.92 52.8566 323.92 50.3086C323.92 47.7606 321.847 45.6887 319.299 45.6887C316.751 45.6887 314.678 47.7606 314.678 50.3086C314.678 52.8566 316.751 54.9296 319.299 54.9296Z"
		fill="#231F20" />
	<path
		d="M319.299 53.0853C320.83 53.0853 322.075 51.8395 322.075 50.3086C322.075 48.7778 320.83 47.533 319.299 47.533C317.768 47.533 316.522 48.7778 316.522 50.3086C316.522 51.8395 317.768 53.0853 319.299 53.0853Z"
		fill="#393536" />
	<path
		d="M319.299 53.0853C320.83 53.0853 322.075 51.8395 322.075 50.3086C322.075 48.7778 320.83 47.533 319.299 47.533C317.768 47.533 316.522 48.7778 316.522 50.3086C316.522 51.8395 317.768 53.0853 319.299 53.0853Z"
		stroke="#231F20" stroke-width="0.25" stroke-linecap="round" />
	<path
		d="M319.299 52.2246C320.355 52.2246 321.215 51.3652 321.215 50.3089C321.215 49.2525 320.355 48.3932 319.299 48.3932C318.243 48.3932 317.383 49.2525 317.383 50.3089C317.383 51.3652 318.243 52.2246 319.299 52.2246Z"
		fill="#231F20" />
	<path
		d="M319.299 52.2246C320.355 52.2246 321.215 51.3652 321.215 50.3089C321.215 49.2525 320.355 48.3932 319.299 48.3932C318.243 48.3932 317.383 49.2525 317.383 50.3089C317.383 51.3652 318.243 52.2246 319.299 52.2246Z"
		stroke="#231F20" stroke-width="0.25" stroke-linecap="round" />
	<path
		d="M319.299 51.8557C320.152 51.8557 320.845 51.1622 320.845 50.3088C320.845 49.4558 320.152 48.7623 319.299 48.7623C318.446 48.7623 317.752 49.4558 317.752 50.3088C317.752 51.1622 318.446 51.8557 319.299 51.8557Z"
		fill="#393536" />
	<path
		d="M319.299 51.8557C320.152 51.8557 320.845 51.1622 320.845 50.3088C320.845 49.4558 320.152 48.7623 319.299 48.7623C318.446 48.7623 317.752 49.4558 317.752 50.3088C317.752 51.1622 318.446 51.8557 319.299 51.8557Z"
		stroke="#231F20" stroke-width="0.25" stroke-linecap="round" />
	<path
		d="M343.085 50.309C343.085 47.214 345.594 44.7046 348.689 44.7046C351.784 44.7046 354.293 47.214 354.293 50.309C354.293 53.4039 351.784 55.9133 348.689 55.9133C345.594 55.9133 343.085 53.4039 343.085 50.309Z"
		fill="#393536" stroke="#231F20" stroke-width="0.25" />
	<path
		d="M348.689 54.9296C346.141 54.9296 344.068 52.8566 344.068 50.3086C344.068 47.7606 346.141 45.6887 348.689 45.6887C351.237 45.6887 353.31 47.7606 353.31 50.3086C353.31 52.8566 351.237 54.9296 348.689 54.9296Z"
		fill="#231F20" />
	<path
		d="M348.689 53.0853C347.158 53.0853 345.913 51.8395 345.913 50.3086C345.913 48.7778 347.158 47.533 348.689 47.533C350.22 47.533 351.465 48.7778 351.465 50.3086C351.465 51.8395 350.22 53.0853 348.689 53.0853Z"
		fill="#393536" />
	<path
		d="M348.689 53.0853C347.158 53.0853 345.913 51.8395 345.913 50.3086C345.913 48.7778 347.158 47.533 348.689 47.533C350.22 47.533 351.465 48.7778 351.465 50.3086C351.465 51.8395 350.22 53.0853 348.689 53.0853Z"
		stroke="#231F20" stroke-width="0.25" stroke-linecap="round" />
	<path
		d="M348.689 52.2246C347.632 52.2246 346.773 51.3652 346.773 50.3089C346.773 49.2525 347.632 48.3932 348.689 48.3932C349.745 48.3932 350.604 49.2525 350.604 50.3089C350.604 51.3652 349.745 52.2246 348.689 52.2246Z"
		fill="#231F20" />
	<path
		d="M348.689 52.2246C347.632 52.2246 346.773 51.3652 346.773 50.3089C346.773 49.2525 347.632 48.3932 348.689 48.3932C349.745 48.3932 350.604 49.2525 350.604 50.3089C350.604 51.3652 349.745 52.2246 348.689 52.2246Z"
		stroke="#231F20" stroke-width="0.25" stroke-linecap="round" />
	<path
		d="M348.689 51.8557C347.836 51.8557 347.142 51.1622 347.142 50.3088C347.142 49.4558 347.836 48.7623 348.689 48.7623C349.542 48.7623 350.236 49.4558 350.236 50.3088C350.236 51.1622 349.542 51.8557 348.689 51.8557Z"
		fill="#393536" />
	<path
		d="M348.689 51.8557C347.836 51.8557 347.142 51.1622 347.142 50.3088C347.142 49.4558 347.836 48.7623 348.689 48.7623C349.542 48.7623 350.236 49.4558 350.236 50.3088C350.236 51.1622 349.542 51.8557 348.689 51.8557Z"
		stroke="#231F20" stroke-width="0.25" stroke-linecap="round" />
	<path
		d="M334.625 47.1802H335.975L335.998 50.0836L337.067 50.1072L337.284 51.4201H335.486L334.625 49.7116V47.1802Z"
		fill="#393536" stroke="#231F20" stroke-width="0.25" />
	<path d="M335.454 47.5239L335.439 48.4503L326.067 48.4272L326.082 47.5009L335.454 47.5239Z"
		fill="#393536" stroke="#231F20" stroke-width="0.25" />
	<path d="M335.454 48.8486L335.439 49.7747L326.067 49.7516L326.082 48.8256L335.454 48.8486Z"
		fill="#393536" stroke="#231F20" stroke-width="0.25" />
	<path d="M580.182 52.5121H517.541V42.8761H580.182V52.5121Z" fill="#231F20" />
	<path d="M557.077 53.4405V52.1866H550.989H540.558H535.382V53.4405H557.077Z" fill="#393536"
		stroke="#231F20" stroke-width="0.25" />
	<path
		d="M536.929 44.7511L542.634 50.0151C542.702 50.1 542.785 50.1461 542.87 50.1461H543.359H544.129H548.688H549.457H549.946C550.031 50.1461 550.114 50.1 550.182 50.0151L555.887 44.7511H559.696L559.702 46.1456C556.977 46.1456 556.442 46.3973 556.442 46.3973C556.363 46.3973 556.288 46.4521 556.236 46.5482L550.943 53.488C550.834 53.6904 550.677 53.8058 550.513 53.8058H549.808H548.688H544.129H543.008H542.304C542.139 53.8058 541.983 53.6904 541.873 53.488L536.58 46.5482C536.528 46.4521 536.453 46.3973 536.375 46.3973C536.375 46.3973 534.729 46.1456 532.004 46.1456L531.988 44.7511H536.929Z"
		fill="#393536" stroke="#231F20" stroke-width="0.25" />
	<path
		d="M537.163 50.315C537.163 47.22 534.654 44.7106 531.558 44.7106C528.464 44.7106 525.955 47.22 525.955 50.315C525.955 53.41 528.464 55.9194 531.558 55.9194C534.654 55.9194 537.163 53.41 537.163 50.315Z"
		fill="#393536" stroke="#231F20" stroke-width="0.25" />
	<path
		d="M531.559 54.9357C534.107 54.9357 536.179 52.8627 536.179 50.3147C536.179 47.7666 534.107 45.6947 531.559 45.6947C529.011 45.6947 526.938 47.7666 526.938 50.3147C526.938 52.8627 529.011 54.9357 531.559 54.9357Z"
		fill="#231F20" />
	<path
		d="M531.559 53.0914C533.09 53.0914 534.335 51.8455 534.335 50.3147C534.335 48.7838 533.09 47.5391 531.559 47.5391C530.028 47.5391 528.782 48.7838 528.782 50.3147C528.782 51.8455 530.028 53.0914 531.559 53.0914Z"
		fill="#393536" />
	<path
		d="M531.559 53.0914C533.09 53.0914 534.335 51.8455 534.335 50.3147C534.335 48.7838 533.09 47.5391 531.559 47.5391C530.028 47.5391 528.782 48.7838 528.782 50.3147C528.782 51.8455 530.028 53.0914 531.559 53.0914Z"
		stroke="#231F20" stroke-width="0.25" stroke-linecap="round" />
	<path
		d="M531.559 52.2307C532.615 52.2307 533.475 51.3713 533.475 50.3149C533.475 49.2586 532.615 48.3992 531.559 48.3992C530.503 48.3992 529.643 49.2586 529.643 50.3149C529.643 51.3713 530.503 52.2307 531.559 52.2307Z"
		fill="#231F20" />
	<path
		d="M531.559 52.2307C532.615 52.2307 533.475 51.3713 533.475 50.3149C533.475 49.2586 532.615 48.3992 531.559 48.3992C530.503 48.3992 529.643 49.2586 529.643 50.3149C529.643 51.3713 530.503 52.2307 531.559 52.2307Z"
		stroke="#231F20" stroke-width="0.25" stroke-linecap="round" />
	<path
		d="M531.559 51.8618C532.412 51.8618 533.105 51.1683 533.105 50.3148C533.105 49.4619 532.412 48.7684 531.559 48.7684C530.705 48.7684 530.012 49.4619 530.012 50.3148C530.012 51.1683 530.705 51.8618 531.559 51.8618Z"
		fill="#393536" />
	<path
		d="M531.559 51.8618C532.412 51.8618 533.105 51.1683 533.105 50.3148C533.105 49.4619 532.412 48.7684 531.559 48.7684C530.705 48.7684 530.012 49.4619 530.012 50.3148C530.012 51.1683 530.705 51.8618 531.559 51.8618Z"
		stroke="#231F20" stroke-width="0.25" stroke-linecap="round" />
	<path
		d="M555.345 50.315C555.345 47.22 557.853 44.7106 560.949 44.7106C564.043 44.7106 566.553 47.22 566.553 50.315C566.553 53.41 564.043 55.9194 560.949 55.9194C557.853 55.9194 555.345 53.41 555.345 50.315Z"
		fill="#393536" stroke="#231F20" stroke-width="0.25" />
	<path
		d="M560.949 54.9357C558.401 54.9357 556.328 52.8627 556.328 50.3147C556.328 47.7666 558.401 45.6947 560.949 45.6947C563.497 45.6947 565.57 47.7666 565.57 50.3147C565.57 52.8627 563.497 54.9357 560.949 54.9357Z"
		fill="#231F20" />
	<path
		d="M560.949 53.0914C559.418 53.0914 558.172 51.8455 558.172 50.3147C558.172 48.7838 559.418 47.5391 560.949 47.5391C562.48 47.5391 563.725 48.7838 563.725 50.3147C563.725 51.8455 562.48 53.0914 560.949 53.0914Z"
		fill="#393536" />
	<path
		d="M560.949 53.0914C559.418 53.0914 558.172 51.8455 558.172 50.3147C558.172 48.7838 559.418 47.5391 560.949 47.5391C562.48 47.5391 563.725 48.7838 563.725 50.3147C563.725 51.8455 562.48 53.0914 560.949 53.0914Z"
		stroke="#231F20" stroke-width="0.25" stroke-linecap="round" />
	<path
		d="M560.949 52.2307C559.892 52.2307 559.033 51.3713 559.033 50.3149C559.033 49.2586 559.892 48.3992 560.949 48.3992C562.005 48.3992 562.864 49.2586 562.864 50.3149C562.864 51.3713 562.005 52.2307 560.949 52.2307Z"
		fill="#231F20" />
	<path
		d="M560.949 52.2307C559.892 52.2307 559.033 51.3713 559.033 50.3149C559.033 49.2586 559.892 48.3992 560.949 48.3992C562.005 48.3992 562.864 49.2586 562.864 50.3149C562.864 51.3713 562.005 52.2307 560.949 52.2307Z"
		stroke="#231F20" stroke-width="0.25" stroke-linecap="round" />
	<path
		d="M560.949 51.8618C560.096 51.8618 559.402 51.1683 559.402 50.3148C559.402 49.4619 560.096 48.7684 560.949 48.7684C561.802 48.7684 562.496 49.4619 562.496 50.3148C562.496 51.1683 561.802 51.8618 560.949 51.8618Z"
		fill="#393536" />
	<path
		d="M560.949 51.8618C560.096 51.8618 559.402 51.1683 559.402 50.3148C559.402 49.4619 560.096 48.7684 560.949 48.7684C561.802 48.7684 562.496 49.4619 562.496 50.3148C562.496 51.1683 561.802 51.8618 560.949 51.8618Z"
		stroke="#231F20" stroke-width="0.25" stroke-linecap="round" />
	<path
		d="M546.885 47.1862H548.234L548.257 50.0896L549.327 50.1132L549.544 51.4261H547.746L546.885 49.7176V47.1862Z"
		fill="#393536" stroke="#231F20" stroke-width="0.25" />
	<path d="M547.714 47.53L547.698 48.4563L538.327 48.4332L538.342 47.5069L547.714 47.53Z"
		fill="#393536" stroke="#231F20" stroke-width="0.25" />
	<path d="M547.714 48.8547L547.698 49.7807L538.327 49.7577L538.342 48.8316L547.714 48.8547Z"
		fill="#393536" stroke="#231F20" stroke-width="0.25" />
	<path d="M595.682 45.1091H591.357V42.876H595.682V45.1091Z" fill="#3F4545" stroke="#231F20"
		stroke-width="0.25" />
	<path
		d="M600.781 45.8789L599.249 44.2053H597.973V44.7418H599.129L600.512 46.1797L600.781 45.8789Z"
		fill="#3F4545" stroke="black" stroke-width="0.25" />
	<path d="M597.936 43.9355L599.286 42.0583L597.936 41.3064V43.9355Z" fill="#3F4545"
		stroke="#231F20" stroke-width="0.25" />
	<path d="M597.067 46.6672H597.946V40.6559H597.067V46.6672Z" fill="#3F4545" stroke="#231F20"
		stroke-width="0.25" />
	<path d="M595.136 46.0424H597.067V41.2802H595.136V46.0424Z" fill="#3F4545" stroke="#231F20"
		stroke-width="0.25" />
	<path d="M295.683 47.5389H300.434V13.8724H295.683V47.5389Z" fill="#393536" />
	<path
		d="M299.309 47.9938C299.309 48.121 299.429 48.2246 299.574 48.2246C299.721 48.2246 299.84 48.121 299.84 47.9938V13.3697C299.84 13.243 299.721 13.1389 299.574 13.1389C299.429 13.1389 299.309 13.243 299.309 13.3697V47.9938Z"
		fill="#595757" />
	<path
		d="M298.262 47.9938C298.262 48.121 298.382 48.2246 298.528 48.2246C298.674 48.2246 298.793 48.121 298.793 47.9938V13.3697C298.793 13.243 298.674 13.1389 298.528 13.1389C298.382 13.1389 298.262 13.243 298.262 13.3697V47.9938Z"
		fill="#595757" />
	<path
		d="M297.216 47.9938C297.216 48.121 297.335 48.2246 297.481 48.2246C297.627 48.2246 297.747 48.121 297.747 47.9938V13.3697C297.747 13.243 297.627 13.1389 297.481 13.1389C297.335 13.1389 297.216 13.243 297.216 13.3697V47.9938Z"
		fill="#595757" />
	<path
		d="M296.169 47.9938C296.169 48.121 296.289 48.2246 296.435 48.2246C296.581 48.2246 296.701 48.121 296.701 47.9938V13.3697C296.701 13.243 296.581 13.1389 296.435 13.1389C296.289 13.1389 296.169 13.243 296.169 13.3697V47.9938Z"
		fill="#595757" />
	<path
		d="M300.143 46.0221V7.08347H334.616V1.01265H560.781C560.781 1.01265 568.597 0.640133 574.691 3.94339C580.985 7.35454 590.509 19.435 592.323 30.8327C594.084 41.8976 590.648 50.8374 590.648 50.8374H575.714C575.714 50.8374 571.747 47.7048 570.271 46.6501C567.829 44.9056 566.224 44.4172 549.546 44.4172C530.147 44.4172 528.541 44.8358 524.633 48.1852C520.726 51.5347 519.749 52.3726 519.749 52.3726H360.435C360.435 52.3726 356.805 49.1632 354.992 47.6968C351.712 45.0452 350.875 44.3474 333.848 44.3474C316.821 44.3474 314.588 44.5567 312.704 45.4638C311.184 46.1955 311.308 46.0221 311.308 46.0221H300.143Z"
		fill="url(#paint5_linear_13_2234)" />
	<path fill-rule="evenodd" clip-rule="evenodd"
		d="M541.521 27.3962C554.338 27.5036 562.874 30.853 568.178 34.2024C568.657 34.5049 569.111 34.7938 569.545 35.0698C576.596 39.5549 578.279 40.6253 592.741 40.6688L592.509 42.212C577.017 41.9716 575.714 41.3205 568.736 37.2727C562.635 33.7338 556.315 31.2717 543.661 30.7596C541.218 30.6609 436.974 30.6636 365.682 30.6771V27.3935L541.521 27.3962ZM357.95 27.3934V30.6786C324.568 30.6855 300.143 30.6941 300.143 30.6941V27.3925L357.95 27.3934Z"
		fill="#ED1C24" />
	<path
		d="M589.336 28.4462C589.787 29.3056 590.174 30.0184 590.414 30.5616C590.624 31.0366 590.274 31.567 589.755 31.567H572.417C571.49 31.567 570.739 30.816 570.739 29.8896V21.4242C570.739 20.4978 571.49 19.7468 572.417 19.7468H578.189C578.238 19.7468 578.288 19.7522 578.336 19.7613C583.788 20.7576 587.277 24.5257 589.336 28.4462Z"
		fill="#231F20" stroke="#0A0F0C" stroke-width="0.25" />
	<path d="M300.175 45.6471H312.469C311.231 46.2306 311.34 46.0781 311.34 46.0781H300.175V45.6471Z"
		fill="url(#paint6_linear_13_2234)" />
	<path d="M588.167 50.9631H579.724V53.0565H588.545L588.167 52.2191V50.9631Z"
		fill="url(#paint7_linear_13_2234)" />
	<path
		d="M568.443 45.6472H592.066C591.443 48.9059 590.68 50.8935 590.68 50.8935H575.746C575.746 50.8935 571.78 47.7609 570.303 46.7067C569.71 46.2827 569.165 45.9338 568.443 45.6472Z"
		fill="url(#paint8_linear_13_2234)" />
	<path
		d="M355.024 47.753C353.886 46.8335 353.041 46.1491 351.715 45.6467H528.926C527.18 46.2109 526.071 47.0364 524.665 48.2415C520.758 51.5909 519.781 52.4282 519.781 52.4282H360.467C360.467 52.4282 356.837 49.2194 355.024 47.753Z"
		fill="url(#paint9_linear_13_2234)" />
	<path
		d="M334.647 1.0684V7.13976L578.966 7.16821C577.478 5.79516 576.03 4.70821 574.722 3.99915C568.628 0.695888 560.813 1.0684 560.813 1.0684H334.647Z"
		fill="url(#paint10_linear_13_2234)" />
	<path
		d="M546.452 1.14888H560.781C560.781 1.14888 568.596 0.776362 574.691 4.07962C578.288 6.02969 582.939 10.8133 586.604 16.6813C586.274 16.2808 583.917 13.4558 581.157 11.1424C576.552 7.28143 572.69 7.18803 572.69 7.18803H546.452V1.14888Z"
		fill="url(#paint11_linear_13_2234)" />
	<path d="M331.2 7.21545H329.411V5.82738H331.2V7.21545Z" fill="#231F20" />
	<path d="M316.704 7.26422H314.915V5.87615H316.704V7.26422Z" fill="#231F20" />
	<path d="M327.038 3.59448H326.708V5.72437H327.038V3.59448Z" fill="#393536" />
	<path d="M329.285 3.59448H328.955V5.72437H329.285V3.59448Z" fill="#393536" />
	<path d="M331.531 3.59448H331.2V5.72437H331.531V3.59448Z" fill="#393536" />
	<path d="M327.039 3.59436H326.708V5.72425H327.039V3.59436Z" fill="#231F20" />
	<path d="M329.285 3.59436H328.955V5.72425H329.285V3.59436Z" fill="#231F20" />
	<path d="M331.53 3.59436H331.2V5.72425H331.53V3.59436Z" fill="#231F20" />
	<path d="M327.039 3.59436H326.708V5.72425H327.039V3.59436Z" stroke="#231F20" stroke-width="0.25"
		stroke-linejoin="round" />
	<path d="M329.285 3.59436H328.955V5.72425H329.285V3.59436Z" stroke="#231F20" stroke-width="0.25"
		stroke-linejoin="round" />
	<path d="M331.53 3.59436H331.2V5.72425H331.53V3.59436Z" stroke="#231F20" stroke-width="0.25"
		stroke-linejoin="round" />
	<path d="M305.85 5.50348L310.433 5.02844L310.371 4.67686L305.789 5.1519L305.85 5.50348Z"
		fill="#231F20" stroke="#231F20" stroke-width="0.25" stroke-linejoin="round" />
	<path d="M327.039 4.3041L310.208 4.7099L327.039 4.3041Z" fill="#393536" />
	<path d="M327.039 4.3041L310.208 4.7099" stroke="#231F20" stroke-width="0.25"
		stroke-linejoin="round" />
	<path d="M327.039 4.50692L310.208 4.91272L327.039 4.50692Z" fill="#393536" />
	<path d="M327.039 4.50692L310.208 4.91272" stroke="#231F20" stroke-width="0.25"
		stroke-linejoin="round" />
	<path d="M314.915 6.18048H332.155V5.41988H314.915V6.18048Z" fill="#231F20" stroke="#231F20"
		stroke-width="0.25" stroke-linejoin="round" />
	<path d="M314.914 6.1803L305.911 5.37909" stroke="#231F20" stroke-width="0.25"
		stroke-linejoin="round" />
	<rect width="4.82214" height="0.900635" transform="matrix(-1 0 0 1 331.53 3.90619)" fill="#231F20" />
	<path d="M309.529 5.31465L321.221 5.41986L321.228 4.96361L309.536 4.8584L309.529 5.31465Z"
		fill="#231F20" stroke="#231F20" stroke-width="0.25" stroke-linejoin="round" />
	<path
		d="M457.925 29.8185C458.02 29.8185 458.095 29.7423 458.095 29.6484V28.4187C458.095 28.3242 458.02 28.2474 457.925 28.2474H446.647C446.552 28.2474 446.476 28.3242 446.476 28.4187V29.6484C446.476 29.7423 446.552 29.8185 446.647 29.8185H457.925Z"
		fill="#656263" />
	<path
		d="M457.925 29.8185C458.02 29.8185 458.095 29.7423 458.095 29.6484V28.4187C458.095 28.3242 458.02 28.2474 457.925 28.2474H446.647C446.552 28.2474 446.476 28.3242 446.476 28.4187V29.6484C446.476 29.7423 446.552 29.8185 446.647 29.8185H457.925Z"
		stroke="#0A0F0C" stroke-width="0.25" stroke-miterlimit="10" />
	<path
		d="M434.688 29.8185C434.782 29.8185 434.858 29.7423 434.858 29.6484V28.4187C434.858 28.3242 434.782 28.2474 434.688 28.2474H423.409C423.315 28.2474 423.239 28.3242 423.239 28.4187V29.6484C423.239 29.7423 423.315 29.8185 423.409 29.8185H434.688Z"
		fill="#656263" />
	<path
		d="M434.688 29.8185C434.782 29.8185 434.858 29.7423 434.858 29.6484V28.4187C434.858 28.3242 434.782 28.2474 434.688 28.2474H423.409C423.315 28.2474 423.239 28.3242 423.239 28.4187V29.6484C423.239 29.7423 423.315 29.8185 423.409 29.8185H434.688Z"
		stroke="#0A0F0C" stroke-width="0.25" stroke-miterlimit="10" />
	<path
		d="M528.645 30.6488H533.435C534.124 30.6488 534.682 30.0906 534.682 29.4019V22.5732C534.682 21.8845 534.124 21.3263 533.435 21.3263H528.645C527.957 21.3263 527.398 21.8845 527.398 22.5732V29.4019C527.398 30.0906 527.957 30.6488 528.645 30.6488Z"
		fill="#393536" stroke="#231F20" stroke-width="0.25" />
	<path
		d="M533.435 30.1729C533.86 30.1729 534.206 29.8272 534.206 29.4021V22.5734C534.206 22.1477 533.86 21.802 533.435 21.802H528.645C528.22 21.802 527.875 22.1477 527.875 22.5734V29.4021C527.875 29.8272 528.22 30.1729 528.645 30.1729H533.435Z"
		fill="#859291" />
	<path
		d="M398.615 41.6685H482.823C484.012 41.6685 484.975 40.705 484.975 39.516V34.1902C484.975 33.0018 484.012 32.0383 482.823 32.0383H398.615C397.427 32.0383 396.463 33.0018 396.463 34.1902V39.516C396.463 40.705 397.427 41.6685 398.615 41.6685Z"
		fill="#231F20" stroke="#0A0F0C" stroke-width="0.25" />
	<path
		d="M468.008 41.2846H482.83C483.805 41.2846 484.595 40.4945 484.595 39.5192V34.1875C484.595 33.2127 483.805 32.4226 482.83 32.4226H468.008C467.033 32.4226 466.242 33.2127 466.242 34.1875V39.5192C466.242 40.4945 467.033 41.2846 468.008 41.2846Z"
		fill="#393536" />
	<path
		d="M482.83 40.9276C483.606 40.9276 484.238 40.2958 484.238 39.5191V34.188C484.238 33.4107 483.606 32.7795 482.83 32.7795H468.008C467.231 32.7795 466.599 33.4107 466.599 34.188V39.5191C466.599 40.2958 467.231 40.9276 468.008 40.9276H482.83Z"
		fill="#859291" />
	<path
		d="M444.875 41.2846H459.697C460.672 41.2846 461.462 40.4945 461.462 39.5192V34.1875C461.462 33.2127 460.672 32.4226 459.697 32.4226H444.875C443.9 32.4226 443.109 33.2127 443.109 34.1875V39.5192C443.109 40.4945 443.9 41.2846 444.875 41.2846Z"
		fill="#393536" />
	<path
		d="M459.697 40.9276C460.473 40.9276 461.105 40.2958 461.105 39.5191V34.188C461.105 33.4107 460.473 32.7795 459.697 32.7795H444.875C444.098 32.7795 443.466 33.4107 443.466 34.188V39.5191C443.466 40.2958 444.098 40.9276 444.875 40.9276H459.697Z"
		fill="#859291" />
	<path
		d="M421.742 41.2846H436.564C437.539 41.2846 438.329 40.4945 438.329 39.5192V34.1875C438.329 33.2127 437.539 32.4226 436.564 32.4226H421.742C420.767 32.4226 419.977 33.2127 419.977 34.1875V39.5192C419.977 40.4945 420.767 41.2846 421.742 41.2846Z"
		fill="#393536" />
	<path
		d="M436.564 40.9276C437.34 40.9276 437.972 40.2958 437.972 39.5191V34.188C437.972 33.4107 437.34 32.7795 436.564 32.7795H421.742C420.965 32.7795 420.334 33.4107 420.334 34.188V39.5191C420.334 40.2958 420.965 40.9276 421.742 40.9276H436.564Z"
		fill="#859291" />
	<path
		d="M398.609 41.2846H413.431C414.406 41.2846 415.196 40.4945 415.196 39.5192V34.1875C415.196 33.2127 414.406 32.4226 413.431 32.4226H398.609C397.634 32.4226 396.844 33.2127 396.844 34.1875V39.5192C396.844 40.4945 397.634 41.2846 398.609 41.2846Z"
		fill="#393536" />
	<path
		d="M413.431 40.9276C414.208 40.9276 414.839 40.2958 414.839 39.5191V34.188C414.839 33.4107 414.208 32.7795 413.431 32.7795H398.609C397.832 32.7795 397.201 33.4107 397.201 34.188V39.5191C397.201 40.2958 397.832 40.9276 398.609 40.9276H413.431Z"
		fill="#859291" />
	<path
		d="M379.389 17.3555H501.875C503.064 17.3555 504.027 16.392 504.027 15.203V9.87725C504.027 8.68885 503.064 7.72535 501.875 7.72535H379.389C378.201 7.72535 377.237 8.68885 377.237 9.87725V15.203C377.237 16.392 378.201 17.3555 379.389 17.3555Z"
		fill="#231F20" stroke="#0A0F0C" stroke-width="0.25" />
	<path
		d="M497.247 16.943H501.81C502.786 16.943 503.576 16.1529 503.576 15.1776V9.84587C503.576 8.87111 502.786 8.08099 501.81 8.08099H497.247C496.272 8.08099 495.481 8.87111 495.481 9.84587V15.1776C495.481 16.1529 496.272 16.943 497.247 16.943Z"
		fill="#393536" />
	<path
		d="M501.811 16.5859C502.587 16.5859 503.219 15.9542 503.219 15.1775V9.8463C503.219 9.06907 502.587 8.43783 501.811 8.43783H497.247C496.47 8.43783 495.838 9.06907 495.838 9.8463V15.1775C495.838 15.9542 496.47 16.5859 497.247 16.5859H501.811Z"
		fill="#859291" />
	<path
		d="M379.454 16.943H384.017C384.993 16.943 385.783 16.1529 385.783 15.1776V9.84587C385.783 8.87111 384.993 8.08099 384.017 8.08099H379.454C378.479 8.08099 377.688 8.87111 377.688 9.84587V15.1776C377.688 16.1529 378.479 16.943 379.454 16.943Z"
		stroke="#0A0F0C" stroke-width="0.25" stroke-miterlimit="10" />
	<path
		d="M384.017 16.5859C384.794 16.5859 385.426 15.9542 385.426 15.1775V9.8463C385.426 9.06907 384.794 8.43783 384.017 8.43783H379.454C378.677 8.43783 378.045 9.06907 378.045 9.8463V15.1775C378.045 15.9542 378.677 16.5859 379.454 16.5859H384.017Z"
		stroke="#0A0F0C" stroke-width="0.25" stroke-miterlimit="10" />
	<path
		d="M379.454 16.943H384.017C384.993 16.943 385.783 16.1529 385.783 15.1776V9.84587C385.783 8.87111 384.993 8.08099 384.017 8.08099H379.454C378.479 8.08099 377.688 8.87111 377.688 9.84587V15.1776C377.688 16.1529 378.479 16.943 379.454 16.943Z"
		fill="#393536" />
	<path
		d="M379.454 16.943H384.017C384.993 16.943 385.783 16.1529 385.783 15.1776V9.84587C385.783 8.87111 384.993 8.08099 384.017 8.08099H379.454C378.479 8.08099 377.688 8.87111 377.688 9.84587V15.1776C377.688 16.1529 378.479 16.943 379.454 16.943Z"
		stroke="#0A0F0C" stroke-width="0.25" stroke-miterlimit="10" />
	<path
		d="M384.017 16.4671C384.729 16.4671 385.307 15.889 385.307 15.1773V9.84663C385.307 9.13488 384.729 8.55625 384.017 8.55625H379.454C378.742 8.55625 378.164 9.13488 378.164 9.84663V15.1773C378.164 15.889 378.742 16.4671 379.454 16.4671H384.017Z"
		fill="#859291" />
	<path
		d="M384.017 16.4671C384.729 16.4671 385.307 15.889 385.307 15.1773V9.84663C385.307 9.13488 384.729 8.55625 384.017 8.55625H379.454C378.742 8.55625 378.164 9.13488 378.164 9.84663V15.1773C378.164 15.889 378.742 16.4671 379.454 16.4671H384.017Z"
		stroke="#0A0F0C" stroke-width="0.25" stroke-miterlimit="10" />
	<path
		d="M468.008 17.0002H482.83C483.805 17.0002 484.595 16.2101 484.595 15.2348V9.90312C484.595 8.92836 483.805 8.13824 482.83 8.13824H468.008C467.033 8.13824 466.242 8.92836 466.242 9.90312V15.2348C466.242 16.2101 467.033 17.0002 468.008 17.0002Z"
		fill="#393536" />
	<path
		d="M482.83 16.6432C483.606 16.6432 484.238 16.0115 484.238 15.2348V9.90362C484.238 9.12638 483.606 8.49514 482.83 8.49514H468.008C467.231 8.49514 466.599 9.12638 466.599 9.90362V15.2348C466.599 16.0115 467.231 16.6432 468.008 16.6432H482.83Z"
		fill="#859291" />
	<path
		d="M444.875 17.0002H459.697C460.672 17.0002 461.462 16.2101 461.462 15.2348V9.90312C461.462 8.92836 460.672 8.13824 459.697 8.13824H444.875C443.9 8.13824 443.109 8.92836 443.109 9.90312V15.2348C443.109 16.2101 443.9 17.0002 444.875 17.0002Z"
		fill="#393536" />
	<path
		d="M459.697 16.6432C460.473 16.6432 461.105 16.0115 461.105 15.2348V9.90362C461.105 9.12638 460.473 8.49514 459.697 8.49514H444.875C444.098 8.49514 443.466 9.12638 443.466 9.90362V15.2348C443.466 16.0115 444.098 16.6432 444.875 16.6432H459.697Z"
		fill="#859291" />
	<path
		d="M421.742 17.0002H436.564C437.539 17.0002 438.329 16.2101 438.329 15.2348V9.90312C438.329 8.92836 437.539 8.13824 436.564 8.13824H421.742C420.767 8.13824 419.977 8.92836 419.977 9.90312V15.2348C419.977 16.2101 420.767 17.0002 421.742 17.0002Z"
		fill="#393536" />
	<path
		d="M436.564 16.6432C437.34 16.6432 437.972 16.0115 437.972 15.2348V9.90362C437.972 9.12638 437.34 8.49514 436.564 8.49514H421.742C420.965 8.49514 420.334 9.12638 420.334 9.90362V15.2348C420.334 16.0115 420.965 16.6432 421.742 16.6432H436.564Z"
		fill="#859291" />
	<path
		d="M398.609 17.0002H413.431C414.406 17.0002 415.196 16.2101 415.196 15.2348V9.90312C415.196 8.92836 414.406 8.13824 413.431 8.13824H398.609C397.634 8.13824 396.844 8.92836 396.844 9.90312V15.2348C396.844 16.2101 397.634 17.0002 398.609 17.0002Z"
		fill="#393536" />
	<path
		d="M413.431 16.6432C414.208 16.6432 414.839 16.0115 414.839 15.2348V9.90362C414.839 9.12638 414.208 8.49514 413.431 8.49514H398.609C397.832 8.49514 397.201 9.12638 397.201 9.90362V15.2348C397.201 16.0115 397.832 16.6432 398.609 16.6432H413.431Z"
		fill="#859291" />
	<path
		d="M344.527 30.6078H352.022C352.997 30.6078 353.788 29.8177 353.788 28.8424V23.1618C353.788 22.187 352.997 21.3963 352.022 21.3963H344.527C343.553 21.3963 342.762 22.187 342.762 23.1618V28.8424C342.762 29.8177 343.553 30.6078 344.527 30.6078Z"
		fill="#393536" stroke="#231F20" stroke-width="0.25" />
	<path
		d="M352.022 30.2508C352.799 30.2508 353.431 29.619 353.431 28.8423V23.1623C353.431 22.3856 352.799 21.7538 352.022 21.7538H344.527C343.751 21.7538 343.119 22.3856 343.119 23.1623V28.8423C343.119 29.619 343.751 30.2508 344.527 30.2508H352.022Z"
		fill="#859291" />
	<path
		d="M578.142 30.7366H573.119C572.082 30.7366 571.242 29.8961 571.242 28.8596V21.8671C571.242 20.8306 572.082 19.99 573.119 19.99H575.72C576.521 19.99 577.233 20.4967 577.495 21.2531L579.916 28.245C580.338 29.4645 579.432 30.7366 578.142 30.7366Z"
		fill="#393536" />
	<path
		d="M578.142 30.2607C578.601 30.2607 579.017 30.046 579.284 29.6724C579.549 29.2983 579.616 28.8346 579.466 28.4008L577.045 21.4089C576.849 20.8448 576.317 20.4658 575.72 20.4658H573.119C572.347 20.4658 571.718 21.0944 571.718 21.8673V28.8592C571.718 29.6322 572.347 30.2607 573.119 30.2607H578.142Z"
		fill="#859291" />
	<path
		d="M579.812 20.4242C582.777 21.341 584.025 22.2106 585.57 23.6368C586.976 24.9347 587.933 26.3308 588.55 27.1741C588.833 27.5605 588.558 28.1032 588.08 28.1032H582.77C582.022 25.5836 581.019 22.9717 579.812 20.4242Z"
		fill="#859291" stroke="#0A0F0C" stroke-width="0.25" />
	<path
		d="M384.361 41.4081H388.59C389.105 41.4081 389.523 40.9899 389.523 40.4746V27.3969C389.523 26.881 389.105 26.4634 388.59 26.4634H384.361C383.846 26.4634 383.428 26.881 383.428 27.3969V40.4746C383.428 40.9899 383.846 41.4081 384.361 41.4081Z"
		fill="#393536" />
	<path
		d="M388.589 41.0511C388.907 41.0511 389.166 40.7924 389.166 40.4746V27.3968C389.166 27.0785 388.907 26.8203 388.589 26.8203H384.361C384.044 26.8203 383.785 27.0785 383.785 27.3968V40.4746C383.785 40.7924 384.044 41.0511 384.361 41.0511H388.589Z"
		fill="#859291" />
	<path
		d="M374.493 41.4081H378.722C379.237 41.4081 379.655 40.9899 379.655 40.4746V27.3969C379.655 26.881 379.237 26.4634 378.722 26.4634H374.493C373.978 26.4634 373.56 26.881 373.56 27.3969V40.4746C373.56 40.9899 373.978 41.4081 374.493 41.4081Z"
		fill="#393536" />
	<path
		d="M378.721 41.0511C379.039 41.0511 379.298 40.7924 379.298 40.4746V27.3968C379.298 27.0785 379.039 26.8203 378.721 26.8203H374.493C374.176 26.8203 373.917 27.0785 373.917 27.3968V40.4746C373.917 40.7924 374.176 41.0511 374.493 41.0511H378.721Z"
		fill="#859291" />
	<path d="M381.088 49.2646H381.995V23.5675H381.088V49.2646Z" fill="#393536" stroke="#0A0F0C"
		stroke-width="0.25" />
	<path
		d="M390.006 49.2645V50.6328M390.006 49.2645H392.044V51.2067H390.02L390.006 50.6328M390.006 49.2645L373.187 49.2645M390.006 50.6328L373.187 50.6328M373.187 49.2645H371.149V51.2067H373.173L373.187 50.6328M373.187 49.2645V50.6328"
		stroke="#0A0F0C" stroke-width="0.25" stroke-miterlimit="10" />
	<path
		d="M372.703 21.7829H390.38C391.934 21.7829 393.2 23.048 393.2 24.603V49.2814H391.415V24.603C391.415 24.0314 390.952 23.5676 390.38 23.5676H372.703C372.13 23.5676 371.667 24.0314 371.667 24.603V49.2814H369.882V24.603C369.882 23.048 371.148 21.7829 372.703 21.7829Z"
		fill="#231F20" />
	<path
		d="M502.249 41.4081H506.478C506.993 41.4081 507.411 40.9899 507.411 40.4746V27.3969C507.411 26.881 506.993 26.4634 506.478 26.4634H502.249C501.734 26.4634 501.316 26.881 501.316 27.3969V40.4746C501.316 40.9899 501.734 41.4081 502.249 41.4081Z"
		fill="#393536" />
	<path
		d="M506.477 41.0511C506.795 41.0511 507.054 40.7924 507.054 40.4746V27.3968C507.054 27.0785 506.795 26.8203 506.477 26.8203H502.249C501.932 26.8203 501.673 27.0785 501.673 27.3968V40.4746C501.673 40.7924 501.932 41.0511 502.249 41.0511H506.477Z"
		fill="#859291" />
	<path
		d="M492.381 41.4081H496.61C497.125 41.4081 497.543 40.9899 497.543 40.4746V27.3969C497.543 26.881 497.125 26.4634 496.61 26.4634H492.381C491.866 26.4634 491.448 26.881 491.448 27.3969V40.4746C491.448 40.9899 491.866 41.4081 492.381 41.4081Z"
		fill="#393536" />
	<path
		d="M496.609 41.0511C496.927 41.0511 497.186 40.7924 497.186 40.4746V27.3968C497.186 27.0785 496.927 26.8203 496.609 26.8203H492.381C492.064 26.8203 491.805 27.0785 491.805 27.3968V40.4746C491.805 40.7924 492.064 41.0511 492.381 41.0511H496.609Z"
		fill="#859291" />
	<path d="M498.976 49.2646H499.883V23.5675H498.976V49.2646Z" fill="#393536" stroke="#0A0F0C"
		stroke-width="0.25" />
	<path
		d="M507.894 49.2645V50.6328M507.894 49.2645H509.932V51.2067H507.908L507.894 50.6328M507.894 49.2645L491.075 49.2645M507.894 50.6328L491.075 50.6328M491.075 49.2645H489.037V51.2067H491.061L491.075 50.6328M491.075 49.2645V50.6328"
		stroke="#0A0F0C" stroke-width="0.25" stroke-miterlimit="10" />
	<path
		d="M490.591 21.7829H508.268C509.822 21.7829 511.088 23.048 511.088 24.603V49.2814H509.303V24.603C509.303 24.0314 508.84 23.5676 508.268 23.5676H490.591C490.018 23.5676 489.555 24.0314 489.555 24.603V49.2814H487.77V24.603C487.77 23.048 489.036 21.7829 490.591 21.7829Z"
		fill="#231F20" />
	<path
		d="M562.537 38.5021H554.817C553.842 38.5021 553.051 37.7119 553.051 36.7366V23.712C553.051 22.7373 553.842 21.9466 554.817 21.9466H562.537C563.512 21.9466 564.302 22.7373 564.302 23.712V36.7366C564.302 37.7119 563.512 38.5021 562.537 38.5021Z"
		stroke="#0A0F0C" stroke-width="0.25" stroke-miterlimit="10" />
	<path
		d="M315.925 38.5021H308.204C307.23 38.5021 306.439 37.7119 306.439 36.7366V23.712C306.439 22.7373 307.23 21.9466 308.204 21.9466H315.925C316.9 21.9466 317.69 22.7373 317.69 23.712V36.7366C317.69 37.7119 316.9 38.5021 315.925 38.5021Z"
		stroke="#0A0F0C" stroke-width="0.25" stroke-miterlimit="10" />
	<path
		d="M356.801 1.42801L353.265 7.19663H332.796M583.663 38.9711H592.967M578.243 18.7963C582.5 18.8038 585.291 20.339 587.525 23.1999C588.978 25.0614 591.886 30.1435 592.898 35.2262M570.846 20.7568H300.253M524.115 1.05585L527.186 7.1417H572.777C572.777 7.1417 576.638 7.2351 581.244 11.0961C584.22 13.5915 586.733 16.6875 586.733 16.6875M546.492 1.05589V7.0623M560.309 1.14895C561.519 1.84675 568.218 4.21925 574.126 12.2214C578.765 18.5031 582.148 26.8461 583.151 33.4349C584.221 40.4601 583.571 43.6699 581.337 50.8803M588.222 50.9969H579.778V53.0903H588.6L588.222 52.2529V50.9969ZM300.229 46.1122V7.17356H334.702V1.10274H560.868C560.868 1.10274 568.683 0.73022 574.778 4.03348C581.071 7.44462 590.595 19.5251 592.409 30.9228C594.171 41.9877 590.735 50.9275 590.735 50.9275H575.801C575.801 50.9275 571.835 47.7949 570.358 46.7402C567.916 44.9957 566.311 44.5072 549.632 44.5072C530.233 44.5072 528.628 44.9259 524.72 48.2753C520.812 51.6248 519.835 52.4626 519.835 52.4626H360.522C360.522 52.4626 356.892 49.2533 355.078 47.7869C351.799 45.1353 350.961 44.4375 333.935 44.4375C316.908 44.4375 314.674 44.6468 312.79 45.5539C311.271 46.2855 311.395 46.1122 311.395 46.1122H300.229Z"
		stroke="#0A0F0C" stroke-width="0.25" stroke-miterlimit="10" />
	<path
		d="M359.876 27.3457H363.757C363.976 27.3457 364.155 27.5223 364.155 27.7418V30.2185C364.155 30.4391 363.976 30.6173 363.757 30.6173H359.876C359.655 30.6173 359.477 30.4391 359.477 30.2185V27.7418C359.477 27.5223 359.655 27.3457 359.876 27.3457Z"
		fill="#EC1C27" />
	<path
		d="M359.952 27.6801H363.681C363.753 27.6801 363.814 27.7391 363.814 27.8127V30.1487C363.814 30.2222 363.753 30.2823 363.681 30.2823H359.952C359.878 30.2823 359.82 30.2222 359.82 30.1487V27.8127C359.82 27.7391 359.878 27.6801 359.952 27.6801Z"
		fill="#E3E6E3" />
	<path
		d="M360.117 30.0605H360.833C361.442 30.0605 361.767 29.7846 361.767 28.9902C361.767 28.1679 361.456 27.9371 360.833 27.9371H360.117V30.0605Z"
		fill="#EC1C27" />
	<path
		d="M360.625 28.2624H360.779C361.128 28.2624 361.273 28.5753 361.273 28.9983C361.273 29.4218 361.136 29.7347 360.779 29.7347H360.625V28.2624Z"
		fill="#E3E6E3" />
	<path
		d="M362.039 30.0605H362.793C363.113 30.0605 363.553 29.9553 363.553 29.4465C363.553 29.1877 363.429 29.0353 363.19 28.9773V28.9704C363.39 28.8925 363.508 28.7433 363.508 28.4744C363.508 28.1099 363.195 27.9371 362.861 27.9371H362.039V30.0605Z"
		fill="#EC1C27" />
	<path
		d="M362.514 29.1295H362.662C362.826 29.1295 363.045 29.2117 363.045 29.4441C363.045 29.6604 362.83 29.7522 362.656 29.7522H362.514V29.1295Z"
		fill="#E3E6E3" />
	<path
		d="M362.514 28.2451H362.654C362.812 28.2451 362.999 28.3557 362.999 28.5516C362.999 28.7309 362.804 28.8071 362.648 28.8071H362.514V28.2451Z"
		fill="#E3E6E3" />
	<path d="M542.325 34.1889L540.931 41.4417H539.195L540.589 34.1889H542.325Z" fill="#859291" />
	<path
		d="M543.291 40.6821C542.741 40.0106 542.579 38.9918 542.827 37.7014C543.432 34.5484 545.58 34.0283 546.796 34.0283C547.44 34.0283 548.049 34.1523 548.522 34.3751C548.51 34.4357 548.307 35.506 548.288 35.5994C547.839 35.3815 547.447 35.2575 546.819 35.2575C546.288 35.2575 544.995 35.5243 544.578 37.7014C544.372 38.7733 544.443 39.4894 544.786 39.9107C545.03 40.2081 545.4 40.3536 545.917 40.3536C546.432 40.3536 546.923 40.2113 547.53 39.9816C547.506 40.1067 547.305 41.141 547.298 41.178C547 41.3085 546.268 41.5833 545.456 41.5833C544.518 41.5833 543.77 41.272 543.291 40.6821Z"
		fill="#859291" />
	<defs>
		<linearGradient id="paint0_linear_13_2234" x1="147.945" y1="52.5894" x2="147.945" y2="7.03311"
			gradientUnits="userSpaceOnUse">
			<stop offset="0.0755152" stop-color="#AAABAA" />
			<stop offset="0.310035" stop-color="#DDDDDD" />
			<stop offset="0.73489" stop-color="#DDDDDD" />
			<stop offset="0.952416" stop-color="white" />
		</linearGradient>
		<linearGradient id="paint1_linear_13_2234" x1="147.942" y1="45.75" x2="147.942" y2="52.5201"
			gradientUnits="userSpaceOnUse">
			<stop stop-color="#4F5756" />
			<stop offset="1" stop-color="#2E3332" />
		</linearGradient>
		<linearGradient id="paint2_linear_13_2234" x1="147.942" y1="45.75" x2="147.942" y2="52.5201"
			gradientUnits="userSpaceOnUse">
			<stop stop-color="#4F5756" />
			<stop offset="1" stop-color="#2E3332" />
		</linearGradient>
		<linearGradient id="paint3_linear_13_2234" x1="147.942" y1="45.75" x2="147.942" y2="52.5201"
			gradientUnits="userSpaceOnUse">
			<stop stop-color="#4F5756" />
			<stop offset="1" stop-color="#2E3332" />
		</linearGradient>
		<linearGradient id="paint4_linear_13_2234" x1="147.942" y1="1.22949" x2="147.945" y2="7.32928"
			gradientUnits="userSpaceOnUse">
			<stop stop-color="#8C8C8C" />
			<stop offset="1" stop-color="#4F5756" />
		</linearGradient>
		<linearGradient id="paint5_linear_13_2234" x1="446.484" y1="52.3726" x2="446.484" y2="6.80506"
			gradientUnits="userSpaceOnUse">
			<stop offset="0.0755152" stop-color="#AAABAA" />
			<stop offset="0.310035" stop-color="#DDDDDD" />
			<stop offset="0.73489" stop-color="#DDDDDD" />
			<stop offset="0.952416" stop-color="white" />
		</linearGradient>
		<linearGradient id="paint6_linear_13_2234" x1="446.12" y1="45.6467" x2="446.12" y2="53.0565"
			gradientUnits="userSpaceOnUse">
			<stop stop-color="#4F5756" />
			<stop offset="1" stop-color="#2E3332" />
		</linearGradient>
		<linearGradient id="paint7_linear_13_2234" x1="446.12" y1="45.6467" x2="446.12" y2="53.0565"
			gradientUnits="userSpaceOnUse">
			<stop stop-color="#4F5756" />
			<stop offset="1" stop-color="#2E3332" />
		</linearGradient>
		<linearGradient id="paint8_linear_13_2234" x1="446.12" y1="45.6467" x2="446.12" y2="53.0565"
			gradientUnits="userSpaceOnUse">
			<stop stop-color="#4F5756" />
			<stop offset="1" stop-color="#2E3332" />
		</linearGradient>
		<linearGradient id="paint9_linear_13_2234" x1="446.12" y1="45.6467" x2="446.12" y2="53.0565"
			gradientUnits="userSpaceOnUse">
			<stop stop-color="#4F5756" />
			<stop offset="1" stop-color="#2E3332" />
		</linearGradient>
		<linearGradient id="paint10_linear_13_2234" x1="456.805" y1="1.05579" x2="456.805" y2="7.16821"
			gradientUnits="userSpaceOnUse">
			<stop stop-color="#8C8C8C" />
			<stop offset="1" stop-color="#4F5756" />
		</linearGradient>
		<linearGradient id="paint11_linear_13_2234" x1="568.76" y1="8.90875" x2="570.248" y2="2.05553"
			gradientUnits="userSpaceOnUse">
			<stop stop-color="#231F20" />
			<stop offset="1" stop-color="#404040" />
		</linearGradient>
	</defs>
</svg>
