<svg width="602" height="57" viewBox="0 0 602 57" fill="none" xmlns="http://www.w3.org/2000/svg">
	<path d="M67.335 52.434H4.90369V42.798H67.335V52.434Z" fill="url(#paint0_linear_13_4243)" />
	<path
		d="M26.5194 44.6326H21.4789V45.8737L25.9622 46.3043L31.636 53.7005H40.1973L45.8205 46.3043L50.7597 45.6964V44.6326H45.3645L39.4628 49.9771H32.3452L26.5194 44.6326Z"
		fill="#393536" stroke="#231F20" stroke-width="0.25" />
	<path
		d="M26.63 50.2369C26.63 47.1419 24.1212 44.6326 21.0256 44.6326C17.9312 44.6326 15.4218 47.1419 15.4218 50.2369C15.4218 53.3319 17.9312 55.8413 21.0256 55.8413C24.1212 55.8413 26.63 53.3319 26.63 50.2369Z"
		fill="#393536" stroke="#231F20" stroke-width="0.25" />
	<path
		d="M21.0261 54.8576C23.5742 54.8576 25.6466 52.7846 25.6466 50.2366C25.6466 47.6886 23.5742 45.6166 21.0261 45.6166C18.4781 45.6166 16.4051 47.6886 16.4051 50.2366C16.4051 52.7846 18.4781 54.8576 21.0261 54.8576Z"
		fill="#231F20" />
	<path
		d="M21.0262 52.6578C22.3611 52.6578 23.4465 51.5724 23.4465 50.2366C23.4465 48.9016 22.3611 47.8162 21.0262 47.8162C19.6904 47.8162 18.605 48.9016 18.605 50.2366C18.605 51.5724 19.6904 52.6578 21.0262 52.6578Z"
		fill="#393536" />
	<path
		d="M56.0203 50.2369C56.0203 47.1419 53.5114 44.6326 50.4159 44.6326C47.3214 44.6326 44.8121 47.1419 44.8121 50.2369C44.8121 53.3319 47.3214 55.8413 50.4159 55.8413C53.5114 55.8413 56.0203 53.3319 56.0203 50.2369Z"
		fill="#393536" stroke="#231F20" stroke-width="0.25" />
	<path
		d="M50.4164 54.8576C52.9644 54.8576 55.0369 52.7846 55.0369 50.2366C55.0369 47.6886 52.9644 45.6166 50.4164 45.6166C47.8684 45.6166 45.7954 47.6886 45.7954 50.2366C45.7954 52.7846 47.8684 54.8576 50.4164 54.8576Z"
		fill="#231F20" />
	<path
		d="M50.4166 52.6578C51.7515 52.6578 52.8369 51.5724 52.8369 50.2366C52.8369 48.9016 51.7515 47.8162 50.4166 47.8162C49.0808 47.8162 47.9954 48.9016 47.9954 50.2366C47.9954 51.5724 49.0808 52.6578 50.4166 52.6578Z"
		fill="#393536" />
	<path d="M291.407 52.4341H225.999V42.7981H291.407V52.4341Z" fill="url(#paint1_linear_13_4243)" />
	<path
		d="M250.568 44.6326H245.527V45.8738L250.01 46.3044L255.684 53.7006H264.246L269.869 46.3044L274.808 45.6965V44.6326H269.413L263.511 49.9772H256.393L250.568 44.6326Z"
		fill="#393536" stroke="#231F20" stroke-width="0.25" />
	<path
		d="M250.702 50.237C250.702 47.142 248.193 44.6326 245.098 44.6326C242.003 44.6326 239.494 47.142 239.494 50.237C239.494 53.332 242.003 55.8414 245.098 55.8414C248.193 55.8414 250.702 53.332 250.702 50.237Z"
		fill="#393536" stroke="#231F20" stroke-width="0.25" />
	<path
		d="M245.098 54.8577C247.646 54.8577 249.719 52.7847 249.719 50.2366C249.719 47.6886 247.646 45.6167 245.098 45.6167C242.55 45.6167 240.477 47.6886 240.477 50.2366C240.477 52.7847 242.55 54.8577 245.098 54.8577Z"
		fill="#231F20" />
	<path
		d="M245.098 52.6578C246.433 52.6578 247.519 51.5724 247.519 50.2366C247.519 48.9017 246.433 47.8163 245.098 47.8163C243.763 47.8163 242.677 48.9017 242.677 50.2366C242.677 51.5724 243.763 52.6578 245.098 52.6578Z"
		fill="#393536" />
	<path
		d="M280.093 50.237C280.093 47.142 277.584 44.6326 274.488 44.6326C271.394 44.6326 268.884 47.142 268.884 50.237C268.884 53.332 271.394 55.8414 274.488 55.8414C277.584 55.8414 280.093 53.332 280.093 50.237Z"
		fill="#393536" stroke="#231F20" stroke-width="0.25" />
	<path
		d="M274.489 54.8577C277.037 54.8577 279.109 52.7847 279.109 50.2366C279.109 47.6886 277.037 45.6167 274.489 45.6167C271.941 45.6167 269.868 47.6886 269.868 50.2366C269.868 52.7847 271.941 54.8577 274.489 54.8577Z"
		fill="#231F20" />
	<path
		d="M274.489 52.6578C275.824 52.6578 276.909 51.5724 276.909 50.2366C276.909 48.9017 275.824 47.8163 274.489 47.8163C273.153 47.8163 272.068 48.9017 272.068 50.2366C272.068 51.5724 273.153 52.6578 274.489 52.6578Z"
		fill="#393536" />
	<path d="M4.90356 47.4669H0.152675V13.8004H4.90356V47.4669Z" fill="#393536" />
	<path
		d="M1.05011 47.9218C1.05011 48.049 0.930411 48.1526 0.784411 48.1526C0.63841 48.1526 0.518712 48.049 0.518712 47.9218V13.2977C0.518712 13.171 0.63841 13.0669 0.784411 13.0669C0.930411 13.0669 1.05011 13.171 1.05011 13.2977V47.9218Z"
		fill="#595757" />
	<path
		d="M2.09619 47.9218C2.09619 48.049 1.97649 48.1526 1.83049 48.1526C1.68449 48.1526 1.56479 48.049 1.56479 47.9218V13.2977C1.56479 13.171 1.68449 13.0669 1.83049 13.0669C1.97649 13.0669 2.09619 13.171 2.09619 13.2977V47.9218Z"
		fill="#595757" />
	<path
		d="M3.14246 47.9218C3.14246 48.049 3.02276 48.1526 2.87676 48.1526C2.72968 48.1526 2.61106 48.049 2.61106 47.9218V13.2977C2.61106 13.171 2.72968 13.0669 2.87676 13.0669C3.02276 13.0669 3.14246 13.171 3.14246 13.2977V47.9218Z"
		fill="#595757" />
	<path
		d="M4.1886 47.9218C4.1886 48.049 4.0689 48.1526 3.9229 48.1526C3.7769 48.1526 3.6572 48.049 3.6572 47.9218V13.2977C3.6572 13.171 3.7769 13.0669 3.9229 13.0669C4.0689 13.0669 4.1886 13.171 4.1886 13.2977V47.9218Z"
		fill="#595757" />
	<path d="M296.158 47.4669H291.407V13.8004H296.158V47.4669Z" fill="#393536" />
	<path
		d="M292.55 47.9218C292.55 48.049 292.43 48.1526 292.284 48.1526C292.138 48.1526 292.018 48.049 292.018 47.9218V13.2977C292.018 13.171 292.138 13.0669 292.284 13.0669C292.43 13.0669 292.55 13.171 292.55 13.2977V47.9218Z"
		fill="#595757" />
	<path
		d="M293.596 47.9218C293.596 48.049 293.476 48.1526 293.33 48.1526C293.184 48.1526 293.064 48.049 293.064 47.9218V13.2977C293.064 13.171 293.184 13.0669 293.33 13.0669C293.476 13.0669 293.596 13.171 293.596 13.2977V47.9218Z"
		fill="#595757" />
	<path
		d="M294.642 47.9218C294.642 48.049 294.522 48.1526 294.376 48.1526C294.229 48.1526 294.111 48.049 294.111 47.9218V13.2977C294.111 13.171 294.229 13.0669 294.376 13.0669C294.522 13.0669 294.642 13.171 294.642 13.2977V47.9218Z"
		fill="#595757" />
	<path
		d="M295.688 47.9218C295.688 48.049 295.569 48.1526 295.423 48.1526C295.277 48.1526 295.157 48.049 295.157 47.9218V13.2977C295.157 13.171 295.277 13.0669 295.423 13.0669C295.569 13.0669 295.688 13.171 295.688 13.2977V47.9218Z"
		fill="#595757" />
	<path
		d="M291.321 1.15748H202.069H93.9527H4.70091V46.1669H17.3214C17.3214 46.1669 17.1974 46.3403 18.7169 45.6087C20.6015 44.7021 18.6805 44.4927 35.7072 44.4927C52.7345 44.4927 53.5718 45.1905 56.8515 47.8422C58.6647 49.3086 62.2943 52.5174 62.2943 52.5174H93.9527H202.069H233.728C233.728 52.5174 237.357 49.3086 239.17 47.8422C242.45 45.1905 243.287 44.4927 260.315 44.4927C277.341 44.4927 275.42 44.7021 277.305 45.6087C278.824 46.3403 278.701 46.1669 278.701 46.1669H291.321V1.15748Z"
		fill="#E3E6E3" />
	<path
		d="M291.321 1.15748H202.069H93.9527H4.70091V46.1669H17.3214C17.3214 46.1669 17.1974 46.3403 18.7169 45.6087C20.6015 44.7021 18.6805 44.4927 35.7072 44.4927C52.7345 44.4927 53.5718 45.1905 56.8515 47.8422C58.6647 49.3086 62.2943 52.5174 62.2943 52.5174H93.9527H202.069H233.728C233.728 52.5174 237.357 49.3086 239.17 47.8422C242.45 45.1905 243.287 44.4927 260.315 44.4927C277.341 44.4927 275.42 44.7021 277.305 45.6087C278.824 46.3403 278.701 46.1669 278.701 46.1669H291.321V1.15748Z"
		fill="url(#paint2_linear_13_4243)" />
	<path d="M4.81721 30.5916H291.298V27.32H4.81721V30.5916Z" fill="#ED1C24" />
	<path d="M278.701 46.1673H291.246V45.667H277.426C278.813 46.3283 278.701 46.1673 278.701 46.1673Z"
		fill="url(#paint3_linear_13_4243)" />
	<path d="M18.5956 45.667H4.69565V46.1672H17.297C17.297 46.1672 17.1833 46.3283 18.5956 45.667Z"
		fill="url(#paint4_linear_13_4243)" />
	<path
		d="M239.17 47.8421C240.361 46.8792 241.234 46.1749 242.673 45.6666H53.3489C54.7885 46.1749 55.6602 46.8792 56.8513 47.8421C58.5158 49.1883 61.7021 51.9946 62.2163 52.4481H233.806C234.32 51.9946 237.506 49.1883 239.17 47.8421Z"
		fill="url(#paint5_linear_13_4243)" />
	<path d="M291.321 7.25728V1.15747H4.7009V7.25728H291.321Z" fill="url(#paint6_linear_13_4243)" />
	<path
		d="M21.9589 30.5521H12.9542C11.9789 30.5521 11.1882 29.762 11.1882 28.7867V23.1061C11.1882 22.1313 11.9789 21.3407 12.9542 21.3407H21.9589C22.9337 21.3407 23.7244 22.1313 23.7244 23.1061V28.7867C23.7244 29.762 22.9337 30.5521 21.9589 30.5521Z"
		fill="#393536" />
	<path
		d="M11.5455 28.7867V23.1067C11.5455 22.3283 12.1762 21.6982 12.9539 21.6982H21.9587C22.737 21.6982 23.3672 22.3283 23.3672 23.1067V28.7867C23.3672 29.5645 22.737 30.1952 21.9587 30.1952H12.9539C12.1762 30.1952 11.5455 29.5645 11.5455 28.7867Z"
		fill="#859291" />
	<path
		d="M40.1518 30.5521H31.147C30.1717 30.5521 29.3811 29.762 29.3811 28.7867V23.1061C29.3811 22.1313 30.1717 21.3407 31.147 21.3407H40.1518C41.1266 21.3407 41.9172 22.1313 41.9172 23.1061V28.7867C41.9172 29.762 41.1266 30.5521 40.1518 30.5521Z"
		fill="#393536" />
	<path
		d="M29.7383 28.7867V23.1067C29.7383 22.3283 30.369 21.6982 31.1468 21.6982H40.1516C40.9299 21.6982 41.5601 22.3283 41.5601 23.1067V28.7867C41.5601 29.5645 40.9299 30.1952 40.1516 30.1952H31.1468C30.369 30.1952 29.7383 29.5645 29.7383 28.7867Z"
		fill="#859291" />
	<path
		d="M256.192 30.6574H250.899C250.211 30.6574 249.652 30.0992 249.652 29.4105V22.5818C249.652 21.8931 250.211 21.3349 250.899 21.3349H256.192C256.881 21.3349 257.439 21.8931 257.439 22.5818V29.4105C257.439 30.0992 256.881 30.6574 256.192 30.6574Z"
		fill="#393536" />
	<path
		d="M250.128 29.4106V22.5819C250.128 22.1557 250.474 21.8105 250.899 21.8105H256.192C256.618 21.8105 256.964 22.1557 256.964 22.5819V29.4106C256.964 29.8363 256.618 30.1814 256.193 30.1814H250.899C250.473 30.1814 250.128 29.8363 250.128 29.4106Z"
		fill="#859291" />
	<path
		d="M199.54 41.6473H96.7208C95.5324 41.6473 94.5689 40.6838 94.5689 39.4948V34.1691C94.5689 32.9807 95.5324 32.0172 96.7208 32.0172H199.54C200.729 32.0172 201.693 32.9807 201.693 34.1691V39.4948C201.693 40.6838 200.729 41.6473 199.54 41.6473Z"
		fill="#231F20" />
	<path
		d="M95.5011 39.5276V34.1965C95.5011 33.4182 96.1318 32.788 96.9096 32.788H110.448C111.227 32.788 111.857 33.4182 111.857 34.1965V39.5276C111.857 40.3054 111.227 40.9361 110.448 40.9361H96.9096C96.1318 40.9361 95.5011 40.3054 95.5011 39.5276Z"
		fill="#859291" />
	<path
		d="M117.748 39.5276V34.1965C117.748 33.4182 118.378 32.788 119.156 32.788H132.695C133.473 32.788 134.104 33.4182 134.104 34.1965V39.5276C134.104 40.3054 133.473 40.9361 132.695 40.9361H119.156C118.378 40.9361 117.748 40.3054 117.748 39.5276Z"
		fill="#859291" />
	<path
		d="M139.994 39.5276V34.1965C139.994 33.4182 140.625 32.788 141.403 32.788H154.942C155.72 32.788 156.35 33.4182 156.35 34.1965V39.5276C156.35 40.3054 155.72 40.9361 154.942 40.9361H141.403C140.625 40.9361 139.994 40.3054 139.994 39.5276Z"
		fill="#859291" />
	<path
		d="M162.241 39.5276V34.1965C162.241 33.4182 162.871 32.788 163.649 32.788H177.188C177.966 32.788 178.597 33.4182 178.597 34.1965V39.5276C178.597 40.3054 177.966 40.9361 177.188 40.9361H163.649C162.871 40.9361 162.241 40.3054 162.241 39.5276Z"
		fill="#859291" />
	<path
		d="M184.487 39.5276V34.1965C184.487 33.4182 185.118 32.788 185.896 32.788H199.435C200.213 32.788 200.843 33.4182 200.843 34.1965V39.5276C200.843 40.3054 200.213 40.9361 199.435 40.9361H185.896C185.118 40.9361 184.487 40.3054 184.487 39.5276Z"
		fill="#859291" />
	<path
		d="M218.8 17.3343H77.3911C76.2027 17.3343 75.2386 16.3708 75.2386 15.1819V9.85607C75.2386 8.66767 76.2027 7.70471 77.3911 7.70471H218.8C219.989 7.70471 220.953 8.66767 220.953 9.85607V15.1819C220.953 16.3708 219.989 17.3343 218.8 17.3343Z"
		fill="#231F20" />
	<path
		d="M110.449 17.0089H96.9097C95.935 17.0089 95.1443 16.2187 95.1443 15.2434V9.91173C95.1443 8.93696 95.935 8.14684 96.9097 8.14684H110.449C111.423 8.14684 112.214 8.93696 112.214 9.91173V15.2434C112.214 16.2187 111.423 17.0089 110.449 17.0089Z"
		fill="#393536" />
	<path
		d="M95.5011 15.2433V9.9121C95.5011 9.13379 96.1318 8.50363 96.9096 8.50363H110.448C111.227 8.50363 111.857 9.13379 111.857 9.9121V15.2433C111.857 16.021 111.227 16.6517 110.448 16.6517H96.9096C96.1318 16.6517 95.5011 16.021 95.5011 15.2433Z"
		fill="#859291" />
	<path
		d="M132.695 17.0089H119.156C118.181 17.0089 117.391 16.2187 117.391 15.2434V9.91173C117.391 8.93696 118.181 8.14684 119.156 8.14684H132.695C133.67 8.14684 134.46 8.93696 134.46 9.91173V15.2434C134.46 16.2187 133.67 17.0089 132.695 17.0089Z"
		fill="#393536" />
	<path
		d="M117.748 15.2433V9.9121C117.748 9.13379 118.378 8.50363 119.156 8.50363H132.695C133.473 8.50363 134.104 9.13379 134.104 9.9121V15.2433C134.104 16.021 133.473 16.6517 132.695 16.6517H119.156C118.378 16.6517 117.748 16.021 117.748 15.2433Z"
		fill="#859291" />
	<path
		d="M154.942 17.0089H141.403C140.428 17.0089 139.637 16.2187 139.637 15.2434V9.91173C139.637 8.93696 140.428 8.14684 141.403 8.14684H154.942C155.916 8.14684 156.707 8.93696 156.707 9.91173V15.2434C156.707 16.2187 155.916 17.0089 154.942 17.0089Z"
		fill="#393536" />
	<path
		d="M139.994 15.2433V9.9121C139.994 9.13379 140.625 8.50363 141.403 8.50363H154.942C155.72 8.50363 156.35 9.13379 156.35 9.9121V15.2433C156.35 16.021 155.72 16.6517 154.942 16.6517H141.403C140.625 16.6517 139.994 16.021 139.994 15.2433Z"
		fill="#859291" />
	<path
		d="M177.188 17.0089H163.649C162.675 17.0089 161.884 16.2187 161.884 15.2434V9.91173C161.884 8.93696 162.675 8.14684 163.649 8.14684H177.188C178.163 8.14684 178.954 8.93696 178.954 9.91173V15.2434C178.954 16.2187 178.163 17.0089 177.188 17.0089Z"
		fill="#393536" />
	<path
		d="M162.241 15.2433V9.9121C162.241 9.13379 162.871 8.50363 163.649 8.50363H177.188C177.966 8.50363 178.597 9.13379 178.597 9.9121V15.2433C178.597 16.021 177.966 16.6517 177.188 16.6517H163.649C162.871 16.6517 162.241 16.021 162.241 15.2433Z"
		fill="#859291" />
	<path
		d="M199.435 17.0089H185.896C184.921 17.0089 184.131 16.2187 184.131 15.2434V9.91173C184.131 8.93696 184.921 8.14684 185.896 8.14684H199.435C200.41 8.14684 201.2 8.93696 201.2 9.91173V15.2434C201.2 16.2187 200.41 17.0089 199.435 17.0089Z"
		fill="#393536" />
	<path
		d="M184.487 15.2433V9.9121C184.487 9.13379 185.118 8.50363 185.896 8.50363H199.435C200.213 8.50363 200.843 9.13379 200.843 9.9121V15.2433C200.843 16.021 200.213 16.6517 199.435 16.6517H185.896C185.118 16.6517 184.487 16.021 184.487 15.2433Z"
		fill="#859291" />
	<path
		d="M77.6011 16.9515H82.1647C83.14 16.9515 83.9307 16.1614 83.9307 15.1861V9.85442C83.9307 8.87965 83.14 8.08953 82.1647 8.08953H77.6011C76.6264 8.08953 75.8357 8.87965 75.8357 9.85442V15.1861C75.8357 16.1614 76.6264 16.9515 77.6011 16.9515Z"
		fill="#393536" />
	<path
		d="M83.4546 15.186V9.85488C83.4546 9.14259 82.877 8.56503 82.1647 8.56503H77.6012C76.8889 8.56503 76.3113 9.14259 76.3113 9.85488V15.186C76.3113 15.8983 76.8889 16.4759 77.6012 16.4759H82.1647C82.877 16.4759 83.4546 15.8983 83.4546 15.186Z"
		fill="#859291" />
	<path
		d="M218.59 16.9515H214.027C213.051 16.9515 212.261 16.1614 212.261 15.1861V9.85442C212.261 8.87965 213.051 8.08953 214.027 8.08953H218.59C219.565 8.08953 220.356 8.87965 220.356 9.85442V15.1861C220.356 16.1614 219.565 16.9515 218.59 16.9515Z"
		fill="#393536" />
	<path
		d="M212.737 15.186V9.85488C212.737 9.14259 213.314 8.56503 214.027 8.56503H218.59C219.303 8.56503 219.88 9.14259 219.88 9.85488V15.186C219.88 15.8983 219.303 16.4759 218.59 16.4759H214.027C213.314 16.4759 212.737 15.8983 212.737 15.186Z"
		fill="#859291" />
	<path
		d="M82.807 41.3361H87.0356C87.5509 41.3361 87.9685 40.9179 87.9685 40.4026V27.3249C87.9685 26.809 87.5509 26.3914 87.0356 26.3914H82.807C82.2917 26.3914 81.8735 26.809 81.8735 27.3249V40.4026C81.8735 40.9179 82.2917 41.3361 82.807 41.3361Z"
		fill="#393536" />
	<path
		d="M87.0353 40.9791C87.3531 40.9791 87.6118 40.7203 87.6118 40.4026V27.3248C87.6118 27.0065 87.3531 26.7483 87.0353 26.7483H82.8067C82.4895 26.7483 82.2307 27.0065 82.2307 27.3248V40.4026C82.2307 40.7203 82.4895 40.9791 82.8067 40.9791H87.0353Z"
		fill="#859291" />
	<path
		d="M72.939 41.3361H77.1676C77.6829 41.3361 78.1011 40.9179 78.1011 40.4026V27.3249C78.1011 26.809 77.6829 26.3914 77.1676 26.3914H72.939C72.4237 26.3914 72.0056 26.809 72.0056 27.3249V40.4026C72.0056 40.9179 72.4237 41.3361 72.939 41.3361Z"
		fill="#393536" />
	<path
		d="M77.1674 40.9791C77.4852 40.9791 77.7439 40.7203 77.7439 40.4026V27.3248C77.7439 27.0065 77.4852 26.7483 77.1674 26.7483H72.9388C72.6215 26.7483 72.3628 27.0065 72.3628 27.3248V40.4026C72.3628 40.7203 72.6215 40.9791 72.9388 40.9791H77.1674Z"
		fill="#859291" />
	<path d="M79.5337 49.1926H80.4408V23.4955H79.5337V49.1926Z" fill="#393536" />
	<path
		d="M71.1485 21.7108H88.8258C90.3803 21.7108 91.646 22.976 91.646 24.531V49.2094H89.8612V24.531C89.8612 23.9593 89.3975 23.4956 88.8258 23.4956H71.1485C70.5763 23.4956 70.1126 23.9593 70.1126 24.531V49.2094H68.3283V24.531C68.3283 22.976 69.5935 21.7108 71.1485 21.7108Z"
		fill="#231F20" />
	<path d="M68.3284 49.2093L91.646 49.2092" stroke="#0A0F0C" stroke-width="0.25"
		stroke-miterlimit="10" />
	<path
		d="M219.064 41.3361H223.292C223.808 41.3361 224.225 40.9179 224.225 40.4026V27.3249C224.225 26.809 223.808 26.3914 223.292 26.3914H219.064C218.548 26.3914 218.13 26.809 218.13 27.3249V40.4026C218.13 40.9179 218.548 41.3361 219.064 41.3361Z"
		fill="#393536" />
	<path
		d="M223.292 40.9791C223.61 40.9791 223.869 40.7203 223.869 40.4026V27.3248C223.869 27.0065 223.61 26.7483 223.292 26.7483H219.063C218.746 26.7483 218.487 27.0065 218.487 27.3248V40.4026C218.487 40.7203 218.746 40.9791 219.063 40.9791H223.292Z"
		fill="#859291" />
	<path
		d="M209.196 41.3361H213.424C213.94 41.3361 214.358 40.9179 214.358 40.4026V27.3249C214.358 26.809 213.94 26.3914 213.424 26.3914H209.196C208.68 26.3914 208.262 26.809 208.262 27.3249V40.4026C208.262 40.9179 208.68 41.3361 209.196 41.3361Z"
		fill="#393536" />
	<path
		d="M213.424 40.9791C213.742 40.9791 214.001 40.7203 214.001 40.4026V27.3248C214.001 27.0065 213.742 26.7483 213.424 26.7483H209.195C208.878 26.7483 208.62 27.0065 208.62 27.3248V40.4026C208.62 40.7203 208.878 40.9791 209.195 40.9791H213.424Z"
		fill="#859291" />
	<path d="M215.79 49.1926H216.698V23.4955H215.79V49.1926Z" fill="#393536" />
	<path
		d="M207.405 21.7108H225.083C226.637 21.7108 227.903 22.976 227.903 24.531V49.2094H226.118V24.531C226.118 23.9593 225.654 23.4956 225.083 23.4956H207.405C206.833 23.4956 206.369 23.9593 206.369 24.531V49.2094H204.585V24.531C204.585 22.976 205.85 21.7108 207.405 21.7108Z"
		fill="#231F20" />
	<path d="M204.585 49.2093L227.903 49.2092" stroke="#0A0F0C" stroke-width="0.25"
		stroke-miterlimit="10" />
	<path
		d="M4.70395 20.8461H291.324M291.324 1.07794V46.0874H278.704C278.704 46.0874 278.827 46.2608 277.308 45.5291C275.423 44.6225 277.344 44.4132 260.318 44.4132C243.291 44.4132 242.453 45.111 239.174 47.7626C237.36 49.2291 233.73 52.4379 233.73 52.4379H62.2973C62.2973 52.4379 58.6677 49.2291 56.8545 47.7626C53.5749 45.111 52.7375 44.4132 35.7103 44.4132C18.6835 44.4132 20.6046 44.6225 18.72 45.5291C17.2004 46.2608 17.3244 46.0874 17.3244 46.0874H4.70395V1.07794H291.324Z"
		stroke="#0A0F0C" stroke-width="0.25" stroke-miterlimit="10" />
	<path d="M51.3247 30.8588H59.0574V26.9823H51.3247V30.8588Z" fill="#E3E6E3" />
	<path
		d="M53.2516 27.285H57.1325C57.352 27.285 57.5307 27.4616 57.5307 27.6811V30.1577C57.5307 30.3784 57.352 30.5566 57.1325 30.5566H53.2516C53.0316 30.5566 52.8523 30.3784 52.8523 30.1577V27.6811C52.8523 27.4616 53.0316 27.285 53.2516 27.285Z"
		fill="#EC1C27" />
	<path
		d="M53.3272 27.6194H57.0567C57.1291 27.6194 57.1893 27.6785 57.1893 27.752V30.088C57.1893 30.1615 57.1291 30.2217 57.0567 30.2217H53.3272C53.2537 30.2217 53.1952 30.1615 53.1952 30.088V27.752C53.1952 27.6785 53.2537 27.6194 53.3272 27.6194Z"
		fill="#E3E6E3" />
	<path
		d="M53.4921 29.9999H54.2082C54.8174 29.9999 55.1416 29.724 55.1416 28.9295C55.1416 28.1072 54.8319 27.8764 54.2082 27.8764H53.4921V29.9999Z"
		fill="#EC1C27" />
	<path
		d="M54.0005 28.2017H54.1545C54.5034 28.2017 54.6489 28.5146 54.6489 28.9376C54.6489 29.3611 54.511 29.6741 54.1545 29.6741H54.0005V28.2017Z"
		fill="#E3E6E3" />
	<path
		d="M55.4142 29.9999H56.1684C56.4889 29.9999 56.9285 29.8947 56.9285 29.3858C56.9285 29.1271 56.805 28.9746 56.5661 28.9167V28.9097C56.7664 28.8319 56.8834 28.6826 56.8834 28.4137C56.8834 28.0493 56.5704 27.8764 56.2366 27.8764H55.4142V29.9999Z"
		fill="#EC1C27" />
	<path
		d="M55.89 29.0689H56.0381C56.2018 29.0689 56.4203 29.151 56.4203 29.3835C56.4203 29.5998 56.2061 29.6916 56.0317 29.6916H55.89V29.0689Z"
		fill="#E3E6E3" />
	<path
		d="M55.89 28.1844H56.0295C56.1868 28.1844 56.3747 28.295 56.3747 28.4909C56.3747 28.6702 56.1798 28.7464 56.0241 28.7464H55.89V28.1844Z"
		fill="#E3E6E3" />
	<path d="M368.019 52.506H300.296V42.87H368.019V52.506Z" fill="url(#paint7_linear_13_4243)" />
	<path
		d="M324.865 44.7046H319.824V45.9458L324.307 46.3764L329.981 53.7726H338.542L344.166 46.3764L349.105 45.7685V44.7046H343.71L337.808 50.0491H330.69L324.865 44.7046Z"
		fill="#393536" stroke="#231F20" stroke-width="0.25" />
	<path
		d="M324.999 50.309C324.999 47.214 322.49 44.7046 319.395 44.7046C316.3 44.7046 313.791 47.214 313.791 50.309C313.791 53.4039 316.3 55.9133 319.395 55.9133C322.49 55.9133 324.999 53.4039 324.999 50.309Z"
		fill="#393536" stroke="#231F20" stroke-width="0.25" />
	<path
		d="M319.395 54.9296C321.943 54.9296 324.016 52.8566 324.016 50.3086C324.016 47.7606 321.943 45.6887 319.395 45.6887C316.847 45.6887 314.774 47.7606 314.774 50.3086C314.774 52.8566 316.847 54.9296 319.395 54.9296Z"
		fill="#231F20" />
	<path
		d="M319.396 52.7298C320.73 52.7298 321.816 51.6444 321.816 50.3086C321.816 48.9737 320.73 47.8882 319.396 47.8882C318.06 47.8882 316.974 48.9737 316.974 50.3086C316.974 51.6444 318.06 52.7298 319.396 52.7298Z"
		fill="#393536" />
	<path
		d="M354.389 50.309C354.389 47.214 351.881 44.7046 348.785 44.7046C345.691 44.7046 343.181 47.214 343.181 50.309C343.181 53.4039 345.691 55.9133 348.785 55.9133C351.881 55.9133 354.389 53.4039 354.389 50.309Z"
		fill="#393536" stroke="#231F20" stroke-width="0.25" />
	<path
		d="M348.786 54.9296C351.334 54.9296 353.406 52.8566 353.406 50.3086C353.406 47.7606 351.334 45.6887 348.786 45.6887C346.237 45.6887 344.165 47.7606 344.165 50.3086C344.165 52.8566 346.237 54.9296 348.786 54.9296Z"
		fill="#231F20" />
	<path
		d="M348.786 52.7298C350.121 52.7298 351.206 51.6444 351.206 50.3086C351.206 48.9737 350.121 47.8882 348.786 47.8882C347.45 47.8882 346.364 48.9737 346.364 50.3086C346.364 51.6444 347.45 52.7298 348.786 52.7298Z"
		fill="#393536" />
	<path d="M580.248 52.5121H517.607V42.8761H580.248V52.5121Z" fill="url(#paint8_linear_13_4243)" />
	<path
		d="M537.07 44.7106H532.029V45.9518L536.512 46.3824L542.186 53.7786H550.747L556.371 46.3824L561.31 45.7745V44.7106H555.915L550.013 50.0552H542.895L537.07 44.7106Z"
		fill="#393536" stroke="#231F20" stroke-width="0.25" />
	<path
		d="M537.229 50.315C537.229 47.22 534.72 44.7106 531.624 44.7106C528.53 44.7106 526.021 47.22 526.021 50.315C526.021 53.41 528.53 55.9194 531.624 55.9194C534.72 55.9194 537.229 53.41 537.229 50.315Z"
		fill="#393536" stroke="#231F20" stroke-width="0.25" />
	<path
		d="M531.625 54.9357C534.173 54.9357 536.245 52.8627 536.245 50.3147C536.245 47.7666 534.173 45.6947 531.625 45.6947C529.077 45.6947 527.004 47.7666 527.004 50.3147C527.004 52.8627 529.077 54.9357 531.625 54.9357Z"
		fill="#231F20" />
	<path
		d="M531.625 52.7358C532.96 52.7358 534.045 51.6504 534.045 50.3146C534.045 48.9797 532.96 47.8943 531.625 47.8943C530.289 47.8943 529.204 48.9797 529.204 50.3146C529.204 51.6504 530.289 52.7358 531.625 52.7358Z"
		fill="#393536" />
	<path
		d="M566.619 50.315C566.619 47.22 564.11 44.7106 561.015 44.7106C557.92 44.7106 555.411 47.22 555.411 50.315C555.411 53.41 557.92 55.9194 561.015 55.9194C564.11 55.9194 566.619 53.41 566.619 50.315Z"
		fill="#393536" stroke="#231F20" stroke-width="0.25" />
	<path
		d="M561.015 54.9357C563.563 54.9357 565.636 52.8627 565.636 50.3147C565.636 47.7666 563.563 45.6947 561.015 45.6947C558.467 45.6947 556.394 47.7666 556.394 50.3147C556.394 52.8627 558.467 54.9357 561.015 54.9357Z"
		fill="#231F20" />
	<path
		d="M561.015 52.7358C562.35 52.7358 563.436 51.6504 563.436 50.3146C563.436 48.9797 562.35 47.8943 561.015 47.8943C559.679 47.8943 558.594 48.9797 558.594 50.3146C558.594 51.6504 559.679 52.7358 561.015 52.7358Z"
		fill="#393536" />
	<path d="M595.748 45.1091H591.423V42.876H595.748V45.1091Z" fill="#3F4545" stroke="#231F20"
		stroke-width="0.25" />
	<path
		d="M600.847 45.8789L599.315 44.2053H598.039V44.7418H599.195L600.578 46.1797L600.847 45.8789Z"
		fill="#3F4545" stroke="black" stroke-width="0.25" />
	<path d="M598.002 43.9355L599.352 42.0583L598.002 41.3064V43.9355Z" fill="#3F4545"
		stroke="#231F20" stroke-width="0.25" />
	<path d="M597.133 46.6672H598.012V40.6559H597.133V46.6672Z" fill="#3F4545" stroke="#231F20"
		stroke-width="0.25" />
	<path d="M595.202 46.0424H597.133V41.2802H595.202V46.0424Z" fill="#3F4545" stroke="#231F20"
		stroke-width="0.25" />
	<path d="M295.749 47.5389H300.5V13.8724H295.749V47.5389Z" fill="#393536" />
	<path
		d="M299.375 47.9938C299.375 48.121 299.495 48.2246 299.639 48.2246C299.787 48.2246 299.906 48.121 299.906 47.9938V13.3697C299.906 13.243 299.787 13.1389 299.639 13.1389C299.495 13.1389 299.375 13.243 299.375 13.3697V47.9938Z"
		fill="#595757" />
	<path
		d="M298.328 47.9938C298.328 48.121 298.447 48.2246 298.593 48.2246C298.739 48.2246 298.859 48.121 298.859 47.9938V13.3697C298.859 13.243 298.739 13.1389 298.593 13.1389C298.447 13.1389 298.328 13.243 298.328 13.3697V47.9938Z"
		fill="#595757" />
	<path
		d="M297.282 47.9938C297.282 48.121 297.401 48.2246 297.547 48.2246C297.693 48.2246 297.813 48.121 297.813 47.9938V13.3697C297.813 13.243 297.693 13.1389 297.547 13.1389C297.401 13.1389 297.282 13.243 297.282 13.3697V47.9938Z"
		fill="#595757" />
	<path
		d="M296.235 47.9938C296.235 48.121 296.355 48.2246 296.501 48.2246C296.647 48.2246 296.767 48.121 296.767 47.9938V13.3697C296.767 13.243 296.647 13.1389 296.501 13.1389C296.355 13.1389 296.235 13.243 296.235 13.3697V47.9938Z"
		fill="#595757" />
	<path
		d="M300.209 46.0221V7.08347H334.682V1.01265H560.847C560.847 1.01265 568.663 0.640132 574.757 3.94339C581.051 7.35454 590.574 19.435 592.389 30.8327C594.15 41.8976 590.714 50.8374 590.714 50.8374H575.78C575.78 50.8374 571.813 47.7048 570.337 46.6501C567.895 44.9056 566.29 44.4172 549.612 44.4172C530.212 44.4172 528.607 44.8358 524.699 48.1852C520.792 51.5347 519.815 52.3726 519.815 52.3726H360.501C360.501 52.3726 356.871 49.1632 355.058 47.6968C351.778 45.0452 350.941 44.3474 333.914 44.3474C316.887 44.3474 314.654 44.5567 312.77 45.4638C311.25 46.1955 311.374 46.0221 311.374 46.0221H300.209Z"
		fill="#E3E6E3" />
	<path
		d="M300.209 46.0221V7.08347H334.682V1.01265H560.847C560.847 1.01265 568.663 0.640132 574.757 3.94339C581.051 7.35454 590.574 19.435 592.389 30.8327C594.15 41.8976 590.714 50.8374 590.714 50.8374H575.78C575.78 50.8374 571.813 47.7048 570.337 46.6501C567.895 44.9056 566.29 44.4172 549.612 44.4172C530.212 44.4172 528.607 44.8358 524.699 48.1852C520.792 51.5347 519.815 52.3726 519.815 52.3726H360.501C360.501 52.3726 356.871 49.1632 355.058 47.6968C351.778 45.0452 350.941 44.3474 333.914 44.3474C316.887 44.3474 314.654 44.5567 312.77 45.4638C311.25 46.1955 311.374 46.0221 311.374 46.0221H300.209Z"
		fill="url(#paint9_linear_13_4243)" />
	<path fill-rule="evenodd" clip-rule="evenodd"
		d="M541.587 27.3962C554.404 27.5036 562.94 30.853 568.244 34.2024C568.723 34.5049 569.177 34.7938 569.611 35.0698C576.662 39.5549 578.345 40.6253 592.807 40.6688L592.575 42.212C577.083 41.9716 575.78 41.3205 568.802 37.2727C562.701 33.7338 556.381 31.2717 543.727 30.7596C541.284 30.6609 437.04 30.6636 365.748 30.6771V27.3935L541.587 27.3962ZM358.016 27.3934V30.6786C324.634 30.6855 300.209 30.6941 300.209 30.6941V27.3925L358.016 27.3934Z"
		fill="#ED1C24" />
	<path
		d="M589.402 28.4462C589.853 29.3056 590.24 30.0184 590.48 30.5616C590.69 31.0366 590.34 31.567 589.821 31.567H572.483C571.556 31.567 570.805 30.816 570.805 29.8896V21.4242C570.805 20.4978 571.556 19.7468 572.483 19.7468H578.255C578.304 19.7468 578.354 19.7522 578.402 19.7613C583.854 20.7576 587.343 24.5257 589.402 28.4462Z"
		fill="#231F20" stroke="#0A0F0C" stroke-width="0.25" />
	<path d="M300.24 45.6471H312.535C311.297 46.2306 311.406 46.0781 311.406 46.0781H300.24V45.6471Z"
		fill="url(#paint10_linear_13_4243)" />
	<path d="M588.233 50.9631H579.789V53.0565H588.611L588.233 52.2191V50.9631Z"
		fill="url(#paint11_linear_13_4243)" />
	<path
		d="M568.509 45.6472H592.132C591.509 48.9059 590.746 50.8935 590.746 50.8935H575.812C575.812 50.8935 571.846 47.7609 570.369 46.7067C569.776 46.2827 569.231 45.9338 568.509 45.6472Z"
		fill="url(#paint12_linear_13_4243)" />
	<path
		d="M355.09 47.753C353.952 46.8335 353.107 46.1491 351.78 45.6467H528.992C527.246 46.2109 526.137 47.0364 524.731 48.2415C520.824 51.5909 519.847 52.4282 519.847 52.4282H360.532C360.532 52.4282 356.903 49.2194 355.09 47.753Z"
		fill="url(#paint13_linear_13_4243)" />
	<path
		d="M334.713 7.13976V1.0684H560.879C560.879 1.0684 568.694 0.695888 574.788 3.99915C576.096 4.70821 577.544 5.79516 579.032 7.16821C581.656 9.57835 584.318 12.9166 586.67 16.6813C586.34 16.2808 583.983 13.4558 581.223 11.1424C576.618 7.28142 572.761 7.16821 572.761 7.16821L334.713 7.13976Z"
		fill="url(#paint14_linear_13_4243)" />
	<path
		d="M546.518 1.14888H560.847C560.847 1.14888 568.662 0.776363 574.757 4.07962C578.354 6.02969 583.005 10.8133 586.67 16.6813C586.34 16.2808 583.983 13.4558 581.223 11.1424C576.618 7.28143 572.756 7.18803 572.756 7.18803H546.518V1.14888Z"
		fill="url(#paint15_linear_13_4243)" />
	<path d="M331.266 7.21539H329.477V5.82732H331.266V7.21539Z" fill="#231F20" />
	<path d="M316.77 7.26416H314.981V5.87608H316.77V7.26416Z" fill="#231F20" />
	<path d="M305.857 5.58807L310.499 4.93767L310.436 4.4563L305.794 5.1067L305.857 5.58807Z"
		fill="#231F20" />
	<path d="M327.105 4.30404L310.274 4.70984Z" fill="#393536" />
	<path d="M327.105 4.30404L310.274 4.70984" stroke="#231F20" stroke-width="0.25"
		stroke-linejoin="round" />
	<path d="M327.105 4.50686L310.274 4.91266Z" fill="#393536" />
	<path d="M327.105 4.50686L310.274 4.91266" stroke="#231F20" stroke-width="0.25"
		stroke-linejoin="round" />
	<path d="M314.743 6.25513H332.317V5.30084H314.743V6.25513Z" fill="#231F20" />
	<path d="M315.121 6.17047L305.977 5.37903" stroke="#231F20" stroke-width="0.25"
		stroke-linejoin="round" />
	<rect width="4.82214" height="2.12988" transform="matrix(-1 0 0 1 331.596 3.59442)" fill="#231F20" />
	<path d="M308.441 5.36745L321.394 5.50299L321.401 4.9152L308.448 4.77966L308.441 5.36745Z"
		fill="#231F20" />
	<path
		d="M528.711 30.6487H533.501C534.19 30.6487 534.748 30.0905 534.748 29.4018V22.5731C534.748 21.8844 534.19 21.3262 533.501 21.3262H528.711C528.023 21.3262 527.464 21.8844 527.464 22.5731V29.4018C527.464 30.0905 528.023 30.6487 528.711 30.6487Z"
		fill="#393536" />
	<path
		d="M533.501 30.1729C533.926 30.1729 534.272 29.8272 534.272 29.4021V22.5733C534.272 22.1477 533.926 21.802 533.501 21.802H528.711C528.286 21.802 527.941 22.1477 527.941 22.5733V29.4021C527.941 29.8272 528.286 30.1729 528.711 30.1729H533.501Z"
		fill="#859291" />
	<path
		d="M398.681 41.6684H482.889C484.078 41.6684 485.041 40.7049 485.041 39.516V34.1902C485.041 33.0018 484.078 32.0383 482.889 32.0383H398.681C397.493 32.0383 396.529 33.0018 396.529 34.1902V39.516C396.529 40.7049 397.493 41.6684 398.681 41.6684Z"
		fill="#231F20" />
	<path
		d="M482.569 40.6033C483.346 40.6033 483.978 40.0218 483.978 39.3069V34.3998C483.978 33.6844 483.346 33.1033 482.569 33.1033H467.747C466.97 33.1033 466.339 33.6844 466.339 34.3998V39.3069C466.339 40.0218 466.97 40.6033 467.747 40.6033H482.569Z"
		fill="#859291" />
	<path
		d="M459.762 40.6033C460.539 40.6033 461.171 40.0218 461.171 39.3069V34.3998C461.171 33.6844 460.539 33.1033 459.762 33.1033H444.941C444.164 33.1033 443.532 33.6844 443.532 34.3998V39.3069C443.532 40.0218 444.164 40.6033 444.941 40.6033H459.762Z"
		fill="#859291" />
	<path
		d="M436.629 40.6033C437.406 40.6033 438.038 40.0218 438.038 39.3069V34.3998C438.038 33.6844 437.406 33.1033 436.629 33.1033H421.808C421.03 33.1033 420.399 33.6844 420.399 34.3998V39.3069C420.399 40.0218 421.03 40.6033 421.808 40.6033H436.629Z"
		fill="#859291" />
	<path
		d="M413.819 40.6033C414.596 40.6033 415.228 40.0218 415.228 39.3069V34.3998C415.228 33.6844 414.596 33.1033 413.819 33.1033H398.997C398.22 33.1033 397.589 33.6844 397.589 34.3998V39.3069C397.589 40.0218 398.22 40.6033 398.997 40.6033H413.819Z"
		fill="#859291" />
	<path
		d="M379.455 17.3554H501.941C503.13 17.3554 504.093 16.3919 504.093 15.203V9.87718C504.093 8.68878 503.13 7.72529 501.941 7.72529H379.455C378.267 7.72529 377.303 8.68878 377.303 9.87718V15.203C377.303 16.3919 378.267 17.3554 379.455 17.3554Z"
		fill="#231F20" />
	<path
		d="M501.695 16.2619C502.41 16.2619 502.992 15.6804 502.992 14.9654V10.0582C502.992 9.34279 502.41 8.76175 501.695 8.76175H497.494C496.779 8.76175 496.198 9.34279 496.198 10.0582V14.9654C496.198 15.6804 496.779 16.2619 497.494 16.2619H501.695Z"
		fill="#859291" />
	<path
		d="M383.966 16.2629C384.64 16.2629 385.189 15.7146 385.189 15.0396V9.98407C385.189 9.30905 384.64 8.76028 383.966 8.76028H379.638C378.963 8.76028 378.414 9.30905 378.414 9.98407V15.0396C378.414 15.7146 378.963 16.2629 379.638 16.2629H383.966Z"
		fill="#859291" />
	<path
		d="M482.896 16.2903C483.672 16.2903 484.304 15.7088 484.304 14.9939V10.0868C484.304 9.37137 483.672 8.79034 482.896 8.79034H468.074C467.297 8.79034 466.665 9.37137 466.665 10.0868V14.9939C466.665 15.7088 467.297 16.2903 468.074 16.2903H482.896Z"
		fill="#859291" />
	<path
		d="M459.763 16.2903C460.539 16.2903 461.171 15.7088 461.171 14.9939V10.0868C461.171 9.37137 460.539 8.79034 459.763 8.79034H444.941C444.164 8.79034 443.532 9.37137 443.532 10.0868V14.9939C443.532 15.7088 444.164 16.2903 444.941 16.2903H459.763Z"
		fill="#859291" />
	<path
		d="M436.63 16.2903C437.406 16.2903 438.038 15.7088 438.038 14.9939V10.0868C438.038 9.37137 437.406 8.79034 436.63 8.79034H421.808C421.031 8.79034 420.399 9.37137 420.399 10.0868V14.9939C420.399 15.7088 421.031 16.2903 421.808 16.2903H436.63Z"
		fill="#859291" />
	<path
		d="M413.609 16.2903C414.324 16.2903 414.905 15.7088 414.905 14.9939V10.0868C414.905 9.37137 414.324 8.79034 413.609 8.79034H399.966C399.251 8.79034 398.67 9.37137 398.67 10.0868V14.9939C398.67 15.7088 399.251 16.2903 399.966 16.2903H413.609Z"
		fill="#859291" />
	<path
		d="M344.593 30.6078H352.088C353.063 30.6078 353.854 29.8177 353.854 28.8424V23.1618C353.854 22.187 353.063 21.3963 352.088 21.3963H344.593C343.619 21.3963 342.828 22.187 342.828 23.1618V28.8424C342.828 29.8177 343.619 30.6078 344.593 30.6078Z"
		fill="#393536" />
	<path
		d="M352.088 30.2508C352.865 30.2508 353.497 29.619 353.497 28.8423V23.1623C353.497 22.3856 352.865 21.7538 352.088 21.7538H344.593C343.817 21.7538 343.185 22.3856 343.185 23.1623V28.8423C343.185 29.619 343.817 30.2508 344.593 30.2508H352.088Z"
		fill="#859291" />
	<path
		d="M578.208 30.2607C578.667 30.2607 579.083 30.046 579.35 29.6724C579.615 29.2983 579.682 28.8346 579.532 28.4008L577.111 21.4089C576.915 20.8448 576.383 20.4658 575.786 20.4658H573.185C572.413 20.4658 571.784 21.0944 571.784 21.8673V28.8592C571.784 29.6322 572.413 30.2607 573.185 30.2607H578.208Z"
		fill="#859291" />
	<path
		d="M579.878 20.4242C582.843 21.341 584.091 22.2105 585.636 23.6367C587.042 24.9346 587.999 26.3307 588.616 27.174C588.899 27.5605 588.624 28.1031 588.146 28.1031H582.836C582.088 25.5836 581.085 22.9717 579.878 20.4242Z"
		fill="#859291" />
	<path
		d="M384.424 41.4081H388.652C389.168 41.4081 389.585 40.9899 389.585 40.4746V27.3969C389.585 26.881 389.168 26.4634 388.652 26.4634H384.424C383.908 26.4634 383.49 26.881 383.49 27.3969V40.4746C383.49 40.9899 383.908 41.4081 384.424 41.4081Z"
		fill="#393536" />
	<path
		d="M388.652 41.0511C388.97 41.0511 389.228 40.7924 389.228 40.4746V27.3968C389.228 27.0785 388.97 26.8203 388.652 26.8203H384.423C384.106 26.8203 383.847 27.0785 383.847 27.3968V40.4746C383.847 40.7924 384.106 41.0511 384.423 41.0511H388.652Z"
		fill="#859291" />
	<path
		d="M374.556 41.4081H378.784C379.3 41.4081 379.718 40.9899 379.718 40.4746V27.3969C379.718 26.881 379.3 26.4634 378.784 26.4634H374.556C374.04 26.4634 373.622 26.881 373.622 27.3969V40.4746C373.622 40.9899 374.04 41.4081 374.556 41.4081Z"
		fill="#393536" />
	<path
		d="M378.784 41.0511C379.102 41.0511 379.361 40.7924 379.361 40.4746V27.3968C379.361 27.0785 379.102 26.8203 378.784 26.8203H374.555C374.238 26.8203 373.979 27.0785 373.979 27.3968V40.4746C373.979 40.7924 374.238 41.0511 374.555 41.0511H378.784Z"
		fill="#859291" />
	<path d="M381.15 49.2646H382.057V23.5675H381.15V49.2646Z" fill="#393536" />
	<path
		d="M372.765 21.7829H390.442C391.997 21.7829 393.263 23.048 393.263 24.603V49.2814H391.478V24.603C391.478 24.0314 391.014 23.5676 390.442 23.5676H372.765C372.193 23.5676 371.729 24.0314 371.729 24.603V49.2814H369.945V24.603C369.945 23.048 371.21 21.7829 372.765 21.7829Z"
		fill="#231F20" />
	<path d="M369.945 49.2813L393.263 49.2812" stroke="#0A0F0C" stroke-width="0.25"
		stroke-miterlimit="10" />
	<path
		d="M502.314 41.4081H506.542C507.058 41.4081 507.475 40.9899 507.475 40.4746V27.3969C507.475 26.881 507.058 26.4634 506.542 26.4634H502.314C501.798 26.4634 501.38 26.881 501.38 27.3969V40.4746C501.38 40.9899 501.798 41.4081 502.314 41.4081Z"
		fill="#393536" />
	<path
		d="M506.542 41.0511C506.86 41.0511 507.118 40.7924 507.118 40.4746V27.3968C507.118 27.0785 506.86 26.8203 506.542 26.8203H502.313C501.996 26.8203 501.737 27.0785 501.737 27.3968V40.4746C501.737 40.7924 501.996 41.0511 502.313 41.0511H506.542Z"
		fill="#859291" />
	<path
		d="M492.446 41.4081H496.674C497.19 41.4081 497.608 40.9899 497.608 40.4746V27.3969C497.608 26.881 497.19 26.4634 496.674 26.4634H492.446C491.93 26.4634 491.512 26.881 491.512 27.3969V40.4746C491.512 40.9899 491.93 41.4081 492.446 41.4081Z"
		fill="#393536" />
	<path
		d="M496.674 41.0511C496.992 41.0511 497.251 40.7924 497.251 40.4746V27.3968C497.251 27.0785 496.992 26.8203 496.674 26.8203H492.445C492.128 26.8203 491.869 27.0785 491.869 27.3968V40.4746C491.869 40.7924 492.128 41.0511 492.445 41.0511H496.674Z"
		fill="#859291" />
	<path d="M499.04 49.2646H499.947V23.5675H499.04V49.2646Z" fill="#393536" />
	<path
		d="M490.655 21.7829H508.332C509.887 21.7829 511.153 23.048 511.153 24.603V49.2814H509.368V24.603C509.368 24.0314 508.904 23.5676 508.332 23.5676H490.655C490.083 23.5676 489.619 24.0314 489.619 24.603V49.2814H487.835V24.603C487.835 23.048 489.1 21.7829 490.655 21.7829Z"
		fill="#231F20" />
	<path d="M487.835 49.2813L511.153 49.2812" stroke="#0A0F0C" stroke-width="0.25"
		stroke-miterlimit="10" />
	<path
		d="M562.603 38.502H554.882C553.908 38.502 553.117 37.7119 553.117 36.7366V23.712C553.117 22.7372 553.908 21.9465 554.882 21.9465H562.603C563.578 21.9465 564.368 22.7372 564.368 23.712V36.7366C564.368 37.7119 563.578 38.502 562.603 38.502Z"
		stroke="#0A0F0C" stroke-width="0.25" stroke-miterlimit="10" />
	<path
		d="M315.991 38.502H308.27C307.296 38.502 306.505 37.7119 306.505 36.7366V23.712C306.505 22.7372 307.296 21.9465 308.27 21.9465H315.991C316.966 21.9465 317.756 22.7372 317.756 23.712V36.7366C317.756 37.7119 316.966 38.502 315.991 38.502Z"
		stroke="#0A0F0C" stroke-width="0.25" stroke-miterlimit="10" />
	<path
		d="M578.241 18.7963C582.499 18.8038 585.357 20.3389 587.591 23.1999C589.044 25.0614 591.912 30.1435 592.924 35.2262M578.241 18.7963C577.047 16.476 575.684 14.242 574.192 12.2213C572.671 10.1615 571.135 8.47164 569.671 7.08584M578.241 18.7963C580.761 23.6891 582.537 28.9655 583.217 33.4348C583.544 35.578 583.711 37.3705 583.723 39.0315M592.924 35.2262C592.853 33.8404 592.711 32.4005 592.475 30.9227C590.661 19.525 581.137 7.44459 574.844 4.03345C568.749 0.730189 560.934 1.1027 560.934 1.1027M592.924 35.2262C592.991 36.5486 592.992 37.8217 592.946 39.0315M570.912 20.7568H300.318M560.934 1.1027C561.832 1.62088 565.449 3.08804 569.671 7.08584M560.934 1.1027H546.523M334.768 7.17353H300.295V46.1121H311.461C311.461 46.1121 311.337 46.2855 312.856 45.5539C314.74 44.6468 316.974 44.4374 334.001 44.4374C351.002 44.4374 351.862 45.1331 355.13 47.7749L355.144 47.7868C356.958 49.2533 360.588 52.4626 360.588 52.4626H519.901C519.901 52.4626 520.878 51.6247 524.786 48.2753C528.694 44.9259 530.299 44.5072 549.698 44.5072C566.377 44.5072 567.982 44.9957 570.424 46.7402C571.901 47.7949 575.867 50.9275 575.867 50.9275H581.416M334.768 7.17353V1.1027C334.768 1.1027 348.645 1.1027 356.863 1.1027M334.768 7.17353H353.333L356.863 1.1027M581.416 50.9275H590.801C590.801 50.9275 592.677 46.0454 592.946 39.0315M581.416 50.9275C582.968 45.9167 583.749 42.8152 583.723 39.0315M592.946 39.0315H583.723M524.47 1.1027L527.464 7.08584H546.523M524.47 1.1027H546.523M524.47 1.1027C524.47 1.1027 422.728 1.1027 356.863 1.1027M569.671 7.08584H546.523M546.523 1.1027V7.08584M588.288 50.9969H579.844V53.0903H588.666L588.288 52.2529V50.9969Z"
		stroke="#0A0F0C" stroke-width="0.25" stroke-miterlimit="10" />
	<path
		d="M359.942 27.3456H363.823C364.042 27.3456 364.221 27.5222 364.221 27.7418V30.2184C364.221 30.439 364.042 30.6172 363.823 30.6172H359.942C359.721 30.6172 359.543 30.439 359.543 30.2184V27.7418C359.543 27.5222 359.721 27.3456 359.942 27.3456Z"
		fill="#EC1C27" />
	<path
		d="M360.017 27.68H363.747C363.819 27.68 363.879 27.7391 363.879 27.8126V30.1486C363.879 30.2222 363.819 30.2823 363.747 30.2823H360.017C359.944 30.2823 359.886 30.2222 359.886 30.1486V27.8126C359.886 27.7391 359.944 27.68 360.017 27.68Z"
		fill="#E3E6E3" />
	<path
		d="M360.182 30.0605H360.898C361.508 30.0605 361.832 29.7846 361.832 28.9902C361.832 28.1678 361.522 27.937 360.898 27.937H360.182V30.0605Z"
		fill="#EC1C27" />
	<path
		d="M360.691 28.2623H360.845C361.194 28.2623 361.339 28.5752 361.339 28.9982C361.339 29.4217 361.202 29.7347 360.845 29.7347H360.691V28.2623Z"
		fill="#E3E6E3" />
	<path
		d="M362.105 30.0605H362.859C363.179 30.0605 363.619 29.9553 363.619 29.4464C363.619 29.1877 363.495 29.0352 363.256 28.9773V28.9703C363.456 28.8925 363.574 28.7432 363.574 28.4743C363.574 28.1099 363.261 27.937 362.927 27.937H362.105V30.0605Z"
		fill="#EC1C27" />
	<path
		d="M362.58 29.1295H362.728C362.892 29.1295 363.11 29.2116 363.11 29.444C363.11 29.6603 362.896 29.7521 362.722 29.7521H362.58V29.1295Z"
		fill="#E3E6E3" />
	<path
		d="M362.58 28.2451H362.72C362.878 28.2451 363.065 28.3556 363.065 28.5515C363.065 28.7308 362.87 28.807 362.714 28.807H362.58V28.2451Z"
		fill="#E3E6E3" />
	<path d="M542.391 34.1889L540.997 41.4416H539.261L540.655 34.1889H542.391Z" fill="#859291" />
	<path
		d="M543.357 40.682C542.807 40.0105 542.645 38.9917 542.893 37.7013C543.498 34.5484 545.646 34.0283 546.862 34.0283C547.506 34.0283 548.115 34.1523 548.588 34.375C548.576 34.4357 548.373 35.506 548.354 35.5994C547.905 35.3814 547.512 35.2575 546.884 35.2575C546.354 35.2575 545.061 35.5242 544.644 37.7013C544.438 38.7733 544.509 39.4893 544.852 39.9107C545.096 40.208 545.466 40.3535 545.983 40.3535C546.498 40.3535 546.989 40.2113 547.596 39.9815C547.572 40.1066 547.371 41.1409 547.364 41.178C547.066 41.3084 546.334 41.5832 545.522 41.5832C544.584 41.5832 543.836 41.2719 543.357 40.682Z"
		fill="#859291" />
	<defs>
		<linearGradient id="paint0_linear_13_4243" x1="36.1193" y1="52.434" x2="36.1193" y2="42.798"
			gradientUnits="userSpaceOnUse">
			<stop stop-color="#231F20" />
			<stop offset="1" />
		</linearGradient>
		<linearGradient id="paint1_linear_13_4243" x1="258.703" y1="52.4341" x2="258.703" y2="42.7981"
			gradientUnits="userSpaceOnUse">
			<stop stop-color="#231F20" />
			<stop offset="1" />
		</linearGradient>
		<linearGradient id="paint2_linear_13_4243" x1="148.011" y1="52.5174" x2="148.011" y2="6.96108"
			gradientUnits="userSpaceOnUse">
			<stop offset="0.0755152" stop-color="#AAABAA" />
			<stop offset="0.310035" stop-color="#DDDDDD" />
			<stop offset="0.73489" stop-color="#DDDDDD" />
			<stop offset="0.952416" stop-color="white" />
		</linearGradient>
		<linearGradient id="paint3_linear_13_4243" x1="147.971" y1="45.6666" x2="147.971" y2="52.4481"
			gradientUnits="userSpaceOnUse">
			<stop stop-color="#4F5756" />
			<stop offset="1" stop-color="#2E3332" />
		</linearGradient>
		<linearGradient id="paint4_linear_13_4243" x1="147.971" y1="45.6666" x2="147.971" y2="52.4481"
			gradientUnits="userSpaceOnUse">
			<stop stop-color="#4F5756" />
			<stop offset="1" stop-color="#2E3332" />
		</linearGradient>
		<linearGradient id="paint5_linear_13_4243" x1="147.971" y1="45.6666" x2="147.971" y2="52.4481"
			gradientUnits="userSpaceOnUse">
			<stop stop-color="#4F5756" />
			<stop offset="1" stop-color="#2E3332" />
		</linearGradient>
		<linearGradient id="paint6_linear_13_4243" x1="148.008" y1="1.15747" x2="148.011" y2="7.25726"
			gradientUnits="userSpaceOnUse">
			<stop stop-color="#8C8C8C" />
			<stop offset="1" stop-color="#4F5756" />
		</linearGradient>
		<linearGradient id="paint7_linear_13_4243" x1="334.157" y1="52.506" x2="334.157" y2="42.87"
			gradientUnits="userSpaceOnUse">
			<stop stop-color="#231F20" />
			<stop offset="1" />
		</linearGradient>
		<linearGradient id="paint8_linear_13_4243" x1="548.928" y1="52.5121" x2="548.928" y2="42.8761"
			gradientUnits="userSpaceOnUse">
			<stop stop-color="#231F20" />
			<stop offset="1" />
		</linearGradient>
		<linearGradient id="paint9_linear_13_4243" x1="446.55" y1="52.3726" x2="446.55" y2="6.80506"
			gradientUnits="userSpaceOnUse">
			<stop offset="0.0755152" stop-color="#AAABAA" />
			<stop offset="0.310035" stop-color="#DDDDDD" />
			<stop offset="0.73489" stop-color="#DDDDDD" />
			<stop offset="0.952416" stop-color="white" />
		</linearGradient>
		<linearGradient id="paint10_linear_13_4243" x1="446.186" y1="45.6467" x2="446.186" y2="53.0565"
			gradientUnits="userSpaceOnUse">
			<stop stop-color="#4F5756" />
			<stop offset="1" stop-color="#2E3332" />
		</linearGradient>
		<linearGradient id="paint11_linear_13_4243" x1="446.186" y1="45.6467" x2="446.186" y2="53.0565"
			gradientUnits="userSpaceOnUse">
			<stop stop-color="#4F5756" />
			<stop offset="1" stop-color="#2E3332" />
		</linearGradient>
		<linearGradient id="paint12_linear_13_4243" x1="446.186" y1="45.6467" x2="446.186" y2="53.0565"
			gradientUnits="userSpaceOnUse">
			<stop stop-color="#4F5756" />
			<stop offset="1" stop-color="#2E3332" />
		</linearGradient>
		<linearGradient id="paint13_linear_13_4243" x1="446.186" y1="45.6467" x2="446.186" y2="53.0565"
			gradientUnits="userSpaceOnUse">
			<stop stop-color="#4F5756" />
			<stop offset="1" stop-color="#2E3332" />
		</linearGradient>
		<linearGradient id="paint14_linear_13_4243" x1="460.694" y1="1.05579" x2="460.685" y2="7.06302"
			gradientUnits="userSpaceOnUse">
			<stop stop-color="#8C8C8C" />
			<stop offset="1" stop-color="#4F5756" />
		</linearGradient>
		<linearGradient id="paint15_linear_13_4243" x1="568.826" y1="8.90875" x2="570.314" y2="2.05553"
			gradientUnits="userSpaceOnUse">
			<stop stop-color="#231F20" />
			<stop offset="1" stop-color="#404040" />
		</linearGradient>
	</defs>
</svg>
