<svg width="601" height="70" viewBox="0 0 601 70" fill="none" xmlns="http://www.w3.org/2000/svg">
	<path d="M69.5479 61.506H4.62964V51.87H69.5479V61.506Z" fill="#231F20" />
	<path d="M46.4423 62.4344V61.1806H40.3548H29.9233H24.7478V62.4344H46.4423Z" fill="#393536"
		stroke="#231F20" stroke-width="0.25" />
	<path
		d="M26.2946 53.745L31.9998 59.0091C32.0675 59.0939 32.1501 59.1401 32.2355 59.1401H32.7245H33.4942H38.0529H38.8227H39.3111C39.3965 59.1401 39.4797 59.0939 39.5473 59.0091L45.2526 53.745H49.0615L49.0674 55.1396C46.3422 55.1396 45.8071 55.3913 45.8071 55.3913C45.7287 55.3913 45.6536 55.4461 45.6015 55.5421L40.3084 62.482C40.1989 62.6843 40.0422 62.7997 39.878 62.7997H39.1737H38.0529H33.4942H32.3734H31.6692C31.5044 62.7997 31.3482 62.6843 31.2382 62.482L25.9457 55.5421C25.8936 55.4461 25.8184 55.3913 25.7401 55.3913C25.7401 55.3913 24.0944 55.1396 21.3692 55.1396L21.3531 53.745H26.2946Z"
		fill="#393536" stroke="#231F20" stroke-width="0.25" />
	<path
		d="M26.5282 59.309C26.5282 56.214 24.0194 53.7046 20.9238 53.7046C17.8294 53.7046 15.32 56.214 15.32 59.309C15.32 62.4039 17.8294 64.9133 20.9238 64.9133C24.0194 64.9133 26.5282 62.4039 26.5282 59.309Z"
		fill="#393536" stroke="#231F20" stroke-width="0.25" />
	<path
		d="M20.9243 63.9296C23.4723 63.9296 25.5448 61.8566 25.5448 59.3086C25.5448 56.7606 23.4723 54.6887 20.9243 54.6887C18.3763 54.6887 16.3033 56.7606 16.3033 59.3086C16.3033 61.8566 18.3763 63.9296 20.9243 63.9296Z"
		fill="#231F20" />
	<path
		d="M20.9243 62.0853C22.4551 62.0853 23.7004 60.8395 23.7004 59.3086C23.7004 57.7778 22.4551 56.533 20.9243 56.533C19.3934 56.533 18.1476 57.7778 18.1476 59.3086C18.1476 60.8395 19.3934 62.0853 20.9243 62.0853Z"
		fill="#393536" />
	<path
		d="M20.9243 62.0853C22.4551 62.0853 23.7004 60.8395 23.7004 59.3086C23.7004 57.7778 22.4551 56.533 20.9243 56.533C19.3934 56.533 18.1476 57.7778 18.1476 59.3086C18.1476 60.8395 19.3934 62.0853 20.9243 62.0853Z"
		stroke="#231F20" stroke-width="0.25" stroke-linecap="round" />
	<path
		d="M20.9242 61.2246C21.9806 61.2246 22.84 60.3652 22.84 59.3089C22.84 58.2525 21.9806 57.3932 20.9242 57.3932C19.8679 57.3932 19.0085 58.2525 19.0085 59.3089C19.0085 60.3652 19.8679 61.2246 20.9242 61.2246Z"
		fill="#231F20" />
	<path
		d="M20.9242 61.2246C21.9806 61.2246 22.84 60.3652 22.84 59.3089C22.84 58.2525 21.9806 57.3932 20.9242 57.3932C19.8679 57.3932 19.0085 58.2525 19.0085 59.3089C19.0085 60.3652 19.8679 61.2246 20.9242 61.2246Z"
		stroke="#231F20" stroke-width="0.25" stroke-linecap="round" />
	<path
		d="M20.9243 60.8557C21.7772 60.8557 22.4707 60.1622 22.4707 59.3088C22.4707 58.4558 21.7772 57.7623 20.9243 57.7623C20.0708 57.7623 19.3773 58.4558 19.3773 59.3088C19.3773 60.1622 20.0708 60.8557 20.9243 60.8557Z"
		fill="#393536" />
	<path
		d="M20.9243 60.8557C21.7772 60.8557 22.4707 60.1622 22.4707 59.3088C22.4707 58.4558 21.7772 57.7623 20.9243 57.7623C20.0708 57.7623 19.3773 58.4558 19.3773 59.3088C19.3773 60.1622 20.0708 60.8557 20.9243 60.8557Z"
		stroke="#231F20" stroke-width="0.25" stroke-linecap="round" />
	<path
		d="M44.71 59.309C44.71 56.214 47.2188 53.7046 50.3144 53.7046C53.4088 53.7046 55.9182 56.214 55.9182 59.309C55.9182 62.4039 53.4088 64.9133 50.3144 64.9133C47.2188 64.9133 44.71 62.4039 44.71 59.309Z"
		fill="#393536" stroke="#231F20" stroke-width="0.25" />
	<path
		d="M50.314 63.9296C47.766 63.9296 45.6936 61.8566 45.6936 59.3086C45.6936 56.7606 47.766 54.6887 50.314 54.6887C52.8621 54.6887 54.9351 56.7606 54.9351 59.3086C54.9351 61.8566 52.8621 63.9296 50.314 63.9296Z"
		fill="#231F20" />
	<path
		d="M50.314 62.0853C48.7832 62.0853 47.5379 60.8395 47.5379 59.3086C47.5379 57.7778 48.7832 56.533 50.314 56.533C51.8449 56.533 53.0907 57.7778 53.0907 59.3086C53.0907 60.8395 51.8449 62.0853 50.314 62.0853Z"
		fill="#393536" />
	<path
		d="M50.314 62.0853C48.7832 62.0853 47.5379 60.8395 47.5379 59.3086C47.5379 57.7778 48.7832 56.533 50.314 56.533C51.8449 56.533 53.0907 57.7778 53.0907 59.3086C53.0907 60.8395 51.8449 62.0853 50.314 62.0853Z"
		stroke="#231F20" stroke-width="0.25" stroke-linecap="round" />
	<path
		d="M50.314 61.2246C49.2577 61.2246 48.3983 60.3652 48.3983 59.3089C48.3983 58.2525 49.2577 57.3932 50.314 57.3932C51.3704 57.3932 52.2297 58.2525 52.2297 59.3089C52.2297 60.3652 51.3704 61.2246 50.314 61.2246Z"
		fill="#231F20" />
	<path
		d="M50.314 61.2246C49.2577 61.2246 48.3983 60.3652 48.3983 59.3089C48.3983 58.2525 49.2577 57.3932 50.314 57.3932C51.3704 57.3932 52.2297 58.2525 52.2297 59.3089C52.2297 60.3652 51.3704 61.2246 50.314 61.2246Z"
		stroke="#231F20" stroke-width="0.25" stroke-linecap="round" />
	<path
		d="M50.314 60.8557C49.4611 60.8557 48.7676 60.1622 48.7676 59.3088C48.7676 58.4558 49.4611 57.7623 50.314 57.7623C51.1675 57.7623 51.861 58.4558 51.861 59.3088C51.861 60.1622 51.1675 60.8557 50.314 60.8557Z"
		fill="#393536" />
	<path
		d="M50.314 60.8557C49.4611 60.8557 48.7676 60.1622 48.7676 59.3088C48.7676 58.4558 49.4611 57.7623 50.314 57.7623C51.1675 57.7623 51.861 58.4558 51.861 59.3088C51.861 60.1622 51.1675 60.8557 50.314 60.8557Z"
		stroke="#231F20" stroke-width="0.25" stroke-linecap="round" />
	<path
		d="M36.2503 56.1802H37.5998L37.6228 59.0836L38.6926 59.1072L38.9089 60.4201H37.1113L36.2503 58.7116V56.1802Z"
		fill="#393536" stroke="#231F20" stroke-width="0.25" />
	<path d="M37.0789 56.5239L37.0638 57.4503L27.6924 57.4272L27.7075 56.5009L37.0789 56.5239Z"
		fill="#393536" stroke="#231F20" stroke-width="0.25" />
	<path d="M37.0789 57.8486L37.0638 58.7747L27.6924 58.7516L27.7075 57.8256L37.0789 57.8486Z"
		fill="#393536" stroke="#231F20" stroke-width="0.25" />
	<path d="M291.341 61.5121H231.095V51.8761H291.341V61.5121Z" fill="#231F20" />
	<path d="M270.63 62.4404V61.1865H264.543H254.111H248.936V62.4404H270.63Z" fill="#393536"
		stroke="#231F20" stroke-width="0.25" />
	<path
		d="M250.483 53.751L256.188 59.0151C256.255 59.0999 256.338 59.1461 256.423 59.1461H256.912H257.682H262.241H263.011H263.499C263.584 59.1461 263.668 59.0999 263.735 59.0151L269.441 53.751H273.249L273.255 55.1455C270.53 55.1455 269.995 55.3973 269.995 55.3973C269.917 55.3973 269.842 55.452 269.789 55.5481L264.496 62.488C264.387 62.6903 264.23 62.8057 264.066 62.8057H263.362H262.241H257.682H256.561H255.857C255.692 62.8057 255.536 62.6903 255.426 62.488L250.134 55.5481C250.082 55.452 250.006 55.3973 249.928 55.3973C249.928 55.3973 248.282 55.1455 245.557 55.1455L245.541 53.751H250.483Z"
		fill="#393536" stroke="#231F20" stroke-width="0.25" />
	<path
		d="M250.716 59.3149C250.716 56.2199 248.207 53.7106 245.112 53.7106C242.017 53.7106 239.508 56.2199 239.508 59.3149C239.508 62.4099 242.017 64.9193 245.112 64.9193C248.207 64.9193 250.716 62.4099 250.716 59.3149Z"
		fill="#393536" stroke="#231F20" stroke-width="0.25" />
	<path
		d="M245.112 63.9356C247.66 63.9356 249.733 61.8626 249.733 59.3146C249.733 56.7666 247.66 54.6946 245.112 54.6946C242.564 54.6946 240.491 56.7666 240.491 59.3146C240.491 61.8626 242.564 63.9356 245.112 63.9356Z"
		fill="#231F20" />
	<path
		d="M245.112 62.0913C246.643 62.0913 247.888 60.8455 247.888 59.3146C247.888 57.7838 246.643 56.539 245.112 56.539C243.581 56.539 242.336 57.7838 242.336 59.3146C242.336 60.8455 243.581 62.0913 245.112 62.0913Z"
		fill="#393536" />
	<path
		d="M245.112 62.0913C246.643 62.0913 247.888 60.8455 247.888 59.3146C247.888 57.7838 246.643 56.539 245.112 56.539C243.581 56.539 242.336 57.7838 242.336 59.3146C242.336 60.8455 243.581 62.0913 245.112 62.0913Z"
		stroke="#231F20" stroke-width="0.25" stroke-linecap="round" />
	<path
		d="M245.112 61.2306C246.169 61.2306 247.028 60.3712 247.028 59.3149C247.028 58.2585 246.169 57.3992 245.112 57.3992C244.056 57.3992 243.197 58.2585 243.197 59.3149C243.197 60.3712 244.056 61.2306 245.112 61.2306Z"
		fill="#231F20" />
	<path
		d="M245.112 61.2306C246.169 61.2306 247.028 60.3712 247.028 59.3149C247.028 58.2585 246.169 57.3992 245.112 57.3992C244.056 57.3992 243.197 58.2585 243.197 59.3149C243.197 60.3712 244.056 61.2306 245.112 61.2306Z"
		stroke="#231F20" stroke-width="0.25" stroke-linecap="round" />
	<path
		d="M245.112 60.8617C245.965 60.8617 246.659 60.1682 246.659 59.3147C246.659 58.4618 245.965 57.7683 245.112 57.7683C244.259 57.7683 243.565 58.4618 243.565 59.3147C243.565 60.1682 244.259 60.8617 245.112 60.8617Z"
		fill="#393536" />
	<path
		d="M245.112 60.8617C245.965 60.8617 246.659 60.1682 246.659 59.3147C246.659 58.4618 245.965 57.7683 245.112 57.7683C244.259 57.7683 243.565 58.4618 243.565 59.3147C243.565 60.1682 244.259 60.8617 245.112 60.8617Z"
		stroke="#231F20" stroke-width="0.25" stroke-linecap="round" />
	<path
		d="M268.898 59.3149C268.898 56.2199 271.407 53.7106 274.502 53.7106C277.597 53.7106 280.106 56.2199 280.106 59.3149C280.106 62.4099 277.597 64.9193 274.502 64.9193C271.407 64.9193 268.898 62.4099 268.898 59.3149Z"
		fill="#393536" stroke="#231F20" stroke-width="0.25" />
	<path
		d="M274.502 63.9356C271.954 63.9356 269.882 61.8626 269.882 59.3146C269.882 56.7666 271.954 54.6946 274.502 54.6946C277.05 54.6946 279.123 56.7666 279.123 59.3146C279.123 61.8626 277.05 63.9356 274.502 63.9356Z"
		fill="#231F20" />
	<path
		d="M274.502 62.0913C272.971 62.0913 271.726 60.8455 271.726 59.3146C271.726 57.7838 272.971 56.539 274.502 56.539C276.033 56.539 277.279 57.7838 277.279 59.3146C277.279 60.8455 276.033 62.0913 274.502 62.0913Z"
		fill="#393536" />
	<path
		d="M274.502 62.0913C272.971 62.0913 271.726 60.8455 271.726 59.3146C271.726 57.7838 272.971 56.539 274.502 56.539C276.033 56.539 277.279 57.7838 277.279 59.3146C277.279 60.8455 276.033 62.0913 274.502 62.0913Z"
		stroke="#231F20" stroke-width="0.25" stroke-linecap="round" />
	<path
		d="M274.502 61.2306C273.446 61.2306 272.586 60.3712 272.586 59.3149C272.586 58.2585 273.446 57.3992 274.502 57.3992C275.558 57.3992 276.418 58.2585 276.418 59.3149C276.418 60.3712 275.558 61.2306 274.502 61.2306Z"
		fill="#231F20" />
	<path
		d="M274.502 61.2306C273.446 61.2306 272.586 60.3712 272.586 59.3149C272.586 58.2585 273.446 57.3992 274.502 57.3992C275.558 57.3992 276.418 58.2585 276.418 59.3149C276.418 60.3712 275.558 61.2306 274.502 61.2306Z"
		stroke="#231F20" stroke-width="0.25" stroke-linecap="round" />
	<path
		d="M274.502 60.8617C273.649 60.8617 272.956 60.1682 272.956 59.3147C272.956 58.4618 273.649 57.7683 274.502 57.7683C275.355 57.7683 276.049 58.4618 276.049 59.3147C276.049 60.1682 275.355 60.8617 274.502 60.8617Z"
		fill="#393536" />
	<path
		d="M274.502 60.8617C273.649 60.8617 272.956 60.1682 272.956 59.3147C272.956 58.4618 273.649 57.7683 274.502 57.7683C275.355 57.7683 276.049 58.4618 276.049 59.3147C276.049 60.1682 275.355 60.8617 274.502 60.8617Z"
		stroke="#231F20" stroke-width="0.25" stroke-linecap="round" />
	<path
		d="M260.438 56.1862H261.788L261.811 59.0895L262.881 59.1132L263.097 60.4261H261.299L260.438 58.7176V56.1862Z"
		fill="#393536" stroke="#231F20" stroke-width="0.25" />
	<path d="M261.267 56.5299L261.252 57.4562L251.88 57.4332L251.895 56.5068L261.267 56.5299Z"
		fill="#393536" stroke="#231F20" stroke-width="0.25" />
	<path d="M261.267 57.8546L261.252 58.7806L251.88 58.7576L251.895 57.8315L261.267 57.8546Z"
		fill="#393536" stroke="#231F20" stroke-width="0.25" />
	<path d="M4.83765 56.5389H0.0867567V22.8724H4.83765V56.5389Z" fill="#393536" />
	<path
		d="M0.984192 56.9938C0.984192 57.121 0.864493 57.2246 0.718493 57.2246C0.572492 57.2246 0.452794 57.121 0.452794 56.9938V22.3697C0.452794 22.243 0.572492 22.1389 0.718493 22.1389C0.864493 22.1389 0.984192 22.243 0.984192 22.3697V56.9938Z"
		fill="#595757" />
	<path
		d="M2.03027 56.9938C2.03027 57.121 1.91057 57.2246 1.76457 57.2246C1.61857 57.2246 1.49888 57.121 1.49888 56.9938V22.3697C1.49888 22.243 1.61857 22.1389 1.76457 22.1389C1.91057 22.1389 2.03027 22.243 2.03027 22.3697V56.9938Z"
		fill="#595757" />
	<path
		d="M3.07654 56.9938C3.07654 57.121 2.95684 57.2246 2.81084 57.2246C2.66377 57.2246 2.54514 57.121 2.54514 56.9938V22.3697C2.54514 22.243 2.66377 22.1389 2.81084 22.1389C2.95684 22.1389 3.07654 22.243 3.07654 22.3697V56.9938Z"
		fill="#595757" />
	<path
		d="M4.12268 56.9938C4.12268 57.121 4.00298 57.2246 3.85698 57.2246C3.71098 57.2246 3.59128 57.121 3.59128 56.9938V22.3697C3.59128 22.243 3.71098 22.1389 3.85698 22.1389C4.00298 22.1389 4.12268 22.243 4.12268 22.3697V56.9938Z"
		fill="#595757" />
	<path d="M296.092 56.5389H291.341V22.8724H296.092V56.5389Z" fill="#393536" />
	<path
		d="M292.484 56.9938C292.484 57.121 292.364 57.2246 292.218 57.2246C292.072 57.2246 291.952 57.121 291.952 56.9938V22.3697C291.952 22.243 292.072 22.1389 292.218 22.1389C292.364 22.1389 292.484 22.243 292.484 22.3697V56.9938Z"
		fill="#595757" />
	<path
		d="M293.53 56.9938C293.53 57.121 293.41 57.2246 293.264 57.2246C293.118 57.2246 292.998 57.121 292.998 56.9938V22.3697C292.998 22.243 293.118 22.1389 293.264 22.1389C293.41 22.1389 293.53 22.243 293.53 22.3697V56.9938Z"
		fill="#595757" />
	<path
		d="M294.576 56.9938C294.576 57.121 294.456 57.2246 294.31 57.2246C294.163 57.2246 294.045 57.121 294.045 56.9938V22.3697C294.045 22.243 294.163 22.1389 294.31 22.1389C294.456 22.1389 294.576 22.243 294.576 22.3697V56.9938Z"
		fill="#595757" />
	<path
		d="M295.622 56.9938C295.622 57.121 295.502 57.2246 295.356 57.2246C295.21 57.2246 295.091 57.121 295.091 56.9938V22.3697C295.091 22.243 295.21 22.1389 295.356 22.1389C295.502 22.1389 295.622 22.243 295.622 22.3697V56.9938Z"
		fill="#595757" />
	<path
		d="M291.255 10.2295H202.003H93.8867H4.63486V55.2389H17.2553C17.2553 55.2389 17.1313 55.4123 18.6509 54.6807C20.5355 53.7741 18.6144 53.5648 35.6412 53.5648C52.6685 53.5648 53.5058 54.2626 56.7854 56.9142C58.5986 58.3806 62.2283 61.5894 62.2283 61.5894H93.8867H202.003H233.662C233.662 61.5894 237.291 58.3806 239.104 56.9142C242.384 54.2626 243.221 53.5648 260.249 53.5648C277.275 53.5648 275.354 53.7741 277.239 54.6807C278.758 55.4123 278.635 55.2389 278.635 55.2389H291.255V10.2295Z"
		fill="#E3E6E3" />
	<path d="M4.75116 39.6636H291.232V36.392H4.75116V39.6636Z" fill="#ED1C24" />
	<path d="M291.255 16.3293V10.2295H4.63486V16.3293H291.255Z" fill="#4F5756" />
	<path d="M278.635 55.2393H291.18V54.739H277.36C278.747 55.4003 278.635 55.2393 278.635 55.2393Z"
		fill="#4F5756" />
	<path d="M18.5296 54.739H4.62961V55.2393H17.231C17.231 55.2393 17.1172 55.4003 18.5296 54.739Z"
		fill="#4F5756" />
	<path
		d="M239.104 56.9142C240.295 55.9512 241.168 55.247 242.607 54.7386H53.2829C54.7225 55.247 55.5942 55.9512 56.7853 56.9142C58.4498 58.2604 61.636 61.0666 62.1502 61.5201H233.74C234.253 61.0666 237.44 58.2604 239.104 56.9142Z"
		fill="#4F5756" />
	<path
		d="M21.893 39.6241H12.8882C11.9129 39.6241 11.1223 38.834 11.1223 37.8587V32.1781C11.1223 31.2034 11.9129 30.4127 12.8882 30.4127H21.893C22.8678 30.4127 23.6584 31.2034 23.6584 32.1781V37.8587C23.6584 38.834 22.8678 39.6241 21.893 39.6241Z"
		fill="#393536" stroke="#231F20" stroke-width="0.25" />
	<path
		d="M11.4795 37.8587V32.1787C11.4795 31.4004 12.1102 30.7702 12.888 30.7702H21.8928C22.6711 30.7702 23.3013 31.4004 23.3013 32.1787V37.8587C23.3013 38.6365 22.6711 39.2672 21.8928 39.2672H12.888C12.1102 39.2672 11.4795 38.6365 11.4795 37.8587Z"
		fill="#859291" />
	<path
		d="M40.0859 39.6241H31.0811C30.1058 39.6241 29.3152 38.834 29.3152 37.8587V32.1781C29.3152 31.2034 30.1058 30.4127 31.0811 30.4127H40.0859C41.0607 30.4127 41.8513 31.2034 41.8513 32.1781V37.8587C41.8513 38.834 41.0607 39.6241 40.0859 39.6241Z"
		fill="#393536" stroke="#231F20" stroke-width="0.25" />
	<path
		d="M29.6724 37.8587V32.1787C29.6724 31.4004 30.3031 30.7702 31.0809 30.7702H40.0857C40.864 30.7702 41.4941 31.4004 41.4941 32.1787V37.8587C41.4941 38.6365 40.864 39.2672 40.0857 39.2672H31.0809C30.3031 39.2672 29.6724 38.6365 29.6724 37.8587Z"
		fill="#859291" />
	<path
		d="M256.126 39.7294H250.833C250.145 39.7294 249.586 39.1712 249.586 38.4825V31.6538C249.586 30.9651 250.145 30.4069 250.833 30.4069H256.126C256.815 30.4069 257.373 30.9651 257.373 31.6538V38.4825C257.373 39.1712 256.815 39.7294 256.126 39.7294Z"
		fill="#393536" stroke="#231F20" stroke-width="0.25" />
	<path
		d="M250.062 38.4826V31.6539C250.062 31.2277 250.408 30.8826 250.833 30.8826H256.126C256.552 30.8826 256.897 31.2277 256.897 31.6539V38.4826C256.897 38.9083 256.552 39.2534 256.127 39.2534H250.833C250.407 39.2534 250.062 38.9083 250.062 38.4826Z"
		fill="#859291" />
	<path
		d="M199.474 50.7193H96.6547C95.4663 50.7193 94.5028 49.7558 94.5028 48.5669V43.2411C94.5028 42.0527 95.4663 41.0892 96.6547 41.0892H199.474C200.663 41.0892 201.627 42.0527 201.627 43.2411V48.5669C201.627 49.7558 200.663 50.7193 199.474 50.7193Z"
		fill="#231F20" stroke="#0A0F0C" stroke-width="0.25" stroke-miterlimit="10" />
	<path
		d="M110.383 50.3652H96.8437C95.8689 50.3652 95.0783 49.5751 95.0783 48.5998V43.2681C95.0783 42.2933 95.8689 41.5032 96.8437 41.5032H110.383C111.357 41.5032 112.148 42.2933 112.148 43.2681V48.5998C112.148 49.5751 111.357 50.3652 110.383 50.3652Z"
		fill="#393536" />
	<path
		d="M95.4351 48.5996V43.2685C95.4351 42.4902 96.0658 41.86 96.8436 41.86H110.382C111.161 41.86 111.791 42.4902 111.791 43.2685V48.5996C111.791 49.3774 111.161 50.0081 110.382 50.0081H96.8436C96.0658 50.0081 95.4351 49.3774 95.4351 48.5996Z"
		fill="#859291" />
	<path
		d="M132.629 50.3652H119.09C118.115 50.3652 117.325 49.5751 117.325 48.5998V43.2681C117.325 42.2933 118.115 41.5032 119.09 41.5032H132.629C133.604 41.5032 134.394 42.2933 134.394 43.2681V48.5998C134.394 49.5751 133.604 50.3652 132.629 50.3652Z"
		fill="#393536" />
	<path
		d="M117.682 48.5996V43.2685C117.682 42.4902 118.312 41.86 119.09 41.86H132.629C133.407 41.86 134.037 42.4902 134.037 43.2685V48.5996C134.037 49.3774 133.407 50.0081 132.629 50.0081H119.09C118.312 50.0081 117.682 49.3774 117.682 48.5996Z"
		fill="#859291" />
	<path
		d="M154.876 50.3652H141.337C140.362 50.3652 139.571 49.5751 139.571 48.5998V43.2681C139.571 42.2933 140.362 41.5032 141.337 41.5032H154.876C155.85 41.5032 156.641 42.2933 156.641 43.2681V48.5998C156.641 49.5751 155.85 50.3652 154.876 50.3652Z"
		fill="#393536" />
	<path
		d="M139.928 48.5996V43.2685C139.928 42.4902 140.559 41.86 141.337 41.86H154.876C155.654 41.86 156.284 42.4902 156.284 43.2685V48.5996C156.284 49.3774 155.654 50.0081 154.876 50.0081H141.337C140.559 50.0081 139.928 49.3774 139.928 48.5996Z"
		fill="#859291" />
	<path
		d="M177.122 50.3652H163.583C162.609 50.3652 161.818 49.5751 161.818 48.5998V43.2681C161.818 42.2933 162.609 41.5032 163.583 41.5032H177.122C178.097 41.5032 178.888 42.2933 178.888 43.2681V48.5998C178.888 49.5751 178.097 50.3652 177.122 50.3652Z"
		fill="#393536" />
	<path
		d="M162.175 48.5996V43.2685C162.175 42.4902 162.805 41.86 163.583 41.86H177.122C177.9 41.86 178.531 42.4902 178.531 43.2685V48.5996C178.531 49.3774 177.9 50.0081 177.122 50.0081H163.583C162.805 50.0081 162.175 49.3774 162.175 48.5996Z"
		fill="#859291" />
	<path
		d="M199.369 50.3652H185.83C184.855 50.3652 184.064 49.5751 184.064 48.5998V43.2681C184.064 42.2933 184.855 41.5032 185.83 41.5032H199.369C200.343 41.5032 201.134 42.2933 201.134 43.2681V48.5998C201.134 49.5751 200.343 50.3652 199.369 50.3652Z"
		fill="#393536" />
	<path
		d="M184.421 48.5996V43.2685C184.421 42.4902 185.052 41.86 185.83 41.86H199.369C200.147 41.86 200.777 42.4902 200.777 43.2685V48.5996C200.777 49.3774 200.147 50.0081 199.369 50.0081H185.83C185.052 50.0081 184.421 49.3774 184.421 48.5996Z"
		fill="#859291" />
	<path
		d="M218.734 26.4063H77.325C76.1366 26.4063 75.1726 25.4428 75.1726 24.2539V18.9281C75.1726 17.7397 76.1366 16.7767 77.325 16.7767H218.734C219.923 16.7767 220.887 17.7397 220.887 18.9281V24.2539C220.887 25.4428 219.923 26.4063 218.734 26.4063Z"
		fill="#231F20" stroke="#0A0F0C" stroke-width="0.25" stroke-miterlimit="10" />
	<path
		d="M110.383 26.0809H96.8437C95.8689 26.0809 95.0783 25.2908 95.0783 24.3154V18.9838C95.0783 18.009 95.8689 17.2189 96.8437 17.2189H110.383C111.357 17.2189 112.148 18.009 112.148 18.9838V24.3154C112.148 25.2908 111.357 26.0809 110.383 26.0809Z"
		fill="#393536" />
	<path
		d="M95.4351 24.3153V18.9841C95.4351 18.2058 96.0658 17.5756 96.8436 17.5756H110.382C111.161 17.5756 111.791 18.2058 111.791 18.9841V24.3153C111.791 25.0931 111.161 25.7238 110.382 25.7238H96.8436C96.0658 25.7238 95.4351 25.0931 95.4351 24.3153Z"
		fill="#859291" />
	<path
		d="M132.629 26.0809H119.09C118.115 26.0809 117.325 25.2908 117.325 24.3154V18.9838C117.325 18.009 118.115 17.2189 119.09 17.2189H132.629C133.604 17.2189 134.394 18.009 134.394 18.9838V24.3154C134.394 25.2908 133.604 26.0809 132.629 26.0809Z"
		fill="#393536" />
	<path
		d="M117.682 24.3153V18.9841C117.682 18.2058 118.312 17.5756 119.09 17.5756H132.629C133.407 17.5756 134.037 18.2058 134.037 18.9841V24.3153C134.037 25.0931 133.407 25.7238 132.629 25.7238H119.09C118.312 25.7238 117.682 25.0931 117.682 24.3153Z"
		fill="#859291" />
	<path
		d="M154.876 26.0809H141.337C140.362 26.0809 139.571 25.2908 139.571 24.3154V18.9838C139.571 18.009 140.362 17.2189 141.337 17.2189H154.876C155.85 17.2189 156.641 18.009 156.641 18.9838V24.3154C156.641 25.2908 155.85 26.0809 154.876 26.0809Z"
		fill="#393536" />
	<path
		d="M139.928 24.3153V18.9841C139.928 18.2058 140.559 17.5756 141.337 17.5756H154.876C155.654 17.5756 156.284 18.2058 156.284 18.9841V24.3153C156.284 25.0931 155.654 25.7238 154.876 25.7238H141.337C140.559 25.7238 139.928 25.0931 139.928 24.3153Z"
		fill="#859291" />
	<path
		d="M177.122 26.0809H163.583C162.609 26.0809 161.818 25.2908 161.818 24.3154V18.9838C161.818 18.009 162.609 17.2189 163.583 17.2189H177.122C178.097 17.2189 178.888 18.009 178.888 18.9838V24.3154C178.888 25.2908 178.097 26.0809 177.122 26.0809Z"
		fill="#393536" />
	<path
		d="M162.175 24.3153V18.9841C162.175 18.2058 162.805 17.5756 163.583 17.5756H177.122C177.9 17.5756 178.531 18.2058 178.531 18.9841V24.3153C178.531 25.0931 177.9 25.7238 177.122 25.7238H163.583C162.805 25.7238 162.175 25.0931 162.175 24.3153Z"
		fill="#859291" />
	<path
		d="M199.369 26.0809H185.83C184.855 26.0809 184.064 25.2908 184.064 24.3154V18.9838C184.064 18.009 184.855 17.2189 185.83 17.2189H199.369C200.343 17.2189 201.134 18.009 201.134 18.9838V24.3154C201.134 25.2908 200.343 26.0809 199.369 26.0809Z"
		fill="#393536" />
	<path
		d="M184.421 24.3153V18.9841C184.421 18.2058 185.052 17.5756 185.83 17.5756H199.369C200.147 17.5756 200.777 18.2058 200.777 18.9841V24.3153C200.777 25.0931 200.147 25.7238 199.369 25.7238H185.83C185.052 25.7238 184.421 25.0931 184.421 24.3153Z"
		fill="#859291" />
	<path
		d="M77.5352 26.0236H82.0988C83.0741 26.0236 83.8647 25.2334 83.8647 24.2581V18.9264C83.8647 17.9517 83.0741 17.1616 82.0988 17.1616H77.5352C76.5604 17.1616 75.7698 17.9517 75.7698 18.9264V24.2581C75.7698 25.2334 76.5604 26.0236 77.5352 26.0236Z"
		fill="#393536" />
	<path
		d="M83.3887 24.2581V18.9269C83.3887 18.2146 82.8111 17.6371 82.0988 17.6371H77.5352C76.823 17.6371 76.2454 18.2146 76.2454 18.9269V24.2581C76.2454 24.9704 76.823 25.5479 77.5352 25.5479H82.0988C82.8111 25.5479 83.3887 24.9704 83.3887 24.2581Z"
		fill="#859291" />
	<path
		d="M218.524 26.0236H213.961C212.985 26.0236 212.195 25.2334 212.195 24.2581V18.9264C212.195 17.9517 212.985 17.1616 213.961 17.1616H218.524C219.499 17.1616 220.29 17.9517 220.29 18.9264V24.2581C220.29 25.2334 219.499 26.0236 218.524 26.0236Z"
		fill="#393536" />
	<path
		d="M212.671 24.2581V18.9269C212.671 18.2146 213.248 17.6371 213.961 17.6371H218.524C219.237 17.6371 219.814 18.2146 219.814 18.9269V24.2581C219.814 24.9704 219.237 25.5479 218.524 25.5479H213.961C213.248 25.5479 212.671 24.9704 212.671 24.2581Z"
		fill="#859291" />
	<path
		d="M142.296 38.6594V37.4296C142.296 37.3352 142.373 37.259 142.467 37.259H153.745C153.84 37.259 153.916 37.3352 153.916 37.4291V38.6594C153.916 38.7533 153.84 38.8295 153.745 38.8295H142.467C142.373 38.8295 142.296 38.7533 142.296 38.6594Z"
		fill="#656263" />
	<path
		d="M142.296 38.6595V37.4297C142.296 37.3353 142.373 37.259 142.467 37.259H153.745C153.84 37.259 153.916 37.3353 153.916 37.4292V38.6595C153.916 38.7534 153.84 38.8296 153.745 38.8296H142.467C142.373 38.8296 142.296 38.7534 142.296 38.6595Z"
		stroke="#0A0F0C" stroke-width="0.25" stroke-miterlimit="10" />
	<path
		d="M120.05 38.6594V37.4296C120.05 37.3352 120.126 37.259 120.221 37.259H131.498C131.593 37.259 131.669 37.3352 131.669 37.4291V38.6594C131.669 38.7533 131.593 38.8295 131.498 38.8295H120.22C120.126 38.8295 120.05 38.7533 120.05 38.6594Z"
		fill="#656263" />
	<path
		d="M120.05 38.6595V37.4297C120.05 37.3353 120.126 37.259 120.221 37.259H131.498C131.593 37.259 131.669 37.3353 131.669 37.4292V38.6595C131.669 38.7534 131.593 38.8296 131.498 38.8296H120.22C120.126 38.8296 120.05 38.7534 120.05 38.6595Z"
		stroke="#0A0F0C" stroke-width="0.25" stroke-miterlimit="10" />
	<path
		d="M82.7409 50.4081H86.9696C87.4849 50.4081 87.9025 49.9899 87.9025 49.4746V36.3969C87.9025 35.881 87.4849 35.4634 86.9696 35.4634H82.7409C82.2256 35.4634 81.8075 35.881 81.8075 36.3969V49.4746C81.8075 49.9899 82.2256 50.4081 82.7409 50.4081Z"
		fill="#393536" />
	<path
		d="M86.9693 50.0511C87.2871 50.0511 87.5458 49.7924 87.5458 49.4746V36.3968C87.5458 36.0785 87.2871 35.8203 86.9693 35.8203H82.7406C82.4234 35.8203 82.1647 36.0785 82.1647 36.3968V49.4746C82.1647 49.7924 82.4234 50.0511 82.7406 50.0511H86.9693Z"
		fill="#859291" />
	<path
		d="M72.873 50.4081H77.1016C77.6169 50.4081 78.035 49.9899 78.035 49.4746V36.3969C78.035 35.881 77.6169 35.4634 77.1016 35.4634H72.873C72.3577 35.4634 71.9395 35.881 71.9395 36.3969V49.4746C71.9395 49.9899 72.3577 50.4081 72.873 50.4081Z"
		fill="#393536" />
	<path
		d="M77.1014 50.0511C77.4191 50.0511 77.6779 49.7924 77.6779 49.4746V36.3968C77.6779 36.0785 77.4191 35.8203 77.1014 35.8203H72.8727C72.5555 35.8203 72.2968 36.0785 72.2968 36.3968V49.4746C72.2968 49.7924 72.5555 50.0511 72.8727 50.0511H77.1014Z"
		fill="#859291" />
	<path d="M79.4676 58.2646H80.3748V32.5675H79.4676V58.2646Z" fill="#393536" stroke="#0A0F0C"
		stroke-width="0.25" />
	<path
		d="M88.3859 58.2645V59.6328M88.3859 58.2645H90.4238V60.2067H88.3997L88.3859 59.6328M88.3859 58.2645L71.5665 58.2645M88.3859 59.6328L71.5665 59.6328M71.5665 58.2645H69.5286V60.2067H71.5527L71.5665 59.6328M71.5665 58.2645V59.6328"
		stroke="#0A0F0C" stroke-width="0.25" stroke-miterlimit="10" />
	<path
		d="M71.0825 30.7829H88.7598C90.3143 30.7829 91.58 32.048 91.58 33.603V58.2814H89.7952V33.603C89.7952 33.0314 89.3314 32.5676 88.7598 32.5676H71.0825C70.5103 32.5676 70.0465 33.0314 70.0465 33.603V58.2814H68.2623V33.603C68.2623 32.048 69.5275 30.7829 71.0825 30.7829Z"
		fill="#231F20" />
	<path
		d="M219.001 50.4081H223.23C223.745 50.4081 224.162 49.9899 224.162 49.4746V36.3969C224.162 35.881 223.745 35.4634 223.23 35.4634H219.001C218.486 35.4634 218.067 35.881 218.067 36.3969V49.4746C218.067 49.9899 218.486 50.4081 219.001 50.4081Z"
		fill="#393536" />
	<path
		d="M223.229 50.0511C223.547 50.0511 223.806 49.7924 223.806 49.4746V36.3968C223.806 36.0785 223.547 35.8203 223.229 35.8203H219.001C218.683 35.8203 218.425 36.0785 218.425 36.3968V49.4746C218.425 49.7924 218.683 50.0511 219.001 50.0511H223.229Z"
		fill="#859291" />
	<path
		d="M209.133 50.4081H213.362C213.877 50.4081 214.295 49.9899 214.295 49.4746V36.3969C214.295 35.881 213.877 35.4634 213.362 35.4634H209.133C208.618 35.4634 208.2 35.881 208.2 36.3969V49.4746C208.2 49.9899 208.618 50.4081 209.133 50.4081Z"
		fill="#393536" />
	<path
		d="M213.361 50.0511C213.679 50.0511 213.938 49.7924 213.938 49.4746V36.3968C213.938 36.0785 213.679 35.8203 213.361 35.8203H209.133C208.816 35.8203 208.557 36.0785 208.557 36.3968V49.4746C208.557 49.7924 208.816 50.0511 209.133 50.0511H213.361Z"
		fill="#859291" />
	<path d="M215.728 58.2646H216.635V32.5675H215.728V58.2646Z" fill="#393536" stroke="#0A0F0C"
		stroke-width="0.25" />
	<path
		d="M224.646 58.2645V59.6328M224.646 58.2645H226.684V60.2067H224.66L224.646 59.6328M224.646 58.2645L207.827 58.2645M224.646 59.6328L207.827 59.6328M207.827 58.2645H205.789V60.2067H207.813L207.827 59.6328M207.827 58.2645V59.6328"
		stroke="#0A0F0C" stroke-width="0.25" stroke-miterlimit="10" />
	<path
		d="M207.342 30.7829H225.02C226.574 30.7829 227.84 32.048 227.84 33.603V58.2814H226.055V33.603C226.055 33.0314 225.591 32.5676 225.02 32.5676H207.342C206.77 32.5676 206.307 33.0314 206.307 33.603V58.2814H204.522V33.603C204.522 32.048 205.787 30.7829 207.342 30.7829Z"
		fill="#231F20" />
	<path
		d="M241.125 10.333L244.66 16.3533H291.258M263.687 10.333V16.4741M55.4801 10.333L51.9444 16.3533H4.63791M32.9182 10.333V16.4741M4.63791 29.9181H291.258M291.258 10.15V55.1594H278.638C278.638 55.1594 278.761 55.3328 277.242 54.6012C275.357 53.6946 277.278 53.4852 260.252 53.4852C243.224 53.4852 242.387 54.183 239.107 56.8346C237.294 58.3011 233.664 61.5099 233.664 61.5099H62.2313C62.2313 61.5099 58.6017 58.3011 56.7885 56.8346C53.5089 54.183 52.6715 53.4852 35.6442 53.4852C18.6175 53.4852 20.5385 53.6946 18.654 54.6012C17.1344 55.3328 17.2584 55.1594 17.2584 55.1594H4.63791V10.15H291.258Z"
		stroke="#0A0F0C" stroke-width="0.25" stroke-miterlimit="10" />
	<path d="M51.2588 39.9308H58.9915V36.0543H51.2588V39.9308Z" fill="#E3E6E3" />
	<path
		d="M53.1857 36.357H57.0665C57.2861 36.357 57.4648 36.5336 57.4648 36.7531V39.2298C57.4648 39.4504 57.2861 39.6286 57.0665 39.6286H53.1857C52.9657 39.6286 52.7864 39.4504 52.7864 39.2298V36.7531C52.7864 36.5336 52.9657 36.357 53.1857 36.357Z"
		fill="#EC1C27" />
	<path
		d="M53.2613 36.6914H56.9908C57.0632 36.6914 57.1233 36.7505 57.1233 36.824V39.16C57.1233 39.2336 57.0632 39.2937 56.9908 39.2937H53.2613C53.1878 39.2937 53.1293 39.2336 53.1293 39.16V36.824C53.1293 36.7505 53.1878 36.6914 53.2613 36.6914Z"
		fill="#E3E6E3" />
	<path
		d="M53.4262 39.0719H54.1423C54.7515 39.0719 55.0757 38.796 55.0757 38.0016C55.0757 37.1792 54.766 36.9484 54.1423 36.9484H53.4262V39.0719Z"
		fill="#EC1C27" />
	<path
		d="M53.9346 37.2737H54.0886C54.4375 37.2737 54.583 37.5867 54.583 38.0096C54.583 38.4331 54.445 38.7461 54.0886 38.7461H53.9346V37.2737Z"
		fill="#E3E6E3" />
	<path
		d="M55.3483 39.0719H56.1025C56.4229 39.0719 56.8625 38.9667 56.8625 38.4578C56.8625 38.1991 56.7391 38.0467 56.5002 37.9887V37.9817C56.7004 37.9039 56.8175 37.7547 56.8175 37.4857C56.8175 37.1213 56.5045 36.9484 56.1707 36.9484H55.3483V39.0719Z"
		fill="#EC1C27" />
	<path
		d="M55.824 38.1409H55.9722C56.1359 38.1409 56.3544 38.2231 56.3544 38.4555C56.3544 38.6718 56.1402 38.7636 55.9657 38.7636H55.824V38.1409Z"
		fill="#E3E6E3" />
	<path
		d="M55.824 37.2565H55.9636C56.1209 37.2565 56.3087 37.367 56.3087 37.563C56.3087 37.7422 56.1139 37.8185 55.9582 37.8185H55.824V37.2565Z"
		fill="#E3E6E3" />
	<path d="M367.923 61.506H300.229V51.87H367.923V61.506Z" fill="#231F20" />
	<path d="M344.817 62.4344V61.1806H338.73H328.298H323.123V62.4344H344.817Z" fill="#393536"
		stroke="#231F20" stroke-width="0.25" />
	<path
		d="M324.669 53.745L330.375 59.0091C330.442 59.0939 330.525 59.1401 330.61 59.1401H331.099H331.869H336.428H337.197H337.686C337.771 59.1401 337.854 59.0939 337.922 59.0091L343.627 53.745H347.436L347.442 55.1396C344.717 55.1396 344.182 55.3913 344.182 55.3913C344.103 55.3913 344.028 55.4461 343.976 55.5421L338.683 62.482C338.574 62.6843 338.417 62.7997 338.253 62.7997H337.548H336.428H331.869H330.748H330.044C329.879 62.7997 329.723 62.6843 329.613 62.482L324.32 55.5421C324.268 55.4461 324.193 55.3913 324.115 55.3913C324.115 55.3913 322.469 55.1396 319.744 55.1396L319.728 53.745H324.669Z"
		fill="#393536" stroke="#231F20" stroke-width="0.25" />
	<path
		d="M324.903 59.309C324.903 56.214 322.394 53.7046 319.299 53.7046C316.204 53.7046 313.695 56.214 313.695 59.309C313.695 62.4039 316.204 64.9133 319.299 64.9133C322.394 64.9133 324.903 62.4039 324.903 59.309Z"
		fill="#393536" stroke="#231F20" stroke-width="0.25" />
	<path
		d="M319.299 63.9296C321.847 63.9296 323.92 61.8566 323.92 59.3086C323.92 56.7606 321.847 54.6887 319.299 54.6887C316.751 54.6887 314.678 56.7606 314.678 59.3086C314.678 61.8566 316.751 63.9296 319.299 63.9296Z"
		fill="#231F20" />
	<path
		d="M319.299 62.0853C320.83 62.0853 322.075 60.8395 322.075 59.3086C322.075 57.7778 320.83 56.533 319.299 56.533C317.768 56.533 316.522 57.7778 316.522 59.3086C316.522 60.8395 317.768 62.0853 319.299 62.0853Z"
		fill="#393536" />
	<path
		d="M319.299 62.0853C320.83 62.0853 322.075 60.8395 322.075 59.3086C322.075 57.7778 320.83 56.533 319.299 56.533C317.768 56.533 316.522 57.7778 316.522 59.3086C316.522 60.8395 317.768 62.0853 319.299 62.0853Z"
		stroke="#231F20" stroke-width="0.25" stroke-linecap="round" />
	<path
		d="M319.299 61.2246C320.355 61.2246 321.215 60.3652 321.215 59.3089C321.215 58.2525 320.355 57.3932 319.299 57.3932C318.243 57.3932 317.383 58.2525 317.383 59.3089C317.383 60.3652 318.243 61.2246 319.299 61.2246Z"
		fill="#231F20" />
	<path
		d="M319.299 61.2246C320.355 61.2246 321.215 60.3652 321.215 59.3089C321.215 58.2525 320.355 57.3932 319.299 57.3932C318.243 57.3932 317.383 58.2525 317.383 59.3089C317.383 60.3652 318.243 61.2246 319.299 61.2246Z"
		stroke="#231F20" stroke-width="0.25" stroke-linecap="round" />
	<path
		d="M319.299 60.8557C320.152 60.8557 320.845 60.1622 320.845 59.3088C320.845 58.4558 320.152 57.7623 319.299 57.7623C318.446 57.7623 317.752 58.4558 317.752 59.3088C317.752 60.1622 318.446 60.8557 319.299 60.8557Z"
		fill="#393536" />
	<path
		d="M319.299 60.8557C320.152 60.8557 320.845 60.1622 320.845 59.3088C320.845 58.4558 320.152 57.7623 319.299 57.7623C318.446 57.7623 317.752 58.4558 317.752 59.3088C317.752 60.1622 318.446 60.8557 319.299 60.8557Z"
		stroke="#231F20" stroke-width="0.25" stroke-linecap="round" />
	<path
		d="M343.085 59.309C343.085 56.214 345.594 53.7046 348.689 53.7046C351.784 53.7046 354.293 56.214 354.293 59.309C354.293 62.4039 351.784 64.9133 348.689 64.9133C345.594 64.9133 343.085 62.4039 343.085 59.309Z"
		fill="#393536" stroke="#231F20" stroke-width="0.25" />
	<path
		d="M348.689 63.9296C346.141 63.9296 344.068 61.8566 344.068 59.3086C344.068 56.7606 346.141 54.6887 348.689 54.6887C351.237 54.6887 353.31 56.7606 353.31 59.3086C353.31 61.8566 351.237 63.9296 348.689 63.9296Z"
		fill="#231F20" />
	<path
		d="M348.689 62.0853C347.158 62.0853 345.913 60.8395 345.913 59.3086C345.913 57.7778 347.158 56.533 348.689 56.533C350.22 56.533 351.465 57.7778 351.465 59.3086C351.465 60.8395 350.22 62.0853 348.689 62.0853Z"
		fill="#393536" />
	<path
		d="M348.689 62.0853C347.158 62.0853 345.913 60.8395 345.913 59.3086C345.913 57.7778 347.158 56.533 348.689 56.533C350.22 56.533 351.465 57.7778 351.465 59.3086C351.465 60.8395 350.22 62.0853 348.689 62.0853Z"
		stroke="#231F20" stroke-width="0.25" stroke-linecap="round" />
	<path
		d="M348.689 61.2246C347.632 61.2246 346.773 60.3652 346.773 59.3089C346.773 58.2525 347.632 57.3932 348.689 57.3932C349.745 57.3932 350.604 58.2525 350.604 59.3089C350.604 60.3652 349.745 61.2246 348.689 61.2246Z"
		fill="#231F20" />
	<path
		d="M348.689 61.2246C347.632 61.2246 346.773 60.3652 346.773 59.3089C346.773 58.2525 347.632 57.3932 348.689 57.3932C349.745 57.3932 350.604 58.2525 350.604 59.3089C350.604 60.3652 349.745 61.2246 348.689 61.2246Z"
		stroke="#231F20" stroke-width="0.25" stroke-linecap="round" />
	<path
		d="M348.689 60.8557C347.836 60.8557 347.142 60.1622 347.142 59.3088C347.142 58.4558 347.836 57.7623 348.689 57.7623C349.542 57.7623 350.236 58.4558 350.236 59.3088C350.236 60.1622 349.542 60.8557 348.689 60.8557Z"
		fill="#393536" />
	<path
		d="M348.689 60.8557C347.836 60.8557 347.142 60.1622 347.142 59.3088C347.142 58.4558 347.836 57.7623 348.689 57.7623C349.542 57.7623 350.236 58.4558 350.236 59.3088C350.236 60.1622 349.542 60.8557 348.689 60.8557Z"
		stroke="#231F20" stroke-width="0.25" stroke-linecap="round" />
	<path
		d="M334.625 56.1802H335.975L335.998 59.0836L337.067 59.1072L337.284 60.4201H335.486L334.625 58.7116V56.1802Z"
		fill="#393536" stroke="#231F20" stroke-width="0.25" />
	<path d="M335.454 56.5239L335.439 57.4503L326.067 57.4272L326.082 56.5009L335.454 56.5239Z"
		fill="#393536" stroke="#231F20" stroke-width="0.25" />
	<path d="M335.454 57.8486L335.439 58.7747L326.067 58.7516L326.082 57.8256L335.454 57.8486Z"
		fill="#393536" stroke="#231F20" stroke-width="0.25" />
	<path d="M580.182 61.5121H517.541V51.8761H580.182V61.5121Z" fill="#231F20" />
	<path d="M557.077 62.4405V61.1866H550.989H540.558H535.382V62.4405H557.077Z" fill="#393536"
		stroke="#231F20" stroke-width="0.25" />
	<path
		d="M536.929 53.7511L542.634 59.0151C542.702 59.1 542.785 59.1461 542.87 59.1461H543.359H544.129H548.688H549.457H549.946C550.031 59.1461 550.114 59.1 550.182 59.0151L555.887 53.7511H559.696L559.702 55.1456C556.977 55.1456 556.442 55.3973 556.442 55.3973C556.363 55.3973 556.288 55.4521 556.236 55.5482L550.943 62.488C550.834 62.6904 550.677 62.8058 550.513 62.8058H549.808H548.688H544.129H543.008H542.304C542.139 62.8058 541.983 62.6904 541.873 62.488L536.58 55.5482C536.528 55.4521 536.453 55.3973 536.375 55.3973C536.375 55.3973 534.729 55.1456 532.004 55.1456L531.988 53.7511H536.929Z"
		fill="#393536" stroke="#231F20" stroke-width="0.25" />
	<path
		d="M537.163 59.315C537.163 56.22 534.654 53.7106 531.558 53.7106C528.464 53.7106 525.955 56.22 525.955 59.315C525.955 62.41 528.464 64.9194 531.558 64.9194C534.654 64.9194 537.163 62.41 537.163 59.315Z"
		fill="#393536" stroke="#231F20" stroke-width="0.25" />
	<path
		d="M531.559 63.9357C534.107 63.9357 536.179 61.8627 536.179 59.3147C536.179 56.7666 534.107 54.6947 531.559 54.6947C529.011 54.6947 526.938 56.7666 526.938 59.3147C526.938 61.8627 529.011 63.9357 531.559 63.9357Z"
		fill="#231F20" />
	<path
		d="M531.559 62.0914C533.09 62.0914 534.335 60.8455 534.335 59.3147C534.335 57.7838 533.09 56.5391 531.559 56.5391C530.028 56.5391 528.782 57.7838 528.782 59.3147C528.782 60.8455 530.028 62.0914 531.559 62.0914Z"
		fill="#393536" />
	<path
		d="M531.559 62.0914C533.09 62.0914 534.335 60.8455 534.335 59.3147C534.335 57.7838 533.09 56.5391 531.559 56.5391C530.028 56.5391 528.782 57.7838 528.782 59.3147C528.782 60.8455 530.028 62.0914 531.559 62.0914Z"
		stroke="#231F20" stroke-width="0.25" stroke-linecap="round" />
	<path
		d="M531.559 61.2307C532.615 61.2307 533.475 60.3713 533.475 59.3149C533.475 58.2586 532.615 57.3992 531.559 57.3992C530.503 57.3992 529.643 58.2586 529.643 59.3149C529.643 60.3713 530.503 61.2307 531.559 61.2307Z"
		fill="#231F20" />
	<path
		d="M531.559 61.2307C532.615 61.2307 533.475 60.3713 533.475 59.3149C533.475 58.2586 532.615 57.3992 531.559 57.3992C530.503 57.3992 529.643 58.2586 529.643 59.3149C529.643 60.3713 530.503 61.2307 531.559 61.2307Z"
		stroke="#231F20" stroke-width="0.25" stroke-linecap="round" />
	<path
		d="M531.559 60.8618C532.412 60.8618 533.105 60.1683 533.105 59.3148C533.105 58.4619 532.412 57.7684 531.559 57.7684C530.705 57.7684 530.012 58.4619 530.012 59.3148C530.012 60.1683 530.705 60.8618 531.559 60.8618Z"
		fill="#393536" />
	<path
		d="M531.559 60.8618C532.412 60.8618 533.105 60.1683 533.105 59.3148C533.105 58.4619 532.412 57.7684 531.559 57.7684C530.705 57.7684 530.012 58.4619 530.012 59.3148C530.012 60.1683 530.705 60.8618 531.559 60.8618Z"
		stroke="#231F20" stroke-width="0.25" stroke-linecap="round" />
	<path
		d="M555.345 59.315C555.345 56.22 557.853 53.7106 560.949 53.7106C564.043 53.7106 566.553 56.22 566.553 59.315C566.553 62.41 564.043 64.9194 560.949 64.9194C557.853 64.9194 555.345 62.41 555.345 59.315Z"
		fill="#393536" stroke="#231F20" stroke-width="0.25" />
	<path
		d="M560.949 63.9357C558.401 63.9357 556.328 61.8627 556.328 59.3147C556.328 56.7666 558.401 54.6947 560.949 54.6947C563.497 54.6947 565.57 56.7666 565.57 59.3147C565.57 61.8627 563.497 63.9357 560.949 63.9357Z"
		fill="#231F20" />
	<path
		d="M560.949 62.0914C559.418 62.0914 558.172 60.8455 558.172 59.3147C558.172 57.7838 559.418 56.5391 560.949 56.5391C562.48 56.5391 563.725 57.7838 563.725 59.3147C563.725 60.8455 562.48 62.0914 560.949 62.0914Z"
		fill="#393536" />
	<path
		d="M560.949 62.0914C559.418 62.0914 558.172 60.8455 558.172 59.3147C558.172 57.7838 559.418 56.5391 560.949 56.5391C562.48 56.5391 563.725 57.7838 563.725 59.3147C563.725 60.8455 562.48 62.0914 560.949 62.0914Z"
		stroke="#231F20" stroke-width="0.25" stroke-linecap="round" />
	<path
		d="M560.949 61.2307C559.892 61.2307 559.033 60.3713 559.033 59.3149C559.033 58.2586 559.892 57.3992 560.949 57.3992C562.005 57.3992 562.864 58.2586 562.864 59.3149C562.864 60.3713 562.005 61.2307 560.949 61.2307Z"
		fill="#231F20" />
	<path
		d="M560.949 61.2307C559.892 61.2307 559.033 60.3713 559.033 59.3149C559.033 58.2586 559.892 57.3992 560.949 57.3992C562.005 57.3992 562.864 58.2586 562.864 59.3149C562.864 60.3713 562.005 61.2307 560.949 61.2307Z"
		stroke="#231F20" stroke-width="0.25" stroke-linecap="round" />
	<path
		d="M560.949 60.8618C560.096 60.8618 559.402 60.1683 559.402 59.3148C559.402 58.4619 560.096 57.7684 560.949 57.7684C561.802 57.7684 562.496 58.4619 562.496 59.3148C562.496 60.1683 561.802 60.8618 560.949 60.8618Z"
		fill="#393536" />
	<path
		d="M560.949 60.8618C560.096 60.8618 559.402 60.1683 559.402 59.3148C559.402 58.4619 560.096 57.7684 560.949 57.7684C561.802 57.7684 562.496 58.4619 562.496 59.3148C562.496 60.1683 561.802 60.8618 560.949 60.8618Z"
		stroke="#231F20" stroke-width="0.25" stroke-linecap="round" />
	<path
		d="M546.885 56.1862H548.234L548.257 59.0896L549.327 59.1132L549.544 60.4261H547.746L546.885 58.7176V56.1862Z"
		fill="#393536" stroke="#231F20" stroke-width="0.25" />
	<path d="M547.714 56.53L547.698 57.4563L538.327 57.4332L538.342 56.5069L547.714 56.53Z"
		fill="#393536" stroke="#231F20" stroke-width="0.25" />
	<path d="M547.714 57.8547L547.698 58.7807L538.327 58.7577L538.342 57.8316L547.714 57.8547Z"
		fill="#393536" stroke="#231F20" stroke-width="0.25" />
	<path d="M595.682 54.1091H591.357V51.876H595.682V54.1091Z" fill="#3F4545" stroke="#231F20"
		stroke-width="0.25" />
	<path
		d="M600.781 54.8789L599.249 53.2053H597.973V53.7418H599.129L600.512 55.1797L600.781 54.8789Z"
		fill="#3F4545" stroke="black" stroke-width="0.25" />
	<path d="M597.936 52.9355L599.286 51.0583L597.936 50.3064V52.9355Z" fill="#3F4545"
		stroke="#231F20" stroke-width="0.25" />
	<path d="M597.067 55.6672H597.946V49.6559H597.067V55.6672Z" fill="#3F4545" stroke="#231F20"
		stroke-width="0.25" />
	<path d="M595.136 55.0424H597.067V50.2802H595.136V55.0424Z" fill="#3F4545" stroke="#231F20"
		stroke-width="0.25" />
	<path d="M295.683 56.5389H300.434V22.8724H295.683V56.5389Z" fill="#393536" />
	<path
		d="M299.309 56.9938C299.309 57.121 299.429 57.2246 299.574 57.2246C299.721 57.2246 299.84 57.121 299.84 56.9938V22.3697C299.84 22.243 299.721 22.1389 299.574 22.1389C299.429 22.1389 299.309 22.243 299.309 22.3697V56.9938Z"
		fill="#595757" />
	<path
		d="M298.262 56.9938C298.262 57.121 298.382 57.2246 298.528 57.2246C298.674 57.2246 298.793 57.121 298.793 56.9938V22.3697C298.793 22.243 298.674 22.1389 298.528 22.1389C298.382 22.1389 298.262 22.243 298.262 22.3697V56.9938Z"
		fill="#595757" />
	<path
		d="M297.216 56.9938C297.216 57.121 297.335 57.2246 297.481 57.2246C297.627 57.2246 297.747 57.121 297.747 56.9938V22.3697C297.747 22.243 297.627 22.1389 297.481 22.1389C297.335 22.1389 297.216 22.243 297.216 22.3697V56.9938Z"
		fill="#595757" />
	<path
		d="M296.169 56.9938C296.169 57.121 296.289 57.2246 296.435 57.2246C296.581 57.2246 296.701 57.121 296.701 56.9938V22.3697C296.701 22.243 296.581 22.1389 296.435 22.1389C296.289 22.1389 296.169 22.243 296.169 22.3697V56.9938Z"
		fill="#595757" />
	<path
		d="M300.143 55.0221V16.0835H334.616V10.0126H560.781C560.781 10.0126 568.597 9.64013 574.691 12.9434C580.985 16.3545 590.509 28.435 592.323 39.8327C594.084 50.8976 590.648 59.8374 590.648 59.8374H575.714C575.714 59.8374 571.747 56.7048 570.271 55.6501C567.829 53.9056 566.224 53.4172 549.546 53.4172C530.147 53.4172 528.541 53.8358 524.633 57.1852C520.726 60.5347 519.749 61.3726 519.749 61.3726H360.435C360.435 61.3726 356.805 58.1632 354.992 56.6968C351.712 54.0452 350.875 53.3474 333.848 53.3474C316.821 53.3474 314.588 53.5567 312.704 54.4638C311.184 55.1955 311.308 55.0221 311.308 55.0221H300.143Z"
		fill="#E3E6E3" />
	<path fill-rule="evenodd" clip-rule="evenodd"
		d="M541.521 36.3962C554.338 36.5036 562.874 39.853 568.178 43.2024C568.657 43.5049 569.111 43.7938 569.545 44.0698C576.596 48.5549 578.279 49.6253 592.741 49.6688L592.509 51.212C577.017 50.9716 575.714 50.3205 568.736 46.2727C562.635 42.7338 556.315 40.2717 543.661 39.7596C541.218 39.6609 436.974 39.6636 365.682 39.6771V36.3935L541.521 36.3962ZM357.95 36.3934V39.6786C324.568 39.6855 300.143 39.6941 300.143 39.6941V36.3925L357.95 36.3934Z"
		fill="#ED1C24" />
	<path
		d="M589.336 37.4462C589.787 38.3056 590.174 39.0184 590.414 39.5616C590.624 40.0366 590.274 40.567 589.755 40.567H572.417C571.49 40.567 570.739 39.816 570.739 38.8896V30.4242C570.739 29.4978 571.49 28.7468 572.417 28.7468H578.189C578.238 28.7468 578.288 28.7522 578.336 28.7613C583.788 29.7576 587.277 33.5257 589.336 37.4462Z"
		fill="#231F20" stroke="#0A0F0C" stroke-width="0.25" />
	<path
		d="M326.483 16.1682V16.1398H334.647V10.0684H560.813C560.813 10.0684 568.628 9.69589 574.722 12.9991C576.03 13.7082 577.478 14.7952 578.966 16.1682H326.483Z"
		fill="#4F5756" />
	<path d="M300.175 54.6471H312.469C311.231 55.2306 311.34 55.0781 311.34 55.0781H300.175V54.6471Z"
		fill="#4F5756" />
	<path d="M588.167 59.9631H579.724V62.0565H588.545L588.167 61.2191V59.9631Z" fill="#4F5756" />
	<path
		d="M568.443 54.6472H592.066C591.443 57.9059 590.68 59.8935 590.68 59.8935H575.746C575.746 59.8935 571.78 56.7609 570.303 55.7067C569.71 55.2827 569.165 54.9338 568.443 54.6472Z"
		fill="#4F5756" />
	<path
		d="M355.024 56.753C353.886 55.8335 353.041 55.1491 351.715 54.6467H528.926C527.18 55.2109 526.071 56.0364 524.665 57.2415C520.758 60.5909 519.781 61.4282 519.781 61.4282H360.467C360.467 61.4282 356.837 58.2194 355.024 56.753Z"
		fill="#4F5756" />
	<path
		d="M546.452 10.1489H560.781C560.781 10.1489 568.596 9.77636 574.691 13.0796C578.288 15.0297 582.939 19.8133 586.604 25.6813C586.274 25.2808 583.917 22.4558 581.157 20.1424C576.552 16.2814 572.69 16.188 572.69 16.188H546.452V10.1489Z"
		fill="#231F20" />
	<path d="M331.2 16.2155H329.411V14.8274H331.2V16.2155Z" fill="#231F20" />
	<path d="M316.704 16.2642H314.915V14.8761H316.704V16.2642Z" fill="#231F20" />
	<path d="M327.038 12.5945H326.708V14.7244H327.038V12.5945Z" fill="#393536" />
	<path d="M329.285 12.5945H328.955V14.7244H329.285V12.5945Z" fill="#393536" />
	<path d="M331.531 12.5945H331.2V14.7244H331.531V12.5945Z" fill="#393536" />
	<path d="M327.039 12.5944H326.708V14.7242H327.039V12.5944Z" fill="#231F20" />
	<path d="M329.285 12.5944H328.955V14.7242H329.285V12.5944Z" fill="#231F20" />
	<path d="M331.53 12.5944H331.2V14.7242H331.53V12.5944Z" fill="#231F20" />
	<path d="M327.039 12.5944H326.708V14.7242H327.039V12.5944Z" stroke="#231F20" stroke-width="0.25"
		stroke-linejoin="round" />
	<path d="M329.285 12.5944H328.955V14.7242H329.285V12.5944Z" stroke="#231F20" stroke-width="0.25"
		stroke-linejoin="round" />
	<path d="M331.53 12.5944H331.2V14.7242H331.53V12.5944Z" stroke="#231F20" stroke-width="0.25"
		stroke-linejoin="round" />
	<path d="M305.85 14.5035L310.433 14.0284L310.371 13.6769L305.789 14.1519L305.85 14.5035Z"
		fill="#231F20" stroke="#231F20" stroke-width="0.25" stroke-linejoin="round" />
	<path d="M327.039 13.3041L310.208 13.7099L327.039 13.3041Z" fill="#393536" />
	<path d="M327.039 13.3041L310.208 13.7099" stroke="#231F20" stroke-width="0.25"
		stroke-linejoin="round" />
	<path d="M327.039 13.5069L310.208 13.9127L327.039 13.5069Z" fill="#393536" />
	<path d="M327.039 13.5069L310.208 13.9127" stroke="#231F20" stroke-width="0.25"
		stroke-linejoin="round" />
	<path d="M314.915 15.1805H332.155V14.4199H314.915V15.1805Z" fill="#231F20" stroke="#231F20"
		stroke-width="0.25" stroke-linejoin="round" />
	<path d="M314.914 15.1803L305.911 14.3791" stroke="#231F20" stroke-width="0.25"
		stroke-linejoin="round" />
	<rect width="4.82214" height="0.900635" transform="matrix(-1 0 0 1 331.53 12.9062)" fill="#231F20" />
	<path
		d="M457.925 38.8185C458.02 38.8185 458.095 38.7423 458.095 38.6484V37.4187C458.095 37.3242 458.02 37.2474 457.925 37.2474H446.647C446.552 37.2474 446.476 37.3242 446.476 37.4187V38.6484C446.476 38.7423 446.552 38.8185 446.647 38.8185H457.925Z"
		fill="#656263" />
	<path
		d="M457.925 38.8185C458.02 38.8185 458.095 38.7423 458.095 38.6484V37.4187C458.095 37.3242 458.02 37.2474 457.925 37.2474H446.647C446.552 37.2474 446.476 37.3242 446.476 37.4187V38.6484C446.476 38.7423 446.552 38.8185 446.647 38.8185H457.925Z"
		stroke="#0A0F0C" stroke-width="0.25" stroke-miterlimit="10" />
	<path
		d="M434.688 38.8185C434.782 38.8185 434.858 38.7423 434.858 38.6484V37.4187C434.858 37.3242 434.782 37.2474 434.688 37.2474H423.409C423.315 37.2474 423.239 37.3242 423.239 37.4187V38.6484C423.239 38.7423 423.315 38.8185 423.409 38.8185H434.688Z"
		fill="#656263" />
	<path
		d="M434.688 38.8185C434.782 38.8185 434.858 38.7423 434.858 38.6484V37.4187C434.858 37.3242 434.782 37.2474 434.688 37.2474H423.409C423.315 37.2474 423.239 37.3242 423.239 37.4187V38.6484C423.239 38.7423 423.315 38.8185 423.409 38.8185H434.688Z"
		stroke="#0A0F0C" stroke-width="0.25" stroke-miterlimit="10" />
	<path
		d="M528.645 39.6488H533.435C534.124 39.6488 534.682 39.0906 534.682 38.4019V31.5732C534.682 30.8845 534.124 30.3263 533.435 30.3263H528.645C527.957 30.3263 527.398 30.8845 527.398 31.5732V38.4019C527.398 39.0906 527.957 39.6488 528.645 39.6488Z"
		fill="#393536" stroke="#231F20" stroke-width="0.25" />
	<path
		d="M533.435 39.1729C533.86 39.1729 534.206 38.8272 534.206 38.4021V31.5734C534.206 31.1477 533.86 30.802 533.435 30.802H528.645C528.22 30.802 527.875 31.1477 527.875 31.5734V38.4021C527.875 38.8272 528.22 39.1729 528.645 39.1729H533.435Z"
		fill="#859291" />
	<path
		d="M398.615 50.6685H482.823C484.012 50.6685 484.975 49.705 484.975 48.516V43.1902C484.975 42.0018 484.012 41.0383 482.823 41.0383H398.615C397.427 41.0383 396.463 42.0018 396.463 43.1902V48.516C396.463 49.705 397.427 50.6685 398.615 50.6685Z"
		fill="#231F20" stroke="#0A0F0C" stroke-width="0.25" />
	<path
		d="M468.008 50.2846H482.83C483.805 50.2846 484.595 49.4945 484.595 48.5192V43.1875C484.595 42.2127 483.805 41.4226 482.83 41.4226H468.008C467.033 41.4226 466.242 42.2127 466.242 43.1875V48.5192C466.242 49.4945 467.033 50.2846 468.008 50.2846Z"
		fill="#393536" />
	<path
		d="M482.83 49.9276C483.606 49.9276 484.238 49.2958 484.238 48.5191V43.188C484.238 42.4107 483.606 41.7795 482.83 41.7795H468.008C467.231 41.7795 466.599 42.4107 466.599 43.188V48.5191C466.599 49.2958 467.231 49.9276 468.008 49.9276H482.83Z"
		fill="#859291" />
	<path
		d="M444.875 50.2846H459.697C460.672 50.2846 461.462 49.4945 461.462 48.5192V43.1875C461.462 42.2127 460.672 41.4226 459.697 41.4226H444.875C443.9 41.4226 443.109 42.2127 443.109 43.1875V48.5192C443.109 49.4945 443.9 50.2846 444.875 50.2846Z"
		fill="#393536" />
	<path
		d="M459.697 49.9276C460.473 49.9276 461.105 49.2958 461.105 48.5191V43.188C461.105 42.4107 460.473 41.7795 459.697 41.7795H444.875C444.098 41.7795 443.466 42.4107 443.466 43.188V48.5191C443.466 49.2958 444.098 49.9276 444.875 49.9276H459.697Z"
		fill="#859291" />
	<path
		d="M421.742 50.2846H436.564C437.539 50.2846 438.329 49.4945 438.329 48.5192V43.1875C438.329 42.2127 437.539 41.4226 436.564 41.4226H421.742C420.767 41.4226 419.977 42.2127 419.977 43.1875V48.5192C419.977 49.4945 420.767 50.2846 421.742 50.2846Z"
		fill="#393536" />
	<path
		d="M436.564 49.9276C437.34 49.9276 437.972 49.2958 437.972 48.5191V43.188C437.972 42.4107 437.34 41.7795 436.564 41.7795H421.742C420.965 41.7795 420.334 42.4107 420.334 43.188V48.5191C420.334 49.2958 420.965 49.9276 421.742 49.9276H436.564Z"
		fill="#859291" />
	<path
		d="M398.609 50.2846H413.431C414.406 50.2846 415.196 49.4945 415.196 48.5192V43.1875C415.196 42.2127 414.406 41.4226 413.431 41.4226H398.609C397.634 41.4226 396.844 42.2127 396.844 43.1875V48.5192C396.844 49.4945 397.634 50.2846 398.609 50.2846Z"
		fill="#393536" />
	<path
		d="M413.431 49.9276C414.208 49.9276 414.839 49.2958 414.839 48.5191V43.188C414.839 42.4107 414.208 41.7795 413.431 41.7795H398.609C397.832 41.7795 397.201 42.4107 397.201 43.188V48.5191C397.201 49.2958 397.832 49.9276 398.609 49.9276H413.431Z"
		fill="#859291" />
	<path
		d="M379.389 26.3555H501.875C503.064 26.3555 504.027 25.392 504.027 24.203V18.8772C504.027 17.6888 503.064 16.7254 501.875 16.7254H379.389C378.201 16.7254 377.237 17.6888 377.237 18.8772V24.203C377.237 25.392 378.201 26.3555 379.389 26.3555Z"
		fill="#231F20" stroke="#0A0F0C" stroke-width="0.25" />
	<path
		d="M497.247 25.943H501.81C502.786 25.943 503.576 25.1529 503.576 24.1776V18.8459C503.576 17.8711 502.786 17.081 501.81 17.081H497.247C496.272 17.081 495.481 17.8711 495.481 18.8459V24.1776C495.481 25.1529 496.272 25.943 497.247 25.943Z"
		fill="#393536" />
	<path
		d="M501.811 25.5859C502.587 25.5859 503.219 24.9542 503.219 24.1775V18.8463C503.219 18.0691 502.587 17.4378 501.811 17.4378H497.247C496.47 17.4378 495.838 18.0691 495.838 18.8463V24.1775C495.838 24.9542 496.47 25.5859 497.247 25.5859H501.811Z"
		fill="#859291" />
	<path
		d="M379.454 25.943H384.017C384.993 25.943 385.783 25.1529 385.783 24.1776V18.8459C385.783 17.8711 384.993 17.081 384.017 17.081H379.454C378.479 17.081 377.688 17.8711 377.688 18.8459V24.1776C377.688 25.1529 378.479 25.943 379.454 25.943Z"
		stroke="#0A0F0C" stroke-width="0.25" stroke-miterlimit="10" />
	<path
		d="M384.017 25.5859C384.794 25.5859 385.426 24.9542 385.426 24.1775V18.8463C385.426 18.0691 384.794 17.4378 384.017 17.4378H379.454C378.677 17.4378 378.045 18.0691 378.045 18.8463V24.1775C378.045 24.9542 378.677 25.5859 379.454 25.5859H384.017Z"
		stroke="#0A0F0C" stroke-width="0.25" stroke-miterlimit="10" />
	<path
		d="M379.454 25.943H384.017C384.993 25.943 385.783 25.1529 385.783 24.1776V18.8459C385.783 17.8711 384.993 17.081 384.017 17.081H379.454C378.479 17.081 377.688 17.8711 377.688 18.8459V24.1776C377.688 25.1529 378.479 25.943 379.454 25.943Z"
		fill="#393536" />
	<path
		d="M379.454 25.943H384.017C384.993 25.943 385.783 25.1529 385.783 24.1776V18.8459C385.783 17.8711 384.993 17.081 384.017 17.081H379.454C378.479 17.081 377.688 17.8711 377.688 18.8459V24.1776C377.688 25.1529 378.479 25.943 379.454 25.943Z"
		stroke="#0A0F0C" stroke-width="0.25" stroke-miterlimit="10" />
	<path
		d="M384.017 25.4671C384.729 25.4671 385.307 24.889 385.307 24.1773V18.8466C385.307 18.1349 384.729 17.5562 384.017 17.5562H379.454C378.742 17.5562 378.164 18.1349 378.164 18.8466V24.1773C378.164 24.889 378.742 25.4671 379.454 25.4671H384.017Z"
		fill="#859291" />
	<path
		d="M384.017 25.4671C384.729 25.4671 385.307 24.889 385.307 24.1773V18.8466C385.307 18.1349 384.729 17.5562 384.017 17.5562H379.454C378.742 17.5562 378.164 18.1349 378.164 18.8466V24.1773C378.164 24.889 378.742 25.4671 379.454 25.4671H384.017Z"
		stroke="#0A0F0C" stroke-width="0.25" stroke-miterlimit="10" />
	<path
		d="M468.008 26.0002H482.83C483.805 26.0002 484.595 25.2101 484.595 24.2348V18.9031C484.595 17.9284 483.805 17.1382 482.83 17.1382H468.008C467.033 17.1382 466.242 17.9284 466.242 18.9031V24.2348C466.242 25.2101 467.033 26.0002 468.008 26.0002Z"
		fill="#393536" />
	<path
		d="M482.83 25.6432C483.606 25.6432 484.238 25.0115 484.238 24.2348V18.9036C484.238 18.1264 483.606 17.4951 482.83 17.4951H468.008C467.231 17.4951 466.599 18.1264 466.599 18.9036V24.2348C466.599 25.0115 467.231 25.6432 468.008 25.6432H482.83Z"
		fill="#859291" />
	<path
		d="M444.875 26.0002H459.697C460.672 26.0002 461.462 25.2101 461.462 24.2348V18.9031C461.462 17.9284 460.672 17.1382 459.697 17.1382H444.875C443.9 17.1382 443.109 17.9284 443.109 18.9031V24.2348C443.109 25.2101 443.9 26.0002 444.875 26.0002Z"
		fill="#393536" />
	<path
		d="M459.697 25.6432C460.473 25.6432 461.105 25.0115 461.105 24.2348V18.9036C461.105 18.1264 460.473 17.4951 459.697 17.4951H444.875C444.098 17.4951 443.466 18.1264 443.466 18.9036V24.2348C443.466 25.0115 444.098 25.6432 444.875 25.6432H459.697Z"
		fill="#859291" />
	<path
		d="M421.742 26.0002H436.564C437.539 26.0002 438.329 25.2101 438.329 24.2348V18.9031C438.329 17.9284 437.539 17.1382 436.564 17.1382H421.742C420.767 17.1382 419.977 17.9284 419.977 18.9031V24.2348C419.977 25.2101 420.767 26.0002 421.742 26.0002Z"
		fill="#393536" />
	<path
		d="M436.564 25.6432C437.34 25.6432 437.972 25.0115 437.972 24.2348V18.9036C437.972 18.1264 437.34 17.4951 436.564 17.4951H421.742C420.965 17.4951 420.334 18.1264 420.334 18.9036V24.2348C420.334 25.0115 420.965 25.6432 421.742 25.6432H436.564Z"
		fill="#859291" />
	<path
		d="M398.609 26.0002H413.431C414.406 26.0002 415.196 25.2101 415.196 24.2348V18.9031C415.196 17.9284 414.406 17.1382 413.431 17.1382H398.609C397.634 17.1382 396.844 17.9284 396.844 18.9031V24.2348C396.844 25.2101 397.634 26.0002 398.609 26.0002Z"
		fill="#393536" />
	<path
		d="M413.431 25.6432C414.208 25.6432 414.839 25.0115 414.839 24.2348V18.9036C414.839 18.1264 414.208 17.4951 413.431 17.4951H398.609C397.832 17.4951 397.201 18.1264 397.201 18.9036V24.2348C397.201 25.0115 397.832 25.6432 398.609 25.6432H413.431Z"
		fill="#859291" />
	<path
		d="M344.527 39.6078H352.022C352.997 39.6078 353.788 38.8177 353.788 37.8424V32.1618C353.788 31.187 352.997 30.3963 352.022 30.3963H344.527C343.553 30.3963 342.762 31.187 342.762 32.1618V37.8424C342.762 38.8177 343.553 39.6078 344.527 39.6078Z"
		fill="#393536" stroke="#231F20" stroke-width="0.25" />
	<path
		d="M352.022 39.2508C352.799 39.2508 353.431 38.619 353.431 37.8423V32.1623C353.431 31.3856 352.799 30.7538 352.022 30.7538H344.527C343.751 30.7538 343.119 31.3856 343.119 32.1623V37.8423C343.119 38.619 343.751 39.2508 344.527 39.2508H352.022Z"
		fill="#859291" />
	<path
		d="M578.142 39.7366H573.119C572.082 39.7366 571.242 38.8961 571.242 37.8596V30.8671C571.242 29.8306 572.082 28.99 573.119 28.99H575.72C576.521 28.99 577.233 29.4967 577.495 30.2531L579.916 37.245C580.338 38.4645 579.432 39.7366 578.142 39.7366Z"
		fill="#393536" />
	<path
		d="M578.142 39.2607C578.601 39.2607 579.017 39.046 579.284 38.6724C579.549 38.2983 579.616 37.8346 579.466 37.4008L577.045 30.4089C576.849 29.8448 576.317 29.4658 575.72 29.4658H573.119C572.347 29.4658 571.718 30.0944 571.718 30.8673V37.8592C571.718 38.6322 572.347 39.2607 573.119 39.2607H578.142Z"
		fill="#859291" />
	<path
		d="M579.812 29.4242C582.777 30.341 584.025 31.2106 585.57 32.6368C586.976 33.9347 587.933 35.3308 588.55 36.1741C588.833 36.5605 588.558 37.1032 588.08 37.1032H582.77C582.022 34.5836 581.019 31.9717 579.812 29.4242Z"
		fill="#859291" stroke="#0A0F0C" stroke-width="0.25" />
	<path
		d="M384.361 50.4081H388.59C389.105 50.4081 389.523 49.9899 389.523 49.4746V36.3969C389.523 35.881 389.105 35.4634 388.59 35.4634H384.361C383.846 35.4634 383.428 35.881 383.428 36.3969V49.4746C383.428 49.9899 383.846 50.4081 384.361 50.4081Z"
		fill="#393536" />
	<path
		d="M388.589 50.0511C388.907 50.0511 389.166 49.7924 389.166 49.4746V36.3968C389.166 36.0785 388.907 35.8203 388.589 35.8203H384.361C384.044 35.8203 383.785 36.0785 383.785 36.3968V49.4746C383.785 49.7924 384.044 50.0511 384.361 50.0511H388.589Z"
		fill="#859291" />
	<path
		d="M374.493 50.4081H378.722C379.237 50.4081 379.655 49.9899 379.655 49.4746V36.3969C379.655 35.881 379.237 35.4634 378.722 35.4634H374.493C373.978 35.4634 373.56 35.881 373.56 36.3969V49.4746C373.56 49.9899 373.978 50.4081 374.493 50.4081Z"
		fill="#393536" />
	<path
		d="M378.721 50.0511C379.039 50.0511 379.298 49.7924 379.298 49.4746V36.3968C379.298 36.0785 379.039 35.8203 378.721 35.8203H374.493C374.176 35.8203 373.917 36.0785 373.917 36.3968V49.4746C373.917 49.7924 374.176 50.0511 374.493 50.0511H378.721Z"
		fill="#859291" />
	<path d="M381.088 58.2646H381.995V32.5675H381.088V58.2646Z" fill="#393536" stroke="#0A0F0C"
		stroke-width="0.25" />
	<path
		d="M390.006 58.2645V59.6328M390.006 58.2645H392.044V60.2067H390.02L390.006 59.6328M390.006 58.2645L373.187 58.2645M390.006 59.6328L373.187 59.6328M373.187 58.2645H371.149V60.2067H373.173L373.187 59.6328M373.187 58.2645V59.6328"
		stroke="#0A0F0C" stroke-width="0.25" stroke-miterlimit="10" />
	<path
		d="M372.703 30.7829H390.38C391.934 30.7829 393.2 32.048 393.2 33.603V58.2814H391.415V33.603C391.415 33.0314 390.952 32.5676 390.38 32.5676H372.703C372.13 32.5676 371.667 33.0314 371.667 33.603V58.2814H369.882V33.603C369.882 32.048 371.148 30.7829 372.703 30.7829Z"
		fill="#231F20" />
	<path
		d="M502.249 50.4081H506.478C506.993 50.4081 507.411 49.9899 507.411 49.4746V36.3969C507.411 35.881 506.993 35.4634 506.478 35.4634H502.249C501.734 35.4634 501.316 35.881 501.316 36.3969V49.4746C501.316 49.9899 501.734 50.4081 502.249 50.4081Z"
		fill="#393536" />
	<path
		d="M506.477 50.0511C506.795 50.0511 507.054 49.7924 507.054 49.4746V36.3968C507.054 36.0785 506.795 35.8203 506.477 35.8203H502.249C501.932 35.8203 501.673 36.0785 501.673 36.3968V49.4746C501.673 49.7924 501.932 50.0511 502.249 50.0511H506.477Z"
		fill="#859291" />
	<path
		d="M492.381 50.4081H496.61C497.125 50.4081 497.543 49.9899 497.543 49.4746V36.3969C497.543 35.881 497.125 35.4634 496.61 35.4634H492.381C491.866 35.4634 491.448 35.881 491.448 36.3969V49.4746C491.448 49.9899 491.866 50.4081 492.381 50.4081Z"
		fill="#393536" />
	<path
		d="M496.609 50.0511C496.927 50.0511 497.186 49.7924 497.186 49.4746V36.3968C497.186 36.0785 496.927 35.8203 496.609 35.8203H492.381C492.064 35.8203 491.805 36.0785 491.805 36.3968V49.4746C491.805 49.7924 492.064 50.0511 492.381 50.0511H496.609Z"
		fill="#859291" />
	<path d="M498.976 58.2646H499.883V32.5675H498.976V58.2646Z" fill="#393536" stroke="#0A0F0C"
		stroke-width="0.25" />
	<path
		d="M507.894 58.2645V59.6328M507.894 58.2645H509.932V60.2067H507.908L507.894 59.6328M507.894 58.2645L491.075 58.2645M507.894 59.6328L491.075 59.6328M491.075 58.2645H489.037V60.2067H491.061L491.075 59.6328M491.075 58.2645V59.6328"
		stroke="#0A0F0C" stroke-width="0.25" stroke-miterlimit="10" />
	<path
		d="M490.591 30.7829H508.268C509.822 30.7829 511.088 32.048 511.088 33.603V58.2814H509.303V33.603C509.303 33.0314 508.84 32.5676 508.268 32.5676H490.591C490.018 32.5676 489.555 33.0314 489.555 33.603V58.2814H487.77V33.603C487.77 32.048 489.036 30.7829 490.591 30.7829Z"
		fill="#231F20" />
	<path
		d="M562.537 47.5021H554.817C553.842 47.5021 553.051 46.7119 553.051 45.7366V32.712C553.051 31.7373 553.842 30.9466 554.817 30.9466H562.537C563.512 30.9466 564.302 31.7373 564.302 32.712V45.7366C564.302 46.7119 563.512 47.5021 562.537 47.5021Z"
		stroke="#0A0F0C" stroke-width="0.25" stroke-miterlimit="10" />
	<path
		d="M315.925 47.5021H308.204C307.23 47.5021 306.439 46.7119 306.439 45.7366V32.712C306.439 31.7373 307.23 30.9466 308.204 30.9466H315.925C316.9 30.9466 317.69 31.7373 317.69 32.712V45.7366C317.69 46.7119 316.9 47.5021 315.925 47.5021Z"
		stroke="#0A0F0C" stroke-width="0.25" stroke-miterlimit="10" />
	<path
		d="M356.801 10.428L353.265 16.1966H332.796M583.663 47.9711H592.967M578.243 27.7963C582.5 27.8038 585.291 29.339 587.525 32.1999C588.978 34.0614 591.886 39.1435 592.898 44.2262M570.846 29.7568H300.253M524.115 10.0558L527.186 16.1417H572.777C572.777 16.1417 576.638 16.2351 581.244 20.0961C584.22 22.5915 586.733 25.6875 586.733 25.6875M546.492 10.0559V16.0623M560.309 10.149C561.519 10.8467 568.218 13.2193 574.126 21.2214C578.765 27.5031 582.148 35.8461 583.151 42.4349C584.221 49.4601 583.571 52.6699 581.337 59.8803M588.222 59.9969H579.778V62.0903H588.6L588.222 61.2529V59.9969ZM300.229 55.1122V16.1736H334.702V10.1027H560.868C560.868 10.1027 568.683 9.73022 574.778 13.0335C581.071 16.4446 590.595 28.5251 592.409 39.9228C594.171 50.9877 590.735 59.9275 590.735 59.9275H575.801C575.801 59.9275 571.835 56.7949 570.358 55.7402C567.916 53.9957 566.311 53.5072 549.632 53.5072C530.233 53.5072 528.628 53.9259 524.72 57.2753C520.812 60.6248 519.835 61.4626 519.835 61.4626H360.522C360.522 61.4626 356.892 58.2533 355.078 56.7869C351.799 54.1353 350.961 53.4375 333.935 53.4375C316.908 53.4375 314.674 53.6468 312.79 54.5539C311.271 55.2855 311.395 55.1122 311.395 55.1122H300.229Z"
		stroke="#0A0F0C" stroke-width="0.25" stroke-miterlimit="10" />
	<path
		d="M359.876 36.3457H363.757C363.976 36.3457 364.155 36.5223 364.155 36.7418V39.2185C364.155 39.4391 363.976 39.6173 363.757 39.6173H359.876C359.655 39.6173 359.477 39.4391 359.477 39.2185V36.7418C359.477 36.5223 359.655 36.3457 359.876 36.3457Z"
		fill="#EC1C27" />
	<path
		d="M359.952 36.6801H363.681C363.753 36.6801 363.814 36.7391 363.814 36.8127V39.1487C363.814 39.2222 363.753 39.2823 363.681 39.2823H359.952C359.878 39.2823 359.82 39.2222 359.82 39.1487V36.8127C359.82 36.7391 359.878 36.6801 359.952 36.6801Z"
		fill="#E3E6E3" />
	<path
		d="M360.117 39.0605H360.833C361.442 39.0605 361.767 38.7846 361.767 37.9902C361.767 37.1679 361.456 36.9371 360.833 36.9371H360.117V39.0605Z"
		fill="#EC1C27" />
	<path
		d="M360.625 37.2624H360.779C361.128 37.2624 361.273 37.5753 361.273 37.9983C361.273 38.4218 361.136 38.7347 360.779 38.7347H360.625V37.2624Z"
		fill="#E3E6E3" />
	<path
		d="M362.039 39.0605H362.793C363.113 39.0605 363.553 38.9553 363.553 38.4465C363.553 38.1877 363.429 38.0353 363.19 37.9773V37.9704C363.39 37.8925 363.508 37.7433 363.508 37.4744C363.508 37.1099 363.195 36.9371 362.861 36.9371H362.039V39.0605Z"
		fill="#EC1C27" />
	<path
		d="M362.514 38.1295H362.662C362.826 38.1295 363.045 38.2117 363.045 38.4441C363.045 38.6604 362.83 38.7522 362.656 38.7522H362.514V38.1295Z"
		fill="#E3E6E3" />
	<path
		d="M362.514 37.2451H362.654C362.812 37.2451 362.999 37.3557 362.999 37.5516C362.999 37.7309 362.804 37.8071 362.648 37.8071H362.514V37.2451Z"
		fill="#E3E6E3" />
	<path d="M542.325 43.1889L540.931 50.4417H539.195L540.589 43.1889H542.325Z" fill="#859291" />
	<path
		d="M543.291 49.6821C542.741 49.0106 542.579 47.9918 542.827 46.7014C543.432 43.5484 545.58 43.0283 546.796 43.0283C547.44 43.0283 548.049 43.1523 548.522 43.3751C548.51 43.4357 548.307 44.506 548.288 44.5994C547.839 44.3815 547.447 44.2575 546.819 44.2575C546.288 44.2575 544.995 44.5243 544.578 46.7014C544.372 47.7733 544.443 48.4894 544.786 48.9107C545.03 49.2081 545.4 49.3536 545.917 49.3536C546.432 49.3536 546.923 49.2113 547.53 48.9816C547.506 49.1067 547.305 50.141 547.298 50.178C547 50.3085 546.268 50.5833 545.456 50.5833C544.518 50.5833 543.77 50.272 543.291 49.6821Z"
		fill="#859291" />
	<path d="M309.529 14.3147L321.221 14.4199L321.228 13.9636L309.536 13.8584L309.529 14.3147Z"
		fill="#231F20" stroke="#231F20" stroke-width="0.25" stroke-linejoin="round" />
</svg>
