<svg width="601" height="70" viewBox="0 0 601 70" fill="none" xmlns="http://www.w3.org/2000/svg">
	<path d="M67.2689 61.506H4.83765V51.87H67.2689V61.506Z" fill="url(#paint0_linear_9_1106)" />
	<path
		d="M26.3303 53.745L32.0356 59.009C32.1032 59.0939 32.1859 59.14 32.2712 59.14H32.7602H33.53H38.0887H38.8584H39.3469C39.4322 59.14 39.5154 59.0939 39.5831 59.009L45.2884 53.745H49.0972L49.1031 55.1395C46.378 55.1395 45.8428 55.3912 45.8428 55.3912C45.7645 55.3912 45.6893 55.446 45.6373 55.5421L40.3442 62.4819C40.2347 62.6843 40.078 62.7997 39.9137 62.7997H39.2095H38.0887H33.53H32.4092H31.705C31.5402 62.7997 31.384 62.6843 31.2739 62.4819L25.9814 55.5421C25.9294 55.446 25.8542 55.3912 25.7758 55.3912C25.7758 55.3912 24.1301 55.1395 21.405 55.1395L21.3889 53.745H26.3303Z"
		fill="#393536" stroke="#231F20" stroke-width="0.25" />
	<path
		d="M26.564 59.309C26.564 56.214 24.0551 53.7046 20.9596 53.7046C17.8651 53.7046 15.3558 56.214 15.3558 59.309C15.3558 62.4039 17.8651 64.9133 20.9596 64.9133C24.0551 64.9133 26.564 62.4039 26.564 59.309Z"
		fill="#393536" stroke="#231F20" stroke-width="0.25" />
	<path
		d="M20.9601 63.9296C23.5081 63.9296 25.5806 61.8566 25.5806 59.3086C25.5806 56.7606 23.5081 54.6887 20.9601 54.6887C18.4121 54.6887 16.3391 56.7606 16.3391 59.3086C16.3391 61.8566 18.4121 63.9296 20.9601 63.9296Z"
		fill="#231F20" />
	<path
		d="M20.9603 61.7298C22.2952 61.7298 23.3806 60.6444 23.3806 59.3086C23.3806 57.9737 22.2952 56.8882 20.9603 56.8882C19.6245 56.8882 18.5391 57.9737 18.5391 59.3086C18.5391 60.6444 19.6245 61.7298 20.9603 61.7298Z"
		fill="#393536" />
	<path
		d="M55.9541 59.309C55.9541 56.214 53.4453 53.7046 50.3497 53.7046C47.2553 53.7046 44.7459 56.214 44.7459 59.309C44.7459 62.4039 47.2553 64.9133 50.3497 64.9133C53.4453 64.9133 55.9541 62.4039 55.9541 59.309Z"
		fill="#393536" stroke="#231F20" stroke-width="0.25" />
	<path
		d="M50.3502 63.9296C52.8983 63.9296 54.9707 61.8566 54.9707 59.3086C54.9707 56.7606 52.8983 54.6887 50.3502 54.6887C47.8022 54.6887 45.7292 56.7606 45.7292 59.3086C45.7292 61.8566 47.8022 63.9296 50.3502 63.9296Z"
		fill="#231F20" />
	<path
		d="M50.3504 61.7298C51.6853 61.7298 52.7708 60.6444 52.7708 59.3086C52.7708 57.9737 51.6853 56.8882 50.3504 56.8882C49.0146 56.8882 47.9292 57.9737 47.9292 59.3086C47.9292 60.6444 49.0146 61.7298 50.3504 61.7298Z"
		fill="#393536" />
	<path d="M291.341 61.5061H225.933V51.8701H291.341V61.5061Z" fill="url(#paint1_linear_9_1106)" />
	<path
		d="M250.403 53.745L256.108 59.0091C256.176 59.0939 256.258 59.1401 256.344 59.1401H256.833H257.602H262.161H262.931H263.419C263.505 59.1401 263.588 59.0939 263.655 59.0091L269.361 53.745H273.17L273.175 55.1396C270.45 55.1396 269.915 55.3913 269.915 55.3913C269.837 55.3913 269.762 55.4461 269.71 55.5421L264.416 62.482C264.307 62.6843 264.15 62.7997 263.986 62.7997H263.282H262.161H257.602H256.481H255.777C255.612 62.7997 255.456 62.6843 255.346 62.482L250.054 55.5421C250.002 55.4461 249.926 55.3913 249.848 55.3913C249.848 55.3913 248.202 55.1396 245.477 55.1396L245.461 53.745H250.403Z"
		fill="#393536" stroke="#231F20" stroke-width="0.25" />
	<path
		d="M250.636 59.309C250.636 56.214 248.127 53.7046 245.032 53.7046C241.937 53.7046 239.428 56.214 239.428 59.309C239.428 62.404 241.937 64.9134 245.032 64.9134C248.127 64.9134 250.636 62.404 250.636 59.309Z"
		fill="#393536" stroke="#231F20" stroke-width="0.25" />
	<path
		d="M245.032 63.9297C247.58 63.9297 249.653 61.8567 249.653 59.3087C249.653 56.7606 247.58 54.6887 245.032 54.6887C242.484 54.6887 240.411 56.7606 240.411 59.3087C240.411 61.8567 242.484 63.9297 245.032 63.9297Z"
		fill="#231F20" />
	<path
		d="M245.033 61.7299C246.367 61.7299 247.453 60.6444 247.453 59.3087C247.453 57.9737 246.367 56.8883 245.033 56.8883C243.697 56.8883 242.611 57.9737 242.611 59.3087C242.611 60.6444 243.697 61.7299 245.033 61.7299Z"
		fill="#393536" />
	<path
		d="M280.026 59.309C280.026 56.214 277.518 53.7046 274.422 53.7046C271.328 53.7046 268.818 56.214 268.818 59.309C268.818 62.404 271.328 64.9134 274.422 64.9134C277.518 64.9134 280.026 62.404 280.026 59.309Z"
		fill="#393536" stroke="#231F20" stroke-width="0.25" />
	<path
		d="M274.422 63.9297C276.971 63.9297 279.043 61.8567 279.043 59.3087C279.043 56.7606 276.971 54.6887 274.422 54.6887C271.874 54.6887 269.801 56.7606 269.801 59.3087C269.801 61.8567 271.874 63.9297 274.422 63.9297Z"
		fill="#231F20" />
	<path
		d="M274.423 61.7299C275.758 61.7299 276.843 60.6444 276.843 59.3087C276.843 57.9737 275.758 56.8883 274.423 56.8883C273.087 56.8883 272.001 57.9737 272.001 59.3087C272.001 60.6444 273.087 61.7299 274.423 61.7299Z"
		fill="#393536" />
	<path d="M4.83765 56.5389H0.0867567V22.8724H4.83765V56.5389Z" fill="#393536" />
	<path
		d="M0.984192 56.9938C0.984192 57.121 0.864493 57.2246 0.718493 57.2246C0.572492 57.2246 0.452794 57.121 0.452794 56.9938V22.3697C0.452794 22.243 0.572492 22.1389 0.718493 22.1389C0.864493 22.1389 0.984192 22.243 0.984192 22.3697V56.9938Z"
		fill="#595757" />
	<path
		d="M2.03027 56.9938C2.03027 57.121 1.91057 57.2246 1.76457 57.2246C1.61857 57.2246 1.49888 57.121 1.49888 56.9938V22.3697C1.49888 22.243 1.61857 22.1389 1.76457 22.1389C1.91057 22.1389 2.03027 22.243 2.03027 22.3697V56.9938Z"
		fill="#595757" />
	<path
		d="M3.07654 56.9938C3.07654 57.121 2.95684 57.2246 2.81084 57.2246C2.66377 57.2246 2.54514 57.121 2.54514 56.9938V22.3697C2.54514 22.243 2.66377 22.1389 2.81084 22.1389C2.95684 22.1389 3.07654 22.243 3.07654 22.3697V56.9938Z"
		fill="#595757" />
	<path
		d="M4.12268 56.9938C4.12268 57.121 4.00298 57.2246 3.85698 57.2246C3.71098 57.2246 3.59128 57.121 3.59128 56.9938V22.3697C3.59128 22.243 3.71098 22.1389 3.85698 22.1389C4.00298 22.1389 4.12268 22.243 4.12268 22.3697V56.9938Z"
		fill="#595757" />
	<path d="M296.092 56.5389H291.341V22.8724H296.092V56.5389Z" fill="#393536" />
	<path
		d="M292.484 56.9938C292.484 57.121 292.364 57.2246 292.218 57.2246C292.072 57.2246 291.952 57.121 291.952 56.9938V22.3697C291.952 22.243 292.072 22.1389 292.218 22.1389C292.364 22.1389 292.484 22.243 292.484 22.3697V56.9938Z"
		fill="#595757" />
	<path
		d="M293.53 56.9938C293.53 57.121 293.41 57.2246 293.264 57.2246C293.118 57.2246 292.998 57.121 292.998 56.9938V22.3697C292.998 22.243 293.118 22.1389 293.264 22.1389C293.41 22.1389 293.53 22.243 293.53 22.3697V56.9938Z"
		fill="#595757" />
	<path
		d="M294.576 56.9938C294.576 57.121 294.456 57.2246 294.31 57.2246C294.163 57.2246 294.045 57.121 294.045 56.9938V22.3697C294.045 22.243 294.163 22.1389 294.31 22.1389C294.456 22.1389 294.576 22.243 294.576 22.3697V56.9938Z"
		fill="#595757" />
	<path
		d="M295.622 56.9938C295.622 57.121 295.502 57.2246 295.356 57.2246C295.21 57.2246 295.091 57.121 295.091 56.9938V22.3697C295.091 22.243 295.21 22.1389 295.356 22.1389C295.502 22.1389 295.622 22.243 295.622 22.3697V56.9938Z"
		fill="#595757" />
	<path
		d="M291.255 10.2295H202.003H93.8867H4.63486V55.2389H17.2553C17.2553 55.2389 17.1313 55.4123 18.6509 54.6807C20.5355 53.7741 18.6144 53.5648 35.6412 53.5648C52.6685 53.5648 53.5058 54.2626 56.7854 56.9142C58.5986 58.3806 62.2283 61.5894 62.2283 61.5894H93.8867H202.003H233.662C233.662 61.5894 237.291 58.3806 239.104 56.9142C242.384 54.2626 243.221 53.5648 260.249 53.5648C277.275 53.5648 275.354 53.7741 277.239 54.6807C278.758 55.4123 278.635 55.2389 278.635 55.2389H291.255V10.2295Z"
		fill="#E3E6E3" />
	<path d="M4.75116 39.6636H291.232V36.392H4.75116V39.6636Z" fill="#ED1C24" />
	<path d="M278.635 55.2393H291.18V54.739H277.36C278.747 55.4003 278.635 55.2393 278.635 55.2393Z"
		fill="url(#paint2_linear_9_1106)" />
	<path d="M18.5296 54.739H4.62961V55.2393H17.231C17.231 55.2393 17.1172 55.4003 18.5296 54.739Z"
		fill="url(#paint3_linear_9_1106)" />
	<path
		d="M239.104 56.9142C240.295 55.9512 241.168 55.247 242.607 54.7386H53.2829C54.7225 55.247 55.5942 55.9512 56.7853 56.9142C58.4498 58.2604 61.636 61.0666 62.1502 61.5201H233.74C234.253 61.0666 237.44 58.2604 239.104 56.9142Z"
		fill="url(#paint4_linear_9_1106)" />
	<path d="M291.255 16.3293V10.2295H4.63486V16.3293H291.255Z" fill="url(#paint5_linear_9_1106)" />
	<path
		d="M21.893 39.6241H12.8882C11.9129 39.6241 11.1223 38.834 11.1223 37.8587V32.1781C11.1223 31.2034 11.9129 30.4127 12.8882 30.4127H21.893C22.8678 30.4127 23.6584 31.2034 23.6584 32.1781V37.8587C23.6584 38.834 22.8678 39.6241 21.893 39.6241Z"
		fill="#393536" />
	<path
		d="M11.4795 37.8587V32.1787C11.4795 31.4004 12.1102 30.7702 12.888 30.7702H21.8928C22.6711 30.7702 23.3013 31.4004 23.3013 32.1787V37.8587C23.3013 38.6365 22.6711 39.2672 21.8928 39.2672H12.888C12.1102 39.2672 11.4795 38.6365 11.4795 37.8587Z"
		fill="#859291" />
	<path
		d="M40.0858 39.6241H31.081C30.1057 39.6241 29.315 38.834 29.315 37.8587V32.1781C29.315 31.2034 30.1057 30.4127 31.081 30.4127H40.0858C41.0605 30.4127 41.8512 31.2034 41.8512 32.1781V37.8587C41.8512 38.834 41.0605 39.6241 40.0858 39.6241Z"
		fill="#393536" />
	<path
		d="M29.6724 37.8587V32.1787C29.6724 31.4004 30.3031 30.7702 31.0809 30.7702H40.0857C40.864 30.7702 41.4941 31.4004 41.4941 32.1787V37.8587C41.4941 38.6365 40.864 39.2672 40.0857 39.2672H31.0809C30.3031 39.2672 29.6724 38.6365 29.6724 37.8587Z"
		fill="#859291" />
	<path
		d="M256.126 39.7294H250.833C250.145 39.7294 249.586 39.1712 249.586 38.4825V31.6538C249.586 30.9651 250.145 30.4069 250.833 30.4069H256.126C256.815 30.4069 257.373 30.9651 257.373 31.6538V38.4825C257.373 39.1712 256.815 39.7294 256.126 39.7294Z"
		fill="#393536" />
	<path
		d="M250.062 38.4826V31.6539C250.062 31.2277 250.408 30.8826 250.833 30.8826H256.126C256.552 30.8826 256.897 31.2277 256.897 31.6539V38.4826C256.897 38.9083 256.552 39.2534 256.127 39.2534H250.833C250.407 39.2534 250.062 38.9083 250.062 38.4826Z"
		fill="#859291" />
	<path
		d="M199.474 50.7193H96.6547C95.4663 50.7193 94.5028 49.7558 94.5028 48.5669V43.2411C94.5028 42.0527 95.4663 41.0892 96.6547 41.0892H199.474C200.663 41.0892 201.627 42.0527 201.627 43.2411V48.5669C201.627 49.7558 200.663 50.7193 199.474 50.7193Z"
		fill="#231F20" />
	<path
		d="M95.4351 48.5996V43.2685C95.4351 42.4902 96.0658 41.86 96.8436 41.86H110.382C111.161 41.86 111.791 42.4902 111.791 43.2685V48.5996C111.791 49.3774 111.161 50.0081 110.382 50.0081H96.8436C96.0658 50.0081 95.4351 49.3774 95.4351 48.5996Z"
		fill="#859291" />
	<path
		d="M117.682 48.5996V43.2685C117.682 42.4902 118.312 41.86 119.09 41.86H132.629C133.407 41.86 134.037 42.4902 134.037 43.2685V48.5996C134.037 49.3774 133.407 50.0081 132.629 50.0081H119.09C118.312 50.0081 117.682 49.3774 117.682 48.5996Z"
		fill="#859291" />
	<path
		d="M139.928 48.5996V43.2685C139.928 42.4902 140.559 41.86 141.337 41.86H154.876C155.654 41.86 156.284 42.4902 156.284 43.2685V48.5996C156.284 49.3774 155.654 50.0081 154.876 50.0081H141.337C140.559 50.0081 139.928 49.3774 139.928 48.5996Z"
		fill="#859291" />
	<path
		d="M162.175 48.5996V43.2685C162.175 42.4902 162.805 41.86 163.583 41.86H177.122C177.9 41.86 178.531 42.4902 178.531 43.2685V48.5996C178.531 49.3774 177.9 50.0081 177.122 50.0081H163.583C162.805 50.0081 162.175 49.3774 162.175 48.5996Z"
		fill="#859291" />
	<path
		d="M184.421 48.5996V43.2685C184.421 42.4902 185.052 41.86 185.83 41.86H199.369C200.147 41.86 200.777 42.4902 200.777 43.2685V48.5996C200.777 49.3774 200.147 50.0081 199.369 50.0081H185.83C185.052 50.0081 184.421 49.3774 184.421 48.5996Z"
		fill="#859291" />
	<path
		d="M218.734 26.4063H77.325C76.1366 26.4063 75.1726 25.4428 75.1726 24.2539V18.9281C75.1726 17.7397 76.1366 16.7767 77.325 16.7767H218.734C219.923 16.7767 220.887 17.7397 220.887 18.9281V24.2539C220.887 25.4428 219.923 26.4063 218.734 26.4063Z"
		fill="#231F20" />
	<path
		d="M110.383 26.0809H96.8437C95.8689 26.0809 95.0783 25.2908 95.0783 24.3154V18.9838C95.0783 18.009 95.8689 17.2189 96.8437 17.2189H110.383C111.357 17.2189 112.148 18.009 112.148 18.9838V24.3154C112.148 25.2908 111.357 26.0809 110.383 26.0809Z"
		fill="#393536" />
	<path
		d="M95.4351 24.3153V18.9841C95.4351 18.2058 96.0658 17.5756 96.8436 17.5756H110.382C111.161 17.5756 111.791 18.2058 111.791 18.9841V24.3153C111.791 25.0931 111.161 25.7238 110.382 25.7238H96.8436C96.0658 25.7238 95.4351 25.0931 95.4351 24.3153Z"
		fill="#859291" />
	<path
		d="M132.629 26.0809H119.09C118.115 26.0809 117.325 25.2908 117.325 24.3154V18.9838C117.325 18.009 118.115 17.2189 119.09 17.2189H132.629C133.604 17.2189 134.394 18.009 134.394 18.9838V24.3154C134.394 25.2908 133.604 26.0809 132.629 26.0809Z"
		fill="#393536" />
	<path
		d="M117.682 24.3153V18.9841C117.682 18.2058 118.312 17.5756 119.09 17.5756H132.629C133.407 17.5756 134.037 18.2058 134.037 18.9841V24.3153C134.037 25.0931 133.407 25.7238 132.629 25.7238H119.09C118.312 25.7238 117.682 25.0931 117.682 24.3153Z"
		fill="#859291" />
	<path
		d="M154.876 26.0809H141.337C140.362 26.0809 139.571 25.2908 139.571 24.3154V18.9838C139.571 18.009 140.362 17.2189 141.337 17.2189H154.876C155.85 17.2189 156.641 18.009 156.641 18.9838V24.3154C156.641 25.2908 155.85 26.0809 154.876 26.0809Z"
		fill="#393536" />
	<path
		d="M139.928 24.3153V18.9841C139.928 18.2058 140.559 17.5756 141.337 17.5756H154.876C155.654 17.5756 156.284 18.2058 156.284 18.9841V24.3153C156.284 25.0931 155.654 25.7238 154.876 25.7238H141.337C140.559 25.7238 139.928 25.0931 139.928 24.3153Z"
		fill="#859291" />
	<path
		d="M177.122 26.0809H163.583C162.609 26.0809 161.818 25.2908 161.818 24.3154V18.9838C161.818 18.009 162.609 17.2189 163.583 17.2189H177.122C178.097 17.2189 178.888 18.009 178.888 18.9838V24.3154C178.888 25.2908 178.097 26.0809 177.122 26.0809Z"
		fill="#393536" />
	<path
		d="M162.175 24.3153V18.9841C162.175 18.2058 162.805 17.5756 163.583 17.5756H177.122C177.9 17.5756 178.531 18.2058 178.531 18.9841V24.3153C178.531 25.0931 177.9 25.7238 177.122 25.7238H163.583C162.805 25.7238 162.175 25.0931 162.175 24.3153Z"
		fill="#859291" />
	<path
		d="M199.369 26.0809H185.83C184.855 26.0809 184.064 25.2908 184.064 24.3154V18.9838C184.064 18.009 184.855 17.2189 185.83 17.2189H199.369C200.343 17.2189 201.134 18.009 201.134 18.9838V24.3154C201.134 25.2908 200.343 26.0809 199.369 26.0809Z"
		fill="#393536" />
	<path
		d="M184.421 24.3153V18.9841C184.421 18.2058 185.052 17.5756 185.83 17.5756H199.369C200.147 17.5756 200.777 18.2058 200.777 18.9841V24.3153C200.777 25.0931 200.147 25.7238 199.369 25.7238H185.83C185.052 25.7238 184.421 25.0931 184.421 24.3153Z"
		fill="#859291" />
	<path
		d="M77.5352 26.0236H82.0988C83.0741 26.0236 83.8647 25.2334 83.8647 24.2581V18.9264C83.8647 17.9517 83.0741 17.1616 82.0988 17.1616H77.5352C76.5604 17.1616 75.7698 17.9517 75.7698 18.9264V24.2581C75.7698 25.2334 76.5604 26.0236 77.5352 26.0236Z"
		fill="#393536" />
	<path
		d="M83.3887 24.2581V18.9269C83.3887 18.2146 82.8111 17.6371 82.0988 17.6371H77.5352C76.823 17.6371 76.2454 18.2146 76.2454 18.9269V24.2581C76.2454 24.9704 76.823 25.5479 77.5352 25.5479H82.0988C82.8111 25.5479 83.3887 24.9704 83.3887 24.2581Z"
		fill="#859291" />
	<path
		d="M218.524 26.0236H213.961C212.985 26.0236 212.195 25.2334 212.195 24.2581V18.9264C212.195 17.9517 212.985 17.1616 213.961 17.1616H218.524C219.499 17.1616 220.29 17.9517 220.29 18.9264V24.2581C220.29 25.2334 219.499 26.0236 218.524 26.0236Z"
		fill="#393536" />
	<path
		d="M212.671 24.2581V18.9269C212.671 18.2146 213.248 17.6371 213.961 17.6371H218.524C219.237 17.6371 219.814 18.2146 219.814 18.9269V24.2581C219.814 24.9704 219.237 25.5479 218.524 25.5479H213.961C213.248 25.5479 212.671 24.9704 212.671 24.2581Z"
		fill="#859291" />
	<path
		d="M82.7409 50.4081H86.9696C87.4849 50.4081 87.9025 49.9899 87.9025 49.4746V36.3969C87.9025 35.881 87.4849 35.4634 86.9696 35.4634H82.7409C82.2256 35.4634 81.8075 35.881 81.8075 36.3969V49.4746C81.8075 49.9899 82.2256 50.4081 82.7409 50.4081Z"
		fill="#393536" />
	<path
		d="M86.9693 50.0511C87.2871 50.0511 87.5458 49.7924 87.5458 49.4746V36.3968C87.5458 36.0785 87.2871 35.8203 86.9693 35.8203H82.7406C82.4234 35.8203 82.1647 36.0785 82.1647 36.3968V49.4746C82.1647 49.7924 82.4234 50.0511 82.7406 50.0511H86.9693Z"
		fill="#859291" />
	<path
		d="M72.873 50.4081H77.1016C77.6169 50.4081 78.035 49.9899 78.035 49.4746V36.3969C78.035 35.881 77.6169 35.4634 77.1016 35.4634H72.873C72.3577 35.4634 71.9395 35.881 71.9395 36.3969V49.4746C71.9395 49.9899 72.3577 50.4081 72.873 50.4081Z"
		fill="#393536" />
	<path
		d="M77.1014 50.0511C77.4191 50.0511 77.6779 49.7924 77.6779 49.4746V36.3968C77.6779 36.0785 77.4191 35.8203 77.1014 35.8203H72.8727C72.5555 35.8203 72.2968 36.0785 72.2968 36.3968V49.4746C72.2968 49.7924 72.5555 50.0511 72.8727 50.0511H77.1014Z"
		fill="#859291" />
	<path d="M79.4676 58.2646H80.3748V32.5675H79.4676V58.2646Z" fill="#393536" />
	<path
		d="M71.0825 30.7829H88.7598C90.3143 30.7829 91.58 32.048 91.58 33.603V58.2814H89.7952V33.603C89.7952 33.0314 89.3314 32.5676 88.7598 32.5676H71.0825C70.5103 32.5676 70.0465 33.0314 70.0465 33.603V58.2814H68.2623V33.603C68.2623 32.048 69.5275 30.7829 71.0825 30.7829Z"
		fill="#231F20" />
	<path d="M68.2623 58.2813L91.58 58.2812" stroke="#0A0F0C" stroke-width="0.25"
		stroke-miterlimit="10" />
	<path
		d="M218.998 50.4081H223.226C223.742 50.4081 224.159 49.9899 224.159 49.4746V36.3969C224.159 35.881 223.742 35.4634 223.226 35.4634H218.998C218.482 35.4634 218.064 35.881 218.064 36.3969V49.4746C218.064 49.9899 218.482 50.4081 218.998 50.4081Z"
		fill="#393536" />
	<path
		d="M223.226 50.0511C223.544 50.0511 223.802 49.7924 223.802 49.4746V36.3968C223.802 36.0785 223.544 35.8203 223.226 35.8203H218.997C218.68 35.8203 218.421 36.0785 218.421 36.3968V49.4746C218.421 49.7924 218.68 50.0511 218.997 50.0511H223.226Z"
		fill="#859291" />
	<path
		d="M209.13 50.4081H213.358C213.874 50.4081 214.292 49.9899 214.292 49.4746V36.3969C214.292 35.881 213.874 35.4634 213.358 35.4634H209.13C208.614 35.4634 208.196 35.881 208.196 36.3969V49.4746C208.196 49.9899 208.614 50.4081 209.13 50.4081Z"
		fill="#393536" />
	<path
		d="M213.358 50.0511C213.676 50.0511 213.935 49.7924 213.935 49.4746V36.3968C213.935 36.0785 213.676 35.8203 213.358 35.8203H209.129C208.812 35.8203 208.553 36.0785 208.553 36.3968V49.4746C208.553 49.7924 208.812 50.0511 209.129 50.0511H213.358Z"
		fill="#859291" />
	<path d="M215.724 58.2646H216.631V32.5675H215.724V58.2646Z" fill="#393536" />
	<path
		d="M207.339 30.7829H225.017C226.571 30.7829 227.837 32.048 227.837 33.603V58.2814H226.052V33.603C226.052 33.0314 225.588 32.5676 225.017 32.5676H207.339C206.767 32.5676 206.303 33.0314 206.303 33.603V58.2814H204.519V33.603C204.519 32.048 205.784 30.7829 207.339 30.7829Z"
		fill="#231F20" />
	<path d="M204.519 58.2813L227.837 58.2812" stroke="#0A0F0C" stroke-width="0.25"
		stroke-miterlimit="10" />
	<path
		d="M4.63791 29.9181H291.258M291.258 10.15V55.1594H278.638C278.638 55.1594 278.761 55.3328 277.242 54.6012C275.357 53.6946 277.278 53.4852 260.252 53.4852C243.224 53.4852 242.387 54.183 239.107 56.8346C237.294 58.3011 233.664 61.5099 233.664 61.5099H62.2313C62.2313 61.5099 58.6017 58.3011 56.7885 56.8346C53.5089 54.183 52.6715 53.4852 35.6442 53.4852C18.6175 53.4852 20.5385 53.6946 18.654 54.6012C17.1344 55.3328 17.2584 55.1594 17.2584 55.1594H4.63791V10.15H291.258Z"
		stroke="#0A0F0C" stroke-width="0.25" stroke-miterlimit="10" />
	<path d="M51.2588 39.9308H58.9915V36.0543H51.2588V39.9308Z" fill="#E3E6E3" />
	<path
		d="M53.1857 36.357H57.0665C57.2861 36.357 57.4648 36.5336 57.4648 36.7531V39.2298C57.4648 39.4504 57.2861 39.6286 57.0665 39.6286H53.1857C52.9657 39.6286 52.7864 39.4504 52.7864 39.2298V36.7531C52.7864 36.5336 52.9657 36.357 53.1857 36.357Z"
		fill="#EC1C27" />
	<path
		d="M53.2613 36.6914H56.9908C57.0632 36.6914 57.1233 36.7505 57.1233 36.824V39.16C57.1233 39.2336 57.0632 39.2937 56.9908 39.2937H53.2613C53.1878 39.2937 53.1293 39.2336 53.1293 39.16V36.824C53.1293 36.7505 53.1878 36.6914 53.2613 36.6914Z"
		fill="#E3E6E3" />
	<path
		d="M53.4262 39.0719H54.1423C54.7515 39.0719 55.0757 38.796 55.0757 38.0016C55.0757 37.1792 54.766 36.9484 54.1423 36.9484H53.4262V39.0719Z"
		fill="#EC1C27" />
	<path
		d="M53.9346 37.2737H54.0886C54.4375 37.2737 54.583 37.5867 54.583 38.0096C54.583 38.4331 54.445 38.7461 54.0886 38.7461H53.9346V37.2737Z"
		fill="#E3E6E3" />
	<path
		d="M55.3483 39.0719H56.1025C56.4229 39.0719 56.8625 38.9667 56.8625 38.4578C56.8625 38.1991 56.7391 38.0467 56.5002 37.9887V37.9817C56.7004 37.9039 56.8175 37.7547 56.8175 37.4857C56.8175 37.1213 56.5045 36.9484 56.1707 36.9484H55.3483V39.0719Z"
		fill="#EC1C27" />
	<path
		d="M55.824 38.1409H55.9722C56.1359 38.1409 56.3544 38.2231 56.3544 38.4555C56.3544 38.6718 56.1402 38.7636 55.9657 38.7636H55.824V38.1409Z"
		fill="#E3E6E3" />
	<path
		d="M55.824 37.2565H55.9636C56.1209 37.2565 56.3087 37.367 56.3087 37.563C56.3087 37.7422 56.1139 37.8185 55.9582 37.8185H55.824V37.2565Z"
		fill="#E3E6E3" />
	<path d="M367.953 61.5061H300.229V51.8701H367.953V61.5061Z" fill="url(#paint6_linear_9_1106)" />
	<path
		d="M324.7 53.7451L330.405 59.0092C330.472 59.094 330.555 59.1401 330.64 59.1401H331.129H331.899H336.458H337.228H337.716C337.801 59.1401 337.885 59.094 337.952 59.0092L343.658 53.7451H347.466L347.472 55.1396C344.747 55.1396 344.212 55.3914 344.212 55.3914C344.134 55.3914 344.059 55.4461 344.006 55.5422L338.713 62.482C338.604 62.6844 338.447 62.7998 338.283 62.7998H337.579H336.458H331.899H330.778H330.074C329.909 62.7998 329.753 62.6844 329.643 62.482L324.351 55.5422C324.299 55.4461 324.223 55.3914 324.145 55.3914C324.145 55.3914 322.499 55.1396 319.774 55.1396L319.758 53.7451H324.7Z"
		fill="#393536" stroke="#231F20" stroke-width="0.25" />
	<path
		d="M324.933 59.309C324.933 56.214 322.424 53.7046 319.329 53.7046C316.234 53.7046 313.725 56.214 313.725 59.309C313.725 62.404 316.234 64.9134 319.329 64.9134C322.424 64.9134 324.933 62.404 324.933 59.309Z"
		fill="#393536" stroke="#231F20" stroke-width="0.25" />
	<path
		d="M319.329 63.9297C321.877 63.9297 323.95 61.8567 323.95 59.3087C323.95 56.7606 321.877 54.6887 319.329 54.6887C316.781 54.6887 314.708 56.7606 314.708 59.3087C314.708 61.8567 316.781 63.9297 319.329 63.9297Z"
		fill="#231F20" />
	<path
		d="M319.329 61.7299C320.664 61.7299 321.75 60.6444 321.75 59.3087C321.75 57.9737 320.664 56.8883 319.329 56.8883C317.994 56.8883 316.908 57.9737 316.908 59.3087C316.908 60.6444 317.994 61.7299 319.329 61.7299Z"
		fill="#393536" />
	<path
		d="M354.323 59.309C354.323 56.214 351.815 53.7046 348.719 53.7046C345.625 53.7046 343.115 56.214 343.115 59.309C343.115 62.404 345.625 64.9134 348.719 64.9134C351.815 64.9134 354.323 62.404 354.323 59.309Z"
		fill="#393536" stroke="#231F20" stroke-width="0.25" />
	<path
		d="M348.719 63.9297C351.268 63.9297 353.34 61.8567 353.34 59.3087C353.34 56.7606 351.268 54.6887 348.719 54.6887C346.171 54.6887 344.098 56.7606 344.098 59.3087C344.098 61.8567 346.171 63.9297 348.719 63.9297Z"
		fill="#231F20" />
	<path
		d="M348.72 61.7299C350.055 61.7299 351.14 60.6444 351.14 59.3087C351.14 57.9737 350.055 56.8883 348.72 56.8883C347.384 56.8883 346.298 57.9737 346.298 59.3087C346.298 60.6444 347.384 61.7299 348.72 61.7299Z"
		fill="#393536" />
	<path d="M580.182 61.5121H517.541V51.8761H580.182V61.5121Z" fill="url(#paint7_linear_9_1106)" />
	<path
		d="M536.929 53.7511L542.634 59.0152C542.702 59.1 542.785 59.1462 542.87 59.1462H543.359H544.129H548.688H549.457H549.946C550.031 59.1462 550.114 59.1 550.182 59.0152L555.887 53.7511H559.696L559.702 55.1457C556.977 55.1457 556.442 55.3974 556.442 55.3974C556.363 55.3974 556.288 55.4522 556.236 55.5482L550.943 62.4881C550.834 62.6904 550.677 62.8058 550.513 62.8058H549.808H548.688H544.129H543.008H542.304C542.139 62.8058 541.983 62.6904 541.873 62.4881L536.58 55.5482C536.528 55.4522 536.453 55.3974 536.375 55.3974C536.375 55.3974 534.729 55.1457 532.004 55.1457L531.988 53.7511H536.929Z"
		fill="#393536" stroke="#231F20" stroke-width="0.25" />
	<path
		d="M537.163 59.3151C537.163 56.2201 534.654 53.7107 531.558 53.7107C528.464 53.7107 525.955 56.2201 525.955 59.3151C525.955 62.4101 528.464 64.9194 531.558 64.9194C534.654 64.9194 537.163 62.4101 537.163 59.3151Z"
		fill="#393536" stroke="#231F20" stroke-width="0.25" />
	<path
		d="M531.559 63.9357C534.107 63.9357 536.179 61.8627 536.179 59.3147C536.179 56.7667 534.107 54.6948 531.559 54.6948C529.011 54.6948 526.938 56.7667 526.938 59.3147C526.938 61.8627 529.011 63.9357 531.559 63.9357Z"
		fill="#231F20" />
	<path
		d="M531.559 61.7359C532.894 61.7359 533.979 60.6505 533.979 59.3147C533.979 57.9798 532.894 56.8943 531.559 56.8943C530.223 56.8943 529.138 57.9798 529.138 59.3147C529.138 60.6505 530.223 61.7359 531.559 61.7359Z"
		fill="#393536" />
	<path
		d="M566.553 59.3151C566.553 56.2201 564.044 53.7107 560.949 53.7107C557.854 53.7107 555.345 56.2201 555.345 59.3151C555.345 62.4101 557.854 64.9194 560.949 64.9194C564.044 64.9194 566.553 62.4101 566.553 59.3151Z"
		fill="#393536" stroke="#231F20" stroke-width="0.25" />
	<path
		d="M560.949 63.9357C563.497 63.9357 565.57 61.8627 565.57 59.3147C565.57 56.7667 563.497 54.6948 560.949 54.6948C558.401 54.6948 556.328 56.7667 556.328 59.3147C556.328 61.8627 558.401 63.9357 560.949 63.9357Z"
		fill="#231F20" />
	<path
		d="M560.949 61.7359C562.284 61.7359 563.37 60.6505 563.37 59.3147C563.37 57.9798 562.284 56.8943 560.949 56.8943C559.613 56.8943 558.528 57.9798 558.528 59.3147C558.528 60.6505 559.613 61.7359 560.949 61.7359Z"
		fill="#393536" />
	<path d="M595.682 54.1091H591.357V51.876H595.682V54.1091Z" fill="#3F4545" stroke="#231F20"
		stroke-width="0.25" />
	<path
		d="M600.781 54.8789L599.249 53.2053H597.973V53.7418H599.129L600.512 55.1797L600.781 54.8789Z"
		fill="#3F4545" stroke="black" stroke-width="0.25" />
	<path d="M597.936 52.9355L599.286 51.0583L597.936 50.3064V52.9355Z" fill="#3F4545"
		stroke="#231F20" stroke-width="0.25" />
	<path d="M597.067 55.6672H597.946V49.6559H597.067V55.6672Z" fill="#3F4545" stroke="#231F20"
		stroke-width="0.25" />
	<path d="M595.136 55.0424H597.067V50.2802H595.136V55.0424Z" fill="#3F4545" stroke="#231F20"
		stroke-width="0.25" />
	<path d="M295.683 56.5389H300.434V22.8724H295.683V56.5389Z" fill="#393536" />
	<path
		d="M299.309 56.9938C299.309 57.121 299.429 57.2246 299.574 57.2246C299.721 57.2246 299.84 57.121 299.84 56.9938V22.3697C299.84 22.243 299.721 22.1389 299.574 22.1389C299.429 22.1389 299.309 22.243 299.309 22.3697V56.9938Z"
		fill="#595757" />
	<path
		d="M298.262 56.9938C298.262 57.121 298.382 57.2246 298.528 57.2246C298.674 57.2246 298.793 57.121 298.793 56.9938V22.3697C298.793 22.243 298.674 22.1389 298.528 22.1389C298.382 22.1389 298.262 22.243 298.262 22.3697V56.9938Z"
		fill="#595757" />
	<path
		d="M297.216 56.9938C297.216 57.121 297.335 57.2246 297.481 57.2246C297.627 57.2246 297.747 57.121 297.747 56.9938V22.3697C297.747 22.243 297.627 22.1389 297.481 22.1389C297.335 22.1389 297.216 22.243 297.216 22.3697V56.9938Z"
		fill="#595757" />
	<path
		d="M296.169 56.9938C296.169 57.121 296.289 57.2246 296.435 57.2246C296.581 57.2246 296.701 57.121 296.701 56.9938V22.3697C296.701 22.243 296.581 22.1389 296.435 22.1389C296.289 22.1389 296.169 22.243 296.169 22.3697V56.9938Z"
		fill="#595757" />
	<path
		d="M300.143 55.0221V16.0835H334.616V10.0126H560.781C560.781 10.0126 568.597 9.64013 574.691 12.9434C580.985 16.3545 590.509 28.435 592.323 39.8327C594.084 50.8976 590.648 59.8374 590.648 59.8374H575.714C575.714 59.8374 571.747 56.7048 570.271 55.6501C567.829 53.9056 566.224 53.4172 549.546 53.4172C530.147 53.4172 528.541 53.8358 524.633 57.1852C520.726 60.5347 519.749 61.3726 519.749 61.3726H360.435C360.435 61.3726 356.805 58.1632 354.992 56.6968C351.712 54.0452 350.875 53.3474 333.848 53.3474C316.821 53.3474 314.588 53.5567 312.704 54.4638C311.184 55.1955 311.308 55.0221 311.308 55.0221H300.143Z"
		fill="#E3E6E3" />
	<path
		d="M300.143 55.0221V16.0835H334.616V10.0126H560.781C560.781 10.0126 568.597 9.64013 574.691 12.9434C580.985 16.3545 590.509 28.435 592.323 39.8327C594.084 50.8976 590.648 59.8374 590.648 59.8374H575.714C575.714 59.8374 571.747 56.7048 570.271 55.6501C567.829 53.9056 566.224 53.4172 549.546 53.4172C530.147 53.4172 528.541 53.8358 524.633 57.1852C520.726 60.5347 519.749 61.3726 519.749 61.3726H360.435C360.435 61.3726 356.805 58.1632 354.992 56.6968C351.712 54.0452 350.875 53.3474 333.848 53.3474C316.821 53.3474 314.588 53.5567 312.704 54.4638C311.184 55.1955 311.308 55.0221 311.308 55.0221H300.143Z"
		fill="url(#paint8_linear_9_1106)" />
	<path
		d="M590.735 59.9274H581.35C582.902 54.9167 583.683 51.8152 583.657 48.0314H592.88C592.611 55.0454 590.735 59.9274 590.735 59.9274Z"
		fill="url(#paint9_linear_9_1106)" />
	<path
		d="M578.175 27.7963C582.433 27.8038 585.291 29.3389 587.525 32.1999C588.978 34.0614 591.886 39.1435 592.898 44.2261L592.88 48.0315H583.657C583.645 46.3705 583.478 44.578 583.151 42.4348C582.471 37.9655 580.695 32.689 578.175 27.7963Z"
		fill="url(#paint10_linear_9_1106)" />
	<path
		d="M587.525 32.1999C585.291 29.3389 582.433 27.8038 578.175 27.7963C576.981 25.476 575.618 23.242 574.126 21.2213C568.218 13.2192 562.077 10.8005 560.868 10.1027C560.868 10.1027 568.683 9.73019 574.778 13.0334C581.071 16.4446 590.595 28.525 592.409 39.9227C592.645 41.4005 592.787 42.8404 592.858 44.2262C591.846 39.1435 588.978 34.0614 587.525 32.1999Z"
		fill="url(#paint11_linear_9_1106)" />
	<path fill-rule="evenodd" clip-rule="evenodd"
		d="M541.521 36.3962C554.338 36.5036 562.874 39.853 568.178 43.2024C568.657 43.5049 569.111 43.7938 569.545 44.0698C576.596 48.5549 578.279 49.6253 592.741 49.6688L592.509 51.212C577.017 50.9716 575.714 50.3205 568.736 46.2727C562.635 42.7338 556.315 40.2717 543.661 39.7596C541.218 39.6609 436.974 39.6636 365.682 39.6771V36.3935L541.521 36.3962ZM357.95 36.3934V39.6786C324.568 39.6855 300.143 39.6941 300.143 39.6941V36.3925L357.95 36.3934Z"
		fill="#ED1C24" />
	<path
		d="M589.336 37.4462C589.787 38.3056 590.174 39.0184 590.414 39.5616C590.624 40.0366 590.274 40.567 589.755 40.567H572.417C571.49 40.567 570.739 39.816 570.739 38.8896V30.4242C570.739 29.4978 571.49 28.7468 572.417 28.7468H578.189C578.238 28.7468 578.288 28.7522 578.336 28.7613C583.788 29.7576 587.277 33.5257 589.336 37.4462Z"
		fill="#231F20" stroke="#0A0F0C" stroke-width="0.25" />
	<path d="M300.175 54.6471H312.469C311.231 55.2306 311.34 55.0781 311.34 55.0781H300.175V54.6471Z"
		fill="url(#paint12_linear_9_1106)" />
	<path d="M588.167 59.9631H579.724V62.0565H588.545L588.167 61.2191V59.9631Z"
		fill="url(#paint13_linear_9_1106)" />
	<path
		d="M568.443 54.6472H592.066C591.443 57.9059 590.68 59.8935 590.68 59.8935H575.746C575.746 59.8935 571.78 56.7609 570.303 55.7067C569.71 55.2827 569.165 54.9338 568.443 54.6472Z"
		fill="url(#paint14_linear_9_1106)" />
	<path
		d="M355.024 56.753C353.886 55.8335 353.041 55.1491 351.715 54.6467H528.926C527.18 55.2109 526.071 56.0364 524.665 57.2415C520.758 60.5909 519.781 61.4282 519.781 61.4282H360.467C360.467 61.4282 356.837 58.2194 355.024 56.753Z"
		fill="url(#paint15_linear_9_1106)" />
	<path
		d="M334.647 16.1398V10.0684H560.813C560.813 10.0684 568.628 9.69589 574.722 12.9991C576.03 13.7082 577.478 14.7952 578.966 16.1682C581.59 18.5783 584.253 21.9166 586.604 25.6813C586.274 25.2808 583.917 22.4558 581.157 20.1424C576.552 16.2814 572.695 16.1682 572.695 16.1682L334.647 16.1398Z"
		fill="url(#paint16_linear_9_1106)" />
	<path
		d="M546.452 10.1489H560.781C560.781 10.1489 568.596 9.77636 574.691 13.0796C578.288 15.0297 582.939 19.8133 586.604 25.6813C586.274 25.2808 583.917 22.4558 581.157 20.1424C576.552 16.2814 572.69 16.188 572.69 16.188H546.452V10.1489Z"
		fill="url(#paint17_linear_9_1106)" />
	<path d="M331.2 16.2155H329.411V14.8274H331.2V16.2155Z" fill="#231F20" />
	<path d="M316.704 16.2642H314.915V14.8761H316.704V16.2642Z" fill="#231F20" />
	<path d="M327.038 12.5945H326.708V14.7244H327.038V12.5945Z" fill="#393536" />
	<path d="M329.285 12.5945H328.955V14.7244H329.285V12.5945Z" fill="#393536" />
	<path d="M331.531 12.5945H331.2V14.7244H331.531V12.5945Z" fill="#393536" />
	<path d="M327.039 12.5944H326.708V14.7242H327.039V12.5944Z" fill="#231F20" />
	<path d="M329.285 12.5944H328.955V14.7242H329.285V12.5944Z" fill="#231F20" />
	<path d="M331.53 12.5944H331.2V14.7242H331.53V12.5944Z" fill="#231F20" />
	<path d="M327.039 12.5944H326.708V14.7242H327.039V12.5944Z" stroke="#231F20" stroke-width="0.25"
		stroke-linejoin="round" />
	<path d="M329.285 12.5944H328.955V14.7242H329.285V12.5944Z" stroke="#231F20" stroke-width="0.25"
		stroke-linejoin="round" />
	<path d="M331.53 12.5944H331.2V14.7242H331.53V12.5944Z" stroke="#231F20" stroke-width="0.25"
		stroke-linejoin="round" />
	<path d="M305.85 14.5035L310.433 14.0284L310.371 13.6769L305.789 14.1519L305.85 14.5035Z"
		fill="#231F20" stroke="#231F20" stroke-width="0.25" stroke-linejoin="round" />
	<path d="M327.039 13.3041L310.208 13.7099L327.039 13.3041Z" fill="#393536" />
	<path d="M327.039 13.3041L310.208 13.7099" stroke="#231F20" stroke-width="0.25"
		stroke-linejoin="round" />
	<path d="M327.039 13.5069L310.208 13.9127L327.039 13.5069Z" fill="#393536" />
	<path d="M327.039 13.5069L310.208 13.9127" stroke="#231F20" stroke-width="0.25"
		stroke-linejoin="round" />
	<path d="M314.915 15.1805H332.155V14.4199H314.915V15.1805Z" fill="#231F20" stroke="#231F20"
		stroke-width="0.25" stroke-linejoin="round" />
	<path d="M314.914 15.1803L305.911 14.3791" stroke="#231F20" stroke-width="0.25"
		stroke-linejoin="round" />
	<rect width="4.82214" height="0.900635" transform="matrix(-1 0 0 1 331.53 12.9062)" fill="#231F20" />
	<path d="M309.529 14.3147L321.221 14.4199L321.228 13.9636L309.536 13.8584L309.529 14.3147Z"
		fill="#231F20" stroke="#231F20" stroke-width="0.25" stroke-linejoin="round" />
	<path
		d="M528.645 39.6488H533.435C534.124 39.6488 534.682 39.0906 534.682 38.4019V31.5732C534.682 30.8845 534.124 30.3263 533.435 30.3263H528.645C527.957 30.3263 527.398 30.8845 527.398 31.5732V38.4019C527.398 39.0906 527.957 39.6488 528.645 39.6488Z"
		fill="#393536" />
	<path
		d="M533.435 39.1729C533.86 39.1729 534.206 38.8272 534.206 38.4021V31.5734C534.206 31.1477 533.86 30.802 533.435 30.802H528.645C528.22 30.802 527.875 31.1477 527.875 31.5734V38.4021C527.875 38.8272 528.22 39.1729 528.645 39.1729H533.435Z"
		fill="#859291" />
	<path
		d="M398.615 50.6685H482.823C484.012 50.6685 484.975 49.705 484.975 48.516V43.1902C484.975 42.0018 484.012 41.0383 482.823 41.0383H398.615C397.427 41.0383 396.463 42.0018 396.463 43.1902V48.516C396.463 49.705 397.427 50.6685 398.615 50.6685Z"
		fill="#231F20" />
	<path
		d="M482.503 49.6034C483.28 49.6034 483.912 49.0219 483.912 48.307V43.3998C483.912 42.6844 483.28 42.1034 482.503 42.1034H467.681C466.904 42.1034 466.273 42.6844 466.273 43.3998V48.307C466.273 49.0219 466.904 49.6034 467.681 49.6034H482.503Z"
		fill="#859291" />
	<path
		d="M459.696 49.6034C460.473 49.6034 461.105 49.0219 461.105 48.307V43.3998C461.105 42.6844 460.473 42.1034 459.696 42.1034H444.875C444.098 42.1034 443.466 42.6844 443.466 43.3998V48.307C443.466 49.0219 444.098 49.6034 444.875 49.6034H459.696Z"
		fill="#859291" />
	<path
		d="M436.563 49.6034C437.34 49.6034 437.972 49.0219 437.972 48.307V43.3998C437.972 42.6844 437.34 42.1034 436.563 42.1034H421.742C420.964 42.1034 420.333 42.6844 420.333 43.3998V48.307C420.333 49.0219 420.964 49.6034 421.742 49.6034H436.563Z"
		fill="#859291" />
	<path
		d="M413.753 49.6034C414.53 49.6034 415.162 49.0219 415.162 48.307V43.3998C415.162 42.6844 414.53 42.1034 413.753 42.1034H398.931C398.154 42.1034 397.523 42.6844 397.523 43.3998V48.307C397.523 49.0219 398.154 49.6034 398.931 49.6034H413.753Z"
		fill="#859291" />
	<path
		d="M379.389 26.3555H501.875C503.064 26.3555 504.027 25.392 504.027 24.203V18.8772C504.027 17.6888 503.064 16.7254 501.875 16.7254H379.389C378.201 16.7254 377.237 17.6888 377.237 18.8772V24.203C377.237 25.392 378.201 26.3555 379.389 26.3555Z"
		fill="#231F20" />
	<path
		d="M501.629 25.262C502.344 25.262 502.926 24.6804 502.926 23.9655V19.0583C502.926 18.3428 502.344 17.7618 501.629 17.7618H497.428C496.713 17.7618 496.132 18.3428 496.132 19.0583V23.9655C496.132 24.6804 496.713 25.262 497.428 25.262H501.629Z"
		fill="#859291" />
	<path
		d="M383.9 25.2629C384.574 25.2629 385.123 24.7147 385.123 24.0397V18.9841C385.123 18.3091 384.574 17.7603 383.9 17.7603H379.572C378.897 17.7603 378.348 18.3091 378.348 18.9841V24.0397C378.348 24.7147 378.897 25.2629 379.572 25.2629H383.9Z"
		fill="#859291" />
	<path
		d="M482.83 25.2904C483.606 25.2904 484.238 24.7089 484.238 23.994V19.0868C484.238 18.3714 483.606 17.7904 482.83 17.7904H468.008C467.231 17.7904 466.599 18.3714 466.599 19.0868V23.994C466.599 24.7089 467.231 25.2904 468.008 25.2904H482.83Z"
		fill="#859291" />
	<path
		d="M459.697 25.2904C460.473 25.2904 461.105 24.7089 461.105 23.994V19.0868C461.105 18.3714 460.473 17.7904 459.697 17.7904H444.875C444.098 17.7904 443.466 18.3714 443.466 19.0868V23.994C443.466 24.7089 444.098 25.2904 444.875 25.2904H459.697Z"
		fill="#859291" />
	<path
		d="M436.564 25.2904C437.34 25.2904 437.972 24.7089 437.972 23.994V19.0868C437.972 18.3714 437.34 17.7904 436.564 17.7904H421.742C420.965 17.7904 420.334 18.3714 420.334 19.0868V23.994C420.334 24.7089 420.965 25.2904 421.742 25.2904H436.564Z"
		fill="#859291" />
	<path
		d="M413.543 25.2904C414.258 25.2904 414.839 24.7089 414.839 23.994V19.0868C414.839 18.3714 414.258 17.7904 413.543 17.7904H399.9C399.185 17.7904 398.604 18.3714 398.604 19.0868V23.994C398.604 24.7089 399.185 25.2904 399.9 25.2904H413.543Z"
		fill="#859291" />
	<path
		d="M344.527 39.6078H352.022C352.997 39.6078 353.788 38.8177 353.788 37.8424V32.1618C353.788 31.187 352.997 30.3963 352.022 30.3963H344.527C343.553 30.3963 342.762 31.187 342.762 32.1618V37.8424C342.762 38.8177 343.553 39.6078 344.527 39.6078Z"
		fill="#393536" />
	<path
		d="M352.022 39.2508C352.799 39.2508 353.431 38.619 353.431 37.8423V32.1623C353.431 31.3856 352.799 30.7538 352.022 30.7538H344.527C343.751 30.7538 343.119 31.3856 343.119 32.1623V37.8423C343.119 38.619 343.751 39.2508 344.527 39.2508H352.022Z"
		fill="#859291" />
	<path
		d="M578.142 39.2608C578.601 39.2608 579.017 39.0461 579.284 38.6725C579.549 38.2984 579.616 37.8346 579.466 37.4009L577.045 30.409C576.849 29.8449 576.317 29.4659 575.72 29.4659H573.119C572.347 29.4659 571.718 30.0945 571.718 30.8674V37.8593C571.718 38.6323 572.347 39.2608 573.119 39.2608H578.142Z"
		fill="#859291" />
	<path
		d="M579.812 29.4242C582.777 30.341 584.025 31.2106 585.57 32.6368C586.976 33.9347 587.933 35.3308 588.55 36.1741C588.833 36.5605 588.558 37.1032 588.08 37.1032H582.77C582.022 34.5836 581.019 31.9717 579.812 29.4242Z"
		fill="#859291" />
	<path
		d="M384.358 50.4081H388.586C389.102 50.4081 389.519 49.9899 389.519 49.4746V36.3969C389.519 35.881 389.102 35.4634 388.586 35.4634H384.358C383.842 35.4634 383.424 35.881 383.424 36.3969V49.4746C383.424 49.9899 383.842 50.4081 384.358 50.4081Z"
		fill="#393536" />
	<path
		d="M388.586 50.0511C388.904 50.0511 389.162 49.7924 389.162 49.4746V36.3968C389.162 36.0785 388.904 35.8203 388.586 35.8203H384.357C384.04 35.8203 383.781 36.0785 383.781 36.3968V49.4746C383.781 49.7924 384.04 50.0511 384.357 50.0511H388.586Z"
		fill="#859291" />
	<path
		d="M374.49 50.4081H378.718C379.234 50.4081 379.652 49.9899 379.652 49.4746V36.3969C379.652 35.881 379.234 35.4634 378.718 35.4634H374.49C373.974 35.4634 373.556 35.881 373.556 36.3969V49.4746C373.556 49.9899 373.974 50.4081 374.49 50.4081Z"
		fill="#393536" />
	<path
		d="M378.718 50.0511C379.036 50.0511 379.295 49.7924 379.295 49.4746V36.3968C379.295 36.0785 379.036 35.8203 378.718 35.8203H374.489C374.172 35.8203 373.913 36.0785 373.913 36.3968V49.4746C373.913 49.7924 374.172 50.0511 374.489 50.0511H378.718Z"
		fill="#859291" />
	<path d="M381.084 58.2646H381.991V32.5675H381.084V58.2646Z" fill="#393536" />
	<path
		d="M372.699 30.7829H390.376C391.931 30.7829 393.197 32.048 393.197 33.603V58.2814H391.412V33.603C391.412 33.0314 390.948 32.5676 390.376 32.5676H372.699C372.127 32.5676 371.663 33.0314 371.663 33.603V58.2814H369.879V33.603C369.879 32.048 371.144 30.7829 372.699 30.7829Z"
		fill="#231F20" />
	<path d="M369.879 58.2813L393.197 58.2812" stroke="#0A0F0C" stroke-width="0.25"
		stroke-miterlimit="10" />
	<path
		d="M502.248 50.4081H506.476C506.992 50.4081 507.409 49.9899 507.409 49.4746V36.3969C507.409 35.881 506.992 35.4634 506.476 35.4634H502.248C501.732 35.4634 501.314 35.881 501.314 36.3969V49.4746C501.314 49.9899 501.732 50.4081 502.248 50.4081Z"
		fill="#393536" />
	<path
		d="M506.476 50.0511C506.794 50.0511 507.052 49.7924 507.052 49.4746V36.3968C507.052 36.0785 506.794 35.8203 506.476 35.8203H502.247C501.93 35.8203 501.671 36.0785 501.671 36.3968V49.4746C501.671 49.7924 501.93 50.0511 502.247 50.0511H506.476Z"
		fill="#859291" />
	<path
		d="M492.38 50.4081H496.608C497.124 50.4081 497.542 49.9899 497.542 49.4746V36.3969C497.542 35.881 497.124 35.4634 496.608 35.4634H492.38C491.864 35.4634 491.446 35.881 491.446 36.3969V49.4746C491.446 49.9899 491.864 50.4081 492.38 50.4081Z"
		fill="#393536" />
	<path
		d="M496.608 50.0511C496.926 50.0511 497.185 49.7924 497.185 49.4746V36.3968C497.185 36.0785 496.926 35.8203 496.608 35.8203H492.379C492.062 35.8203 491.803 36.0785 491.803 36.3968V49.4746C491.803 49.7924 492.062 50.0511 492.379 50.0511H496.608Z"
		fill="#859291" />
	<path d="M498.974 58.2646H499.881V32.5675H498.974V58.2646Z" fill="#393536" />
	<path
		d="M490.589 30.7829H508.267C509.821 30.7829 511.087 32.048 511.087 33.603V58.2814H509.302V33.603C509.302 33.0314 508.838 32.5676 508.267 32.5676H490.589C490.017 32.5676 489.553 33.0314 489.553 33.603V58.2814H487.769V33.603C487.769 32.048 489.034 30.7829 490.589 30.7829Z"
		fill="#231F20" />
	<path d="M487.769 58.2813L511.087 58.2812" stroke="#0A0F0C" stroke-width="0.25"
		stroke-miterlimit="10" />
	<path
		d="M562.537 47.5021H554.817C553.842 47.5021 553.051 46.7119 553.051 45.7366V32.712C553.051 31.7373 553.842 30.9466 554.817 30.9466H562.537C563.512 30.9466 564.302 31.7373 564.302 32.712V45.7366C564.302 46.7119 563.512 47.5021 562.537 47.5021Z"
		stroke="#0A0F0C" stroke-width="0.25" stroke-miterlimit="10" />
	<path
		d="M315.925 47.5021H308.204C307.23 47.5021 306.439 46.7119 306.439 45.7366V32.712C306.439 31.7373 307.23 30.9466 308.204 30.9466H315.925C316.9 30.9466 317.69 31.7373 317.69 32.712V45.7366C317.69 46.7119 316.9 47.5021 315.925 47.5021Z"
		stroke="#0A0F0C" stroke-width="0.25" stroke-miterlimit="10" />
	<path
		d="M578.175 27.7963C582.433 27.8038 585.291 29.3389 587.525 32.1999C588.978 34.0614 591.846 39.1435 592.858 44.2262M578.175 27.7963C576.981 25.476 575.618 23.242 574.126 21.2213C568.218 13.2192 562.077 10.8005 560.868 10.1027M578.175 27.7963C580.695 32.6891 582.471 37.9655 583.151 42.4348C583.478 44.578 583.645 46.3705 583.657 48.0315M592.858 44.2262C592.787 42.8404 592.645 41.4005 592.409 39.9227C590.595 28.525 581.071 16.4446 574.778 13.0334C568.683 9.73019 560.868 10.1027 560.868 10.1027M592.858 44.2262C592.925 45.5486 592.926 46.8217 592.88 48.0315M570.846 29.7568H300.253M560.868 10.1027H334.702V16.1735H300.229V55.1121H311.395C311.395 55.1121 311.271 55.2855 312.79 54.5539C314.674 53.6468 316.908 53.4374 333.935 53.4374C350.961 53.4374 351.799 54.1352 355.078 56.7868C356.892 58.2533 360.522 61.4626 360.522 61.4626H519.835C519.835 61.4626 520.812 60.6247 524.72 57.2753C528.628 53.9259 530.233 53.5072 549.632 53.5072C566.311 53.5072 567.916 53.9957 570.358 55.7402C571.835 56.7949 575.801 59.9275 575.801 59.9275H590.735M590.735 59.9275C590.735 59.9275 592.611 55.0454 592.88 48.0315M590.735 59.9275H581.35C582.902 54.9167 583.683 51.8152 583.657 48.0315M592.88 48.0315H583.657M588.222 59.9969H579.778V62.0903H588.6L588.222 61.2529V59.9969Z"
		stroke="#0A0F0C" stroke-width="0.25" stroke-miterlimit="10" />
	<path
		d="M359.876 36.3457H363.757C363.976 36.3457 364.155 36.5223 364.155 36.7418V39.2185C364.155 39.4391 363.976 39.6173 363.757 39.6173H359.876C359.655 39.6173 359.477 39.4391 359.477 39.2185V36.7418C359.477 36.5223 359.655 36.3457 359.876 36.3457Z"
		fill="#EC1C27" />
	<path
		d="M359.952 36.6801H363.681C363.753 36.6801 363.814 36.7391 363.814 36.8127V39.1487C363.814 39.2222 363.753 39.2823 363.681 39.2823H359.952C359.878 39.2823 359.82 39.2222 359.82 39.1487V36.8127C359.82 36.7391 359.878 36.6801 359.952 36.6801Z"
		fill="#E3E6E3" />
	<path
		d="M360.117 39.0605H360.833C361.442 39.0605 361.767 38.7846 361.767 37.9902C361.767 37.1679 361.456 36.9371 360.833 36.9371H360.117V39.0605Z"
		fill="#EC1C27" />
	<path
		d="M360.625 37.2624H360.779C361.128 37.2624 361.273 37.5753 361.273 37.9983C361.273 38.4218 361.136 38.7347 360.779 38.7347H360.625V37.2624Z"
		fill="#E3E6E3" />
	<path
		d="M362.039 39.0605H362.793C363.113 39.0605 363.553 38.9553 363.553 38.4465C363.553 38.1877 363.429 38.0353 363.19 37.9773V37.9704C363.39 37.8925 363.508 37.7433 363.508 37.4744C363.508 37.1099 363.195 36.9371 362.861 36.9371H362.039V39.0605Z"
		fill="#EC1C27" />
	<path
		d="M362.514 38.1295H362.662C362.826 38.1295 363.045 38.2117 363.045 38.4441C363.045 38.6604 362.83 38.7522 362.656 38.7522H362.514V38.1295Z"
		fill="#E3E6E3" />
	<path
		d="M362.514 37.2451H362.654C362.812 37.2451 362.999 37.3557 362.999 37.5516C362.999 37.7309 362.804 37.8071 362.648 37.8071H362.514V37.2451Z"
		fill="#E3E6E3" />
	<path d="M542.325 43.1889L540.931 50.4417H539.195L540.589 43.1889H542.325Z" fill="#859291" />
	<path
		d="M543.291 49.6821C542.741 49.0106 542.579 47.9918 542.827 46.7014C543.432 43.5484 545.58 43.0283 546.796 43.0283C547.44 43.0283 548.049 43.1523 548.522 43.3751C548.51 43.4357 548.307 44.506 548.288 44.5994C547.839 44.3815 547.447 44.2575 546.819 44.2575C546.288 44.2575 544.995 44.5243 544.578 46.7014C544.372 47.7733 544.443 48.4894 544.786 48.9107C545.03 49.2081 545.4 49.3536 545.917 49.3536C546.432 49.3536 546.923 49.2113 547.53 48.9816C547.506 49.1067 547.305 50.141 547.298 50.178C547 50.3085 546.268 50.5833 545.456 50.5833C544.518 50.5833 543.77 50.272 543.291 49.6821Z"
		fill="#859291" />
	<defs>
		<linearGradient id="paint0_linear_9_1106" x1="36.0533" y1="61.506" x2="36.0533" y2="51.87"
			gradientUnits="userSpaceOnUse">
			<stop stop-color="#231F20" />
			<stop offset="1" />
		</linearGradient>
		<linearGradient id="paint1_linear_9_1106" x1="258.637" y1="61.5061" x2="258.637" y2="51.8701"
			gradientUnits="userSpaceOnUse">
			<stop stop-color="#231F20" />
			<stop offset="1" />
		</linearGradient>
		<linearGradient id="paint2_linear_9_1106" x1="147.905" y1="54.7386" x2="147.905" y2="61.5201"
			gradientUnits="userSpaceOnUse">
			<stop stop-color="#4F5756" />
			<stop offset="1" stop-color="#2E3332" />
		</linearGradient>
		<linearGradient id="paint3_linear_9_1106" x1="147.905" y1="54.7386" x2="147.905" y2="61.5201"
			gradientUnits="userSpaceOnUse">
			<stop stop-color="#4F5756" />
			<stop offset="1" stop-color="#2E3332" />
		</linearGradient>
		<linearGradient id="paint4_linear_9_1106" x1="147.905" y1="54.7386" x2="147.905" y2="61.5201"
			gradientUnits="userSpaceOnUse">
			<stop stop-color="#4F5756" />
			<stop offset="1" stop-color="#2E3332" />
		</linearGradient>
		<linearGradient id="paint5_linear_9_1106" x1="147.942" y1="10.2295" x2="147.945" y2="16.3293"
			gradientUnits="userSpaceOnUse">
			<stop stop-color="#969696" />
			<stop offset="1" stop-color="#4F5756" />
		</linearGradient>
		<linearGradient id="paint6_linear_9_1106" x1="334.091" y1="61.5061" x2="334.091" y2="51.8701"
			gradientUnits="userSpaceOnUse">
			<stop stop-color="#231F20" />
			<stop offset="1" />
		</linearGradient>
		<linearGradient id="paint7_linear_9_1106" x1="548.862" y1="61.5121" x2="548.862" y2="51.8761"
			gradientUnits="userSpaceOnUse">
			<stop stop-color="#231F20" />
			<stop offset="1" />
		</linearGradient>
		<linearGradient id="paint8_linear_9_1106" x1="446.484" y1="61.3726" x2="446.484" y2="15.8051"
			gradientUnits="userSpaceOnUse">
			<stop offset="0.0755152" stop-color="#AAABAA" />
			<stop offset="0.310035" stop-color="#DDDDDD" />
			<stop offset="0.73489" stop-color="#DDDDDD" />
			<stop offset="0.952416" stop-color="white" />
		</linearGradient>
		<linearGradient id="paint9_linear_9_1106" x1="587.582" y1="55.202" x2="588.394" y2="48.0314"
			gradientUnits="userSpaceOnUse">
			<stop stop-color="#A7A7A7" />
			<stop offset="1" stop-color="#D9DCD9" />
		</linearGradient>
		<linearGradient id="paint10_linear_9_1106" x1="583.212" y1="27.7963" x2="588.423" y2="48.0314"
			gradientUnits="userSpaceOnUse">
			<stop stop-color="#D8D9D8" />
			<stop offset="1" stop-color="#D9DDD9" />
		</linearGradient>
		<linearGradient id="paint11_linear_9_1106" x1="578.176" y1="15.2545" x2="583.349" y2="28.5458"
			gradientUnits="userSpaceOnUse">
			<stop stop-color="#F3F3F3" />
			<stop offset="1" stop-color="#E6E6E6" />
		</linearGradient>
		<linearGradient id="paint12_linear_9_1106" x1="446.12" y1="54.6467" x2="446.12" y2="62.0565"
			gradientUnits="userSpaceOnUse">
			<stop stop-color="#4F5756" />
			<stop offset="1" stop-color="#2E3332" />
		</linearGradient>
		<linearGradient id="paint13_linear_9_1106" x1="446.12" y1="54.6467" x2="446.12" y2="62.0565"
			gradientUnits="userSpaceOnUse">
			<stop stop-color="#4F5756" />
			<stop offset="1" stop-color="#2E3332" />
		</linearGradient>
		<linearGradient id="paint14_linear_9_1106" x1="446.12" y1="54.6467" x2="446.12" y2="62.0565"
			gradientUnits="userSpaceOnUse">
			<stop stop-color="#4F5756" />
			<stop offset="1" stop-color="#2E3332" />
		</linearGradient>
		<linearGradient id="paint15_linear_9_1106" x1="446.12" y1="54.6467" x2="446.12" y2="62.0565"
			gradientUnits="userSpaceOnUse">
			<stop stop-color="#4F5756" />
			<stop offset="1" stop-color="#2E3332" />
		</linearGradient>
		<linearGradient id="paint16_linear_9_1106" x1="460.628" y1="10.0558" x2="460.619" y2="16.063"
			gradientUnits="userSpaceOnUse">
			<stop stop-color="#969696" />
			<stop offset="1" stop-color="#4F5756" />
		</linearGradient>
		<linearGradient id="paint17_linear_9_1106" x1="568.76" y1="17.9088" x2="570.248" y2="11.0555"
			gradientUnits="userSpaceOnUse">
			<stop stop-color="#231F20" />
			<stop offset="1" stop-color="#404040" />
		</linearGradient>
	</defs>
</svg>
